<?xml version="1.0" encoding="UTF-8"?>
<svg id="Layer_1" xmlns="http://www.w3.org/2000/svg" version="1.1" viewBox="0 0 1024 1024">
  <!-- Generator: Adobe Illustrator 29.3.1, SVG Export Plug-In . SVG Version: 2.1.0 Build 151)  -->
  <defs>
    <style>
      .st0 {
        fill: #e6e7e8;
      }

      .st0, .st1 {
        stroke: #231f20;
        stroke-linecap: round;
      }

      .st0, .st1, .st2 {
        stroke-miterlimit: 10;
      }

      .st1 {
        fill: #f5f5f5;
      }

      .st2 {
        fill: #c61a2d;
        stroke: #000;
        stroke-width: .2px;
      }
    </style>
  </defs>
  <rect class="st0" x="440.1" y="218.2" width="449.7" height="605.4" transform="translate(139.8 -140.7) rotate(13.5)"/>
  <rect class="st1" x="142.2" y="157.7" width="457.8" height="613.2" transform="translate(-93.6 93.7) rotate(-12.8)"/>
  <path d="M499.5,100.6c-2.9.7-29.5,6.8-47.5,10.8-47.7,10.8-104.5,23.6-133,30.2-40.3,9.3-109.6,25-172,38.9-53.2,11.8-56.6,13-64.6,21.8-5.9,6.5-9.3,13.7-10.5,22.4-1.1,8-1.6,5,8.7,51.8,8.7,40,21.2,97.6,36.4,168.5,5,23.4,13,59.8,17.6,81,4.7,21.2,9.8,44.6,11.4,52s11,50.2,20.9,95c10,44.8,20.2,90.9,22.7,102.5,6.1,28.2,7.7,33.2,12.4,39.7,4.3,6,13.6,13,19.8,14.8,9.9,2.9,16.6,2.4,40.7-2.8,12.7-2.8,33.4-7.3,46-10.1,12.7-2.7,46.6-10.2,75.5-16.6,28.9-6.5,53-11.7,53.5-11.7.6,0,25.1,6.3,54.5,14.2,55.4,14.7,69.9,18.5,113,29.6,14,3.6,52.7,13.7,86,22.4,101.9,26.7,94.6,25.2,106.4,22.6,13.8-3.1,24.3-12.3,28.6-25.1,1.1-3.3,32.4-127.5,69.7-276,64.7-258.1,67.6-270.4,67.6-279s-.5-10.3-2.1-14.5c-3-7.7-9.8-15.9-16.5-19.9-6.2-3.6-3.6-2.9-111.7-30.2-95-24-170.3-43.1-214.5-54.4-22.5-5.8-46.7-12-53.6-13.7l-12.6-3.2-3.7-16.5c-4.7-20.6-7.1-26.1-14.4-33.4-7.6-7.5-14.9-10.8-25-11.2-4.2-.2-8.6-.2-9.7,0h0ZM510.8,123.5c6.5,2,11.3,7.4,13.5,15.3,1.8,6.2,21.4,94.4,33.3,149.2,4.1,19,8.8,40.6,10.4,48,3.8,17,28.3,131.1,35.6,165,3,14,6.1,28.4,6.9,32s6.4,29.4,12.5,57.5c6.1,28,14.3,65.5,18.2,83.3,7.8,35.7,7.9,36.4,2.1,43.3-4.9,5.7-3.7,5.4-90.8,24.4-14.3,3.1-35,7.6-46,10s-32.6,7.1-48,10.5c-15.4,3.3-32.9,7.2-39,8.5-6,1.4-17.3,3.8-25,5.4-33.4,7.1-81.8,17.6-117.8,25.5-21.4,4.7-40,8.6-41.5,8.6-7.1,0-15.5-6.9-18.6-15.1-.9-2.4-5.9-24.2-11.1-48.4-5.3-24.2-18.8-85.4-30-136s-21.6-97.4-23-104c-5.8-26.8-30.9-143.4-35.1-163-4.8-22.6-7.8-36.5-17.5-80-3.4-15.4-6.2-30-6.2-32.5,0-8,6-16.5,13.5-18.9,1.8-.6,17.5-4.2,34.8-8.1,17.3-3.8,33.3-7.5,35.5-8,2.2-.6,27.2-6.2,55.5-12.5,46-10.2,89.6-20,120-27,5.8-1.3,29.6-6.7,53-12s54-12.3,68-15.5,26.9-6.1,28.5-6.3c1.7-.2,3-.5,3.1-.6,0,0,2.3.6,5.2,1.4h0ZM597.3,195.6c20.5,5.3,56.1,14.5,79.2,20.4s56.9,14.6,75,19.2c18.2,4.7,51.2,13.2,73.5,18.8,71.5,18.1,98.4,25,103.2,26.6,7.7,2.5,13.8,11,13.8,19.2s-38.4,157-102.4,411.2c-33.3,132.5-33.1,131.4-35.2,135.1-3.5,5.8-8.7,9.2-15.2,9.7-6,.4-7.9,0-138.7-34.3-24.2-6.4-57.3-15-73.5-19.1-61.9-15.9-90.3-23.3-90.7-23.8-.2-.2.8-.7,2.4-1,5.4-1.1,91.1-19.7,122.8-26.7,19.1-4.3,33.8-8,36.5-9.4,7.8-4,13.6-10,17.7-18.3,5.7-11.5,5.4-18.2-2.1-51.5-3.2-14.2-5.6-26-5.3-26.3s23.2,3.3,38.1,6.3c3.3.6,3.5,1.1-3.4-9.2-9.8-14.7-17-33-19.1-49-1.2-9-.8-30.4.6-33.8.6-1.4,1.1-1.1,2.6,2,3,5.9,11.8,16.2,19.2,22.4,13.2,11.1,29.5,17,47.2,17.1,19,0,33-5.6,46-18.6,13.7-13.8,19.3-27.6,20.2-49.7,1.3-31.1-7.7-56.4-34.4-96.4-7.7-11.6-16.3-25.2-19.2-30.3-12.9-22.8-26.8-54.9-30.9-71.1-.9-3.6-1.8-6.8-1.9-7s-4.4,3.6-9.5,8.5c-18.4,17.5-43.2,36.9-66.5,52.1-12.2,8-39.6,24.4-40,24,0-.2-2.7-11.7-5.8-25.7-5.6-25.5-7.3-33.4-20.4-94-7.6-35.5-21.7-98.6-23.1-103.8-.7-2.5-.5-3.2.6-3.2s18.2,4.3,38.7,9.6h0ZM649.7,565c-2.8,6-5.4,10.6-5.8,10.2-.3-.4-1.3-3.5-2.1-6.9l-1.6-6.2,6.7-4c3.6-2.2,6.9-4,7.3-4.1.3,0-1.7,4.9-4.5,11h0Z"/>
  <path class="st2" d="M412.8,318.6c-26.5,5.6-45.2,20.6-57.7,46.4l-5.4,10.8c-.1.2-3.8-1.7-8.1-4.2-19.3-11.1-37.3-18.1-51.2-19.9-19.5-2.4-42.9,5.5-57.9,19.7-9.4,8.8-17.8,23-21.4,36.4-3,11.3-3,30.6.1,42.2,7.7,28.9,30.7,59.6,68,90.5,23.1,19.2,46.7,34.7,94.1,61.9,24.1,13.9,25.5,14.5,27.1,12.9,2.3-2.4,32.7-45,45.4-63.7,24-35.4,40-65.6,48.9-92.8,10.5-31.6,12.6-51.9,8-74.3-6.6-31.4-33.8-58.4-65.6-64.9-7.1-1.5-19.5-2-24.3-1h0Z"/>
</svg>