<svg width="23" height="10" viewBox="0 0 23 10" fill="none" xmlns="http://www.w3.org/2000/svg">
	<path d="M1.14423 4.84684L21.8558 4.84684C21.9354 4.84684 22 4.91557 22 5.00027C22 5.08496 21.9354 5.1537 21.8558 5.1537L1.14423 5.1537C1.06461 5.1537 1 5.08496 1 5.00027C1 4.91558 1.06461 4.84684 1.14423 4.84684Z" fill="#0C9DCD" />
	<path d="M4.76061 1C4.79754 1 4.83446 1.01504 4.86273 1.0448C4.91898 1.10464 4.91898 1.20192 4.86273 1.26175L1.34817 5.00058L4.86273 8.73817C4.91898 8.79801 4.91898 8.89528 4.86273 8.95512C4.80648 9.01496 4.71504 9.01496 4.65879 8.95512L1.0424 5.10921C1.01529 5.08036 1 5.04108 1 5.00027C1 4.95946 1.01558 4.92079 1.0424 4.89195L4.65879 1.04511C4.68677 1.01504 4.72369 1 4.76061 1Z" fill="#0C9DCD" />
	<path d="M1 5.00027C1 5.08496 1.06462 5.1537 1.14423 5.1537L21.8558 5.1537C21.9354 5.1537 22 5.08496 22 5.00027C22 4.91557 21.9354 4.84684 21.8558 4.84684L1.14423 4.84684C1.06462 4.84684 1 4.91558 1 5.00027ZM1 5.00027C1 5.04108 1.01529 5.08036 1.0424 5.10921L4.65879 8.95512C4.71504 9.01496 4.80648 9.01496 4.86273 8.95512C4.91898 8.89528 4.91898 8.79801 4.86273 8.73817L1.34817 5.00058L4.86273 1.26175C4.91898 1.20192 4.91898 1.10464 4.86273 1.0448C4.83446 1.01504 4.79754 1 4.76061 1C4.72369 1 4.68677 1.01504 4.65879 1.04511L1.0424 4.89195C1.01558 4.92079 1 4.95946 1 5.00027Z" stroke="#0C9DCD" stroke-width="0.4" />
</svg>
