<svg width="72" height="72" viewBox="0 0 72 72" fill="none" xmlns="http://www.w3.org/2000/svg">
	<path d="M17.8356 69.4462C17.2664 69.4462 16.7781 69.0165 16.7196 68.4382L15.8151 59.7577H10.6221C9.17763 59.7577 7.93788 58.635 7.79613 57.1995L7.13913 50.445H4.41213C3.59988 50.445 2.92713 50.1007 2.56713 49.4977C2.20713 48.897 2.22063 48.1387 2.60538 47.4232L6.53613 38.7157L6.39438 36.2047C6.39213 31.9027 8.33388 27.7559 11.7201 24.7634C12.1836 24.3517 12.8969 24.3944 13.3086 24.8624C13.7204 25.3282 13.6754 26.0392 13.2096 26.4509C10.2621 29.0519 8.64213 32.4944 8.64213 36.1417L8.79738 38.8642C8.80863 39.0442 8.77488 39.2265 8.70063 39.3907L4.72488 48.1882L8.16063 48.195C8.74113 48.195 9.22488 48.6337 9.28113 49.2097L10.0371 56.979C10.0641 57.2557 10.3431 57.5055 10.6221 57.5055H16.8276C17.4036 57.5055 17.8874 57.9397 17.9459 58.5135L18.9561 68.2042C19.0214 68.8207 18.5714 69.3765 17.9549 69.4395C17.9144 69.444 17.8739 69.4462 17.8356 69.4462Z" fill="#263140" />
	<path d="M28.6154 69.5385C28.0484 69.5385 27.5602 69.111 27.4994 68.5327L26.1607 56.0002H20.0339C18.4544 56.0002 17.0999 54.7717 16.9537 53.2057L16.1819 45.2947H12.8924C12.0172 45.2947 11.2972 44.928 10.9124 44.289C10.5299 43.6477 10.5479 42.8377 10.9597 42.066L15.5024 32.0062L15.3382 29.0677C15.3359 23.3842 18.3217 17.9797 23.3234 14.5552C23.8342 14.2042 24.5362 14.3347 24.8849 14.8477C25.2359 15.3607 25.1077 16.0582 24.5924 16.4092C20.2049 19.4175 17.5859 24.1267 17.5859 29.0047L17.7637 32.1525C17.7749 32.3347 17.7412 32.5147 17.6669 32.679L12.9914 43.0267L17.2034 43.0447C17.7839 43.0447 18.2677 43.4835 18.3239 44.0595L19.1947 52.9897C19.2329 53.397 19.6244 53.7502 20.0339 53.7502H27.1709C27.7469 53.7502 28.2284 54.1822 28.2892 54.756L29.7359 68.2965C29.8012 68.913 29.3557 69.4687 28.7369 69.534C28.6964 69.5362 28.6559 69.5385 28.6154 69.5385Z" fill="#263140" />
	<path d="M37.0641 52.7962H31.2456C29.5356 52.7962 28.0731 51.4665 27.9111 49.7677L27.0291 40.6935H23.1726C22.2366 40.6935 21.4671 40.3042 21.0621 39.6247C20.6571 38.9475 20.6774 38.0857 21.1229 37.26L26.2709 25.8457L26.0841 22.4842C26.0819 11.2365 36.0876 2.13745 48.3884 2.13745C60.5294 2.13745 69.6891 11.727 69.6891 24.4395C69.6891 29.295 68.5011 33.9187 66.0531 38.5717C65.7651 39.123 65.0811 39.33 64.5344 39.0442C63.9831 38.7562 63.7716 38.0745 64.0619 37.5255C66.3344 33.201 67.4391 28.9215 67.4391 24.4395C67.4391 13.0072 59.2491 4.38745 48.3884 4.38745C37.3296 4.38745 28.3319 12.4785 28.3319 22.4235L28.5321 25.9965C28.5434 26.1765 28.5096 26.3565 28.4354 26.5207L23.1389 38.259C23.0961 38.3377 23.0691 38.4007 23.0511 38.4435C23.0871 38.4457 23.1231 38.4457 23.1726 38.4457H28.0506C28.6311 38.4457 29.1149 38.8845 29.1711 39.4627L30.1521 49.5562C30.2016 50.094 30.7034 50.5462 31.2456 50.5462H37.0641C37.6851 50.5462 38.1891 51.0502 38.1891 51.6712C38.1891 52.2922 37.6851 52.7962 37.0641 52.7962Z" fill="#263140" />
	<path d="M17.8356 69.4462C17.2664 69.4462 16.7781 69.0165 16.7196 68.4382L15.8151 59.7577H10.6221C9.17763 59.7577 7.93788 58.635 7.79613 57.1995L7.13913 50.445H4.41213C3.59988 50.445 2.92713 50.1007 2.56713 49.4977C2.20713 48.897 2.22063 48.1387 2.60538 47.4232L6.53613 38.7157L6.39438 36.2047C6.39213 31.9027 8.33388 27.7559 11.7201 24.7634C12.1836 24.3517 12.8969 24.3944 13.3086 24.8624C13.7204 25.3282 13.6754 26.0392 13.2096 26.4509C10.2621 29.0519 8.64213 32.4944 8.64213 36.1417L8.79738 38.8642C8.80863 39.0442 8.77488 39.2265 8.70063 39.3907L4.72488 48.1882L8.16063 48.195C8.74113 48.195 9.22488 48.6337 9.28113 49.2097L10.0371 56.979C10.0641 57.2557 10.3431 57.5055 10.6221 57.5055H16.8276C17.4036 57.5055 17.8874 57.9397 17.9459 58.5135L18.9561 68.2042C19.0214 68.8207 18.5714 69.3765 17.9549 69.4395C17.9144 69.444 17.8739 69.4462 17.8356 69.4462Z" stroke="#F7FAFC" />
	<path d="M28.6154 69.5385C28.0484 69.5385 27.5602 69.111 27.4994 68.5327L26.1607 56.0002H20.0339C18.4544 56.0002 17.0999 54.7717 16.9537 53.2057L16.1819 45.2947H12.8924C12.0172 45.2947 11.2972 44.928 10.9124 44.289C10.5299 43.6477 10.5479 42.8377 10.9597 42.066L15.5024 32.0062L15.3382 29.0677C15.3359 23.3842 18.3217 17.9797 23.3234 14.5552C23.8342 14.2042 24.5362 14.3347 24.8849 14.8477C25.2359 15.3607 25.1077 16.0582 24.5924 16.4092C20.2049 19.4175 17.5859 24.1267 17.5859 29.0047L17.7637 32.1525C17.7749 32.3347 17.7412 32.5147 17.6669 32.679L12.9914 43.0267L17.2034 43.0447C17.7839 43.0447 18.2677 43.4835 18.3239 44.0595L19.1947 52.9897C19.2329 53.397 19.6244 53.7502 20.0339 53.7502H27.1709C27.7469 53.7502 28.2284 54.1822 28.2892 54.756L29.7359 68.2965C29.8012 68.913 29.3557 69.4687 28.7369 69.534C28.6964 69.5362 28.6559 69.5385 28.6154 69.5385Z" stroke="#F7FAFC" />
	<path d="M37.0641 52.7962H31.2456C29.5356 52.7962 28.0731 51.4665 27.9111 49.7677L27.0291 40.6935H23.1726C22.2366 40.6935 21.4671 40.3042 21.0621 39.6247C20.6571 38.9475 20.6774 38.0857 21.1229 37.26L26.2709 25.8457L26.0841 22.4842C26.0819 11.2365 36.0876 2.13745 48.3884 2.13745C60.5294 2.13745 69.6891 11.727 69.6891 24.4395C69.6891 29.295 68.5011 33.9187 66.0531 38.5717C65.7651 39.123 65.0811 39.33 64.5344 39.0442C63.9831 38.7562 63.7716 38.0745 64.0619 37.5255C66.3344 33.201 67.4391 28.9215 67.4391 24.4395C67.4391 13.0072 59.2491 4.38745 48.3884 4.38745C37.3296 4.38745 28.3319 12.4785 28.3319 22.4235L28.5321 25.9965C28.5434 26.1765 28.5096 26.3565 28.4354 26.5207L23.1389 38.259C23.0961 38.3377 23.0691 38.4007 23.0511 38.4435C23.0871 38.4457 23.1231 38.4457 23.1726 38.4457H28.0506C28.6311 38.4457 29.1149 38.8845 29.1711 39.4627L30.1521 49.5562C30.2016 50.094 30.7034 50.5462 31.2456 50.5462H37.0641C37.6851 50.5462 38.1891 51.0502 38.1891 51.6712C38.1891 52.2922 37.6851 52.7962 37.0641 52.7962Z" stroke="#F7FAFC" />
	<path d="M50.3955 40.3357H46.35C45.8212 40.3357 45.3645 39.9667 45.252 39.4492L44.586 36.4071C43.6522 36.1349 42.7545 35.7614 41.8995 35.2911L39.276 36.9719C38.8305 37.2577 38.2477 37.1946 37.8742 36.8211L35.0145 33.9614C34.641 33.5879 34.578 33.0029 34.8637 32.5596L36.5445 29.9361C36.0743 29.0811 35.7007 28.1834 35.4285 27.2496L32.3865 26.5836C31.8668 26.4711 31.5 26.0144 31.5 25.4834V21.4356C31.5 20.9069 31.8667 20.4501 32.3842 20.3376L35.424 19.6716C35.6985 18.7356 36.0742 17.8379 36.5422 16.9851L34.8615 14.3616C34.5758 13.9184 34.6387 13.3334 35.0122 12.9599L37.872 10.1001C38.2455 9.72664 38.8282 9.66364 39.2737 9.94939L41.8972 11.6301C42.7545 11.1599 43.6522 10.7864 44.5837 10.5141L45.2497 7.47214C45.3622 6.95689 45.819 6.58789 46.3477 6.58789H50.3955C50.9242 6.58789 51.381 6.95464 51.4935 7.47214L52.1595 10.5164C53.091 10.7864 53.9887 11.1599 54.846 11.6301L57.4695 9.94939C57.9172 9.66139 58.5 9.72439 58.8735 10.0979L61.7332 12.9576C62.1067 13.3311 62.1697 13.9161 61.884 14.3594L60.2055 16.9874C60.6757 17.8446 61.0492 18.7424 61.3192 19.6716L64.3635 20.3376C64.8787 20.4501 65.2477 20.9069 65.2477 21.4356V25.4834C65.2477 26.0121 64.881 26.4689 64.3635 26.5814L61.3192 27.2474C61.0492 28.1766 60.6757 29.0766 60.2055 29.9316L61.8862 32.5574C62.172 33.0006 62.109 33.5856 61.7355 33.9592L58.8757 36.8211C58.5 37.1969 57.9172 37.2532 57.474 36.9719L54.8505 35.2889C53.9955 35.7592 53.0977 36.1304 52.164 36.4027L51.498 39.4469C51.3832 39.9666 50.9265 40.3357 50.3955 40.3357ZM47.2545 38.0856H49.491L50.1097 35.2551C50.202 34.8321 50.5305 34.4969 50.9512 34.3979C52.1302 34.1234 53.2485 33.6576 54.279 33.0186C54.6435 32.7914 55.1137 32.7914 55.4782 33.0276L57.9195 34.5914L59.5012 33.0096L57.9375 30.5684C57.7035 30.2039 57.7012 29.7381 57.9262 29.3714C58.572 28.3274 59.0355 27.2091 59.3077 26.0414C59.4067 25.6184 59.7397 25.2921 60.1627 25.1999L62.9932 24.5811V22.3424L60.165 21.7214C59.742 21.6291 59.409 21.3006 59.31 20.8799C59.0377 19.7099 58.5742 18.5916 57.9285 17.5499C57.7012 17.1831 57.7057 16.7174 57.9397 16.3529L59.5035 13.9116L57.9217 12.3299L55.4805 13.8936C55.116 14.1299 54.6502 14.1299 54.2812 13.9026C53.2462 13.2614 52.128 12.7979 50.9535 12.5234C50.5305 12.4244 50.2042 12.0914 50.112 11.6684L49.4932 8.83789H47.2567L46.638 11.6684C46.5457 12.0914 46.2172 12.4244 45.7942 12.5234C44.622 12.7956 43.5037 13.2591 42.4665 13.9026C42.0997 14.1299 41.634 14.1299 41.2672 13.8936L38.826 12.3299L37.2442 13.9116L38.808 16.3529C39.042 16.7174 39.0443 17.1854 38.817 17.5521C38.178 18.5804 37.7122 19.7009 37.431 20.8821C37.332 21.3051 37.0012 21.6291 36.5782 21.7214L33.75 22.3424V24.5789L36.5805 25.1976C37.0035 25.2899 37.3365 25.6184 37.4355 26.0391C37.71 27.2159 38.1735 28.3364 38.8147 29.3669C39.0442 29.7337 39.042 30.2016 38.8057 30.5661L37.242 33.0074L38.8237 34.5891L41.265 33.0254C41.6317 32.7914 42.102 32.7914 42.4642 33.0164C43.497 33.6576 44.6152 34.1234 45.792 34.3956C46.215 34.4946 46.5435 34.8276 46.6357 35.2529L47.2545 38.0856ZM48.3705 31.3379C44.028 31.3379 40.4955 27.8054 40.4955 23.4629C40.4955 19.1204 44.028 15.5879 48.3705 15.5879C52.713 15.5879 56.2455 19.1204 56.2455 23.4629C56.2455 27.8054 52.713 31.3379 48.3705 31.3379ZM48.3705 17.8379C45.2677 17.8379 42.7455 20.3601 42.7455 23.4629C42.7455 26.5656 45.2677 29.0879 48.3705 29.0879C51.4732 29.0879 53.9955 26.5656 53.9955 23.4629C53.9955 20.3601 51.4732 17.8379 48.3705 17.8379Z" fill="#4DBD94" />
	<path d="M57.2467 67.3514H53.9077C53.379 67.3514 52.9222 66.9824 52.8097 66.4649L52.2877 64.0687C51.5835 63.8549 50.8995 63.5714 50.2492 63.2227L48.1792 64.5457C47.7337 64.8337 47.151 64.7684 46.7775 64.3949L44.415 62.0324C44.0415 61.6589 43.9785 61.0739 44.2642 60.6284L45.5917 58.5629C45.2407 57.9104 44.9572 57.2264 44.7435 56.5244L42.3495 56.0002C41.8342 55.8877 41.463 55.4309 41.463 54.9021V51.5631C41.463 51.0344 41.832 50.5777 42.3495 50.4652L44.7435 49.9409C44.9572 49.2366 45.2407 48.5549 45.5917 47.9024L44.2642 45.8324C43.9785 45.3892 44.0415 44.8041 44.415 44.4306L46.7752 42.0704C47.1487 41.6969 47.7315 41.6316 48.177 41.9197L50.247 43.2426C50.8972 42.8939 51.5812 42.6081 52.2855 42.3944L52.8075 40.0026C52.92 39.4874 53.3767 39.1161 53.9055 39.1161H57.2445C57.771 39.1161 58.23 39.4829 58.3425 40.0004L58.8667 42.3944C59.571 42.6081 60.2527 42.8917 60.9075 43.2426L62.973 41.9197C63.4185 41.6362 63.999 41.6969 64.3747 42.0704L66.735 44.4306C67.1085 44.8041 67.1715 45.3869 66.8857 45.8324L65.5627 47.9024C65.9115 48.5549 66.1972 49.2389 66.411 49.9409L68.805 50.4652C69.3202 50.5777 69.6915 51.0344 69.6915 51.5631V54.8999C69.6915 55.4287 69.3225 55.8854 68.805 55.9979L66.4087 56.5222C66.1972 57.2264 65.9137 57.9059 65.5627 58.5607L66.8857 60.6284C67.1715 61.0717 67.1085 61.6567 66.735 62.0302L64.3747 64.3927C63.999 64.7684 63.4095 64.8247 62.973 64.5434L60.9075 63.2182C60.2527 63.5669 59.571 63.8504 58.8667 64.0642L58.3425 66.4627C58.2345 66.9847 57.7777 67.3514 57.2467 67.3514ZM54.8145 65.1014H56.3422L56.8215 62.9167C56.9137 62.4937 57.2445 62.1607 57.6652 62.0617C58.6102 61.8412 59.5125 61.4677 60.3517 60.9502C60.7162 60.7207 61.1842 60.7229 61.5487 60.9592L63.4275 62.1629L64.5075 61.0829L63.3037 59.2019C63.0697 58.8374 63.0675 58.3717 63.2947 58.0027C63.8145 57.1634 64.188 56.2612 64.4062 55.3207C64.5052 54.8977 64.836 54.5669 65.2635 54.4747L67.446 53.9977V52.4677L65.268 51.9907C64.845 51.8984 64.512 51.5699 64.413 51.1492C64.188 50.2019 63.8122 49.2997 63.2947 48.4627C63.0652 48.0937 63.0675 47.6279 63.3037 47.2634L64.5075 45.3801L63.4275 44.3001L61.5487 45.5039C61.1842 45.7379 60.7162 45.7379 60.3517 45.5129C59.5102 44.9932 58.6057 44.6174 57.663 44.3947C57.24 44.2957 56.9137 43.9649 56.8215 43.5419L56.3422 41.3639H54.8122L54.3375 43.5374C54.2452 43.9604 53.9167 44.2934 53.496 44.3924C52.5465 44.6174 51.6442 44.9931 50.8095 45.5106C50.4472 45.7379 49.977 45.7379 49.6102 45.5017L47.727 44.2979L46.647 45.3779L47.8552 47.2611C48.0892 47.6256 48.0915 48.0914 47.8642 48.4604C47.3467 49.2974 46.971 50.1997 46.746 51.1469C46.647 51.5699 46.3162 51.8962 45.891 51.9884L43.713 52.4654V53.9954L45.891 54.4724C46.314 54.5647 46.647 54.8932 46.746 55.3139C46.971 56.2612 47.3467 57.1634 47.8642 58.0004C48.0937 58.3694 48.0915 58.8352 47.8552 59.2019L46.6492 61.0829L47.727 62.1607L49.6102 60.9569C49.977 60.7229 50.4472 60.7229 50.8095 60.9479C51.6397 61.4632 52.5442 61.8389 53.4937 62.0594C53.9167 62.1584 54.2452 62.4914 54.3375 62.9167L54.8145 65.1014ZM55.5772 59.9264C51.885 59.9264 48.8835 56.9249 48.8835 53.2327C48.8835 49.5404 51.885 46.5389 55.5772 46.5389C59.2695 46.5389 62.271 49.5404 62.271 53.2327C62.271 56.9249 59.2695 59.9264 55.5772 59.9264ZM55.5772 48.7911C53.127 48.7911 51.1335 50.7846 51.1335 53.2349C51.1335 55.6852 53.127 57.6787 55.5772 57.6787C58.0275 57.6787 60.021 55.6852 60.021 53.2349C60.021 50.7846 58.0275 48.7911 55.5772 48.7911Z" fill="#4DBD94" />
	<path d="M50.3955 40.3357H46.35C45.8212 40.3357 45.3645 39.9667 45.252 39.4492L44.586 36.4071C43.6522 36.1349 42.7545 35.7614 41.8995 35.2911L39.276 36.9719C38.8305 37.2577 38.2477 37.1946 37.8742 36.8211L35.0145 33.9614C34.641 33.5879 34.578 33.0029 34.8637 32.5596L36.5445 29.9361C36.0743 29.0811 35.7007 28.1834 35.4285 27.2496L32.3865 26.5836C31.8668 26.4711 31.5 26.0144 31.5 25.4834V21.4356C31.5 20.9069 31.8667 20.4501 32.3842 20.3376L35.424 19.6716C35.6985 18.7356 36.0742 17.8379 36.5422 16.9851L34.8615 14.3616C34.5758 13.9184 34.6387 13.3334 35.0122 12.9599L37.872 10.1001C38.2455 9.72664 38.8282 9.66364 39.2737 9.94939L41.8972 11.6301C42.7545 11.1599 43.6522 10.7864 44.5837 10.5141L45.2497 7.47214C45.3622 6.95689 45.819 6.58789 46.3477 6.58789H50.3955C50.9242 6.58789 51.381 6.95464 51.4935 7.47214L52.1595 10.5164C53.091 10.7864 53.9887 11.1599 54.846 11.6301L57.4695 9.94939C57.9172 9.66139 58.5 9.72439 58.8735 10.0979L61.7332 12.9576C62.1067 13.3311 62.1697 13.9161 61.884 14.3594L60.2055 16.9874C60.6757 17.8446 61.0492 18.7424 61.3192 19.6716L64.3635 20.3376C64.8787 20.4501 65.2477 20.9069 65.2477 21.4356V25.4834C65.2477 26.0121 64.881 26.4689 64.3635 26.5814L61.3192 27.2474C61.0492 28.1766 60.6757 29.0766 60.2055 29.9316L61.8862 32.5574C62.172 33.0006 62.109 33.5856 61.7355 33.9592L58.8757 36.8211C58.5 37.1969 57.9172 37.2532 57.474 36.9719L54.8505 35.2889C53.9955 35.7592 53.0977 36.1304 52.164 36.4027L51.498 39.4469C51.3832 39.9666 50.9265 40.3357 50.3955 40.3357ZM47.2545 38.0856H49.491L50.1097 35.2551C50.202 34.8321 50.5305 34.4969 50.9512 34.3979C52.1302 34.1234 53.2485 33.6576 54.279 33.0186C54.6435 32.7914 55.1137 32.7914 55.4782 33.0276L57.9195 34.5914L59.5012 33.0096L57.9375 30.5684C57.7035 30.2039 57.7012 29.7381 57.9262 29.3714C58.572 28.3274 59.0355 27.2091 59.3077 26.0414C59.4067 25.6184 59.7397 25.2921 60.1627 25.1999L62.9932 24.5811V22.3424L60.165 21.7214C59.742 21.6291 59.409 21.3006 59.31 20.8799C59.0377 19.7099 58.5742 18.5916 57.9285 17.5499C57.7012 17.1831 57.7057 16.7174 57.9397 16.3529L59.5035 13.9116L57.9217 12.3299L55.4805 13.8936C55.116 14.1299 54.6502 14.1299 54.2812 13.9026C53.2462 13.2614 52.128 12.7979 50.9535 12.5234C50.5305 12.4244 50.2042 12.0914 50.112 11.6684L49.4932 8.83789H47.2567L46.638 11.6684C46.5457 12.0914 46.2172 12.4244 45.7942 12.5234C44.622 12.7956 43.5037 13.2591 42.4665 13.9026C42.0997 14.1299 41.634 14.1299 41.2672 13.8936L38.826 12.3299L37.2442 13.9116L38.808 16.3529C39.042 16.7174 39.0443 17.1854 38.817 17.5521C38.178 18.5804 37.7122 19.7009 37.431 20.8821C37.332 21.3051 37.0012 21.6291 36.5782 21.7214L33.75 22.3424V24.5789L36.5805 25.1976C37.0035 25.2899 37.3365 25.6184 37.4355 26.0391C37.71 27.2159 38.1735 28.3364 38.8147 29.3669C39.0442 29.7337 39.042 30.2016 38.8057 30.5661L37.242 33.0074L38.8237 34.5891L41.265 33.0254C41.6317 32.7914 42.102 32.7914 42.4642 33.0164C43.497 33.6576 44.6152 34.1234 45.792 34.3956C46.215 34.4946 46.5435 34.8276 46.6357 35.2529L47.2545 38.0856ZM48.3705 31.3379C44.028 31.3379 40.4955 27.8054 40.4955 23.4629C40.4955 19.1204 44.028 15.5879 48.3705 15.5879C52.713 15.5879 56.2455 19.1204 56.2455 23.4629C56.2455 27.8054 52.713 31.3379 48.3705 31.3379ZM48.3705 17.8379C45.2677 17.8379 42.7455 20.3601 42.7455 23.4629C42.7455 26.5656 45.2677 29.0879 48.3705 29.0879C51.4732 29.0879 53.9955 26.5656 53.9955 23.4629C53.9955 20.3601 51.4732 17.8379 48.3705 17.8379Z" stroke="#F7FAFC" />
	<path d="M57.2467 67.3514H53.9077C53.379 67.3514 52.9222 66.9824 52.8097 66.4649L52.2877 64.0687C51.5835 63.8549 50.8995 63.5714 50.2492 63.2227L48.1792 64.5457C47.7337 64.8337 47.151 64.7684 46.7775 64.3949L44.415 62.0324C44.0415 61.6589 43.9785 61.0739 44.2642 60.6284L45.5917 58.5629C45.2407 57.9104 44.9572 57.2264 44.7435 56.5244L42.3495 56.0002C41.8342 55.8877 41.463 55.4309 41.463 54.9021V51.5631C41.463 51.0344 41.832 50.5777 42.3495 50.4652L44.7435 49.9409C44.9572 49.2366 45.2407 48.5549 45.5917 47.9024L44.2642 45.8324C43.9785 45.3892 44.0415 44.8041 44.415 44.4306L46.7752 42.0704C47.1487 41.6969 47.7315 41.6316 48.177 41.9197L50.247 43.2426C50.8972 42.8939 51.5812 42.6081 52.2855 42.3944L52.8075 40.0026C52.92 39.4874 53.3767 39.1161 53.9055 39.1161H57.2445C57.771 39.1161 58.23 39.4829 58.3425 40.0004L58.8667 42.3944C59.571 42.6081 60.2527 42.8917 60.9075 43.2426L62.973 41.9197C63.4185 41.6362 63.999 41.6969 64.3747 42.0704L66.735 44.4306C67.1085 44.8041 67.1715 45.3869 66.8857 45.8324L65.5627 47.9024C65.9115 48.5549 66.1972 49.2389 66.411 49.9409L68.805 50.4652C69.3202 50.5777 69.6915 51.0344 69.6915 51.5631V54.8999C69.6915 55.4287 69.3225 55.8854 68.805 55.9979L66.4087 56.5222C66.1972 57.2264 65.9137 57.9059 65.5627 58.5607L66.8857 60.6284C67.1715 61.0717 67.1085 61.6567 66.735 62.0302L64.3747 64.3927C63.999 64.7684 63.4095 64.8247 62.973 64.5434L60.9075 63.2182C60.2527 63.5669 59.571 63.8504 58.8667 64.0642L58.3425 66.4627C58.2345 66.9847 57.7777 67.3514 57.2467 67.3514ZM54.8145 65.1014H56.3422L56.8215 62.9167C56.9137 62.4937 57.2445 62.1607 57.6652 62.0617C58.6102 61.8412 59.5125 61.4677 60.3517 60.9502C60.7162 60.7207 61.1842 60.7229 61.5487 60.9592L63.4275 62.1629L64.5075 61.0829L63.3037 59.2019C63.0697 58.8374 63.0675 58.3717 63.2947 58.0027C63.8145 57.1634 64.188 56.2612 64.4062 55.3207C64.5052 54.8977 64.836 54.5669 65.2635 54.4747L67.446 53.9977V52.4677L65.268 51.9907C64.845 51.8984 64.512 51.5699 64.413 51.1492C64.188 50.2019 63.8122 49.2997 63.2947 48.4627C63.0652 48.0937 63.0675 47.6279 63.3037 47.2634L64.5075 45.3801L63.4275 44.3001L61.5487 45.5039C61.1842 45.7379 60.7162 45.7379 60.3517 45.5129C59.5102 44.9932 58.6057 44.6174 57.663 44.3947C57.24 44.2957 56.9137 43.9649 56.8215 43.5419L56.3422 41.3639H54.8122L54.3375 43.5374C54.2452 43.9604 53.9167 44.2934 53.496 44.3924C52.5465 44.6174 51.6442 44.9931 50.8095 45.5106C50.4472 45.7379 49.977 45.7379 49.6102 45.5017L47.727 44.2979L46.647 45.3779L47.8552 47.2611C48.0892 47.6256 48.0915 48.0914 47.8642 48.4604C47.3467 49.2974 46.971 50.1997 46.746 51.1469C46.647 51.5699 46.3162 51.8962 45.891 51.9884L43.713 52.4654V53.9954L45.891 54.4724C46.314 54.5647 46.647 54.8932 46.746 55.3139C46.971 56.2612 47.3467 57.1634 47.8642 58.0004C48.0937 58.3694 48.0915 58.8352 47.8552 59.2019L46.6492 61.0829L47.727 62.1607L49.6102 60.9569C49.977 60.7229 50.4472 60.7229 50.8095 60.9479C51.6397 61.4632 52.5442 61.8389 53.4937 62.0594C53.9167 62.1584 54.2452 62.4914 54.3375 62.9167L54.8145 65.1014ZM55.5772 59.9264C51.885 59.9264 48.8835 56.9249 48.8835 53.2327C48.8835 49.5404 51.885 46.5389 55.5772 46.5389C59.2695 46.5389 62.271 49.5404 62.271 53.2327C62.271 56.9249 59.2695 59.9264 55.5772 59.9264ZM55.5772 48.7911C53.127 48.7911 51.1335 50.7846 51.1335 53.2349C51.1335 55.6852 53.127 57.6787 55.5772 57.6787C58.0275 57.6787 60.021 55.6852 60.021 53.2349C60.021 50.7846 58.0275 48.7911 55.5772 48.7911Z" stroke="#F7FAFC" />
</svg>
