<svg width="68" height="68" viewBox="0 0 68 68" fill="none" xmlns="http://www.w3.org/2000/svg">
	<path d="M16.8449 65.5882C16.3072 65.5882 15.8461 65.1823 15.7909 64.6362L14.9366 56.4379H10.0321C8.66786 56.4379 7.49699 55.3776 7.36311 54.0218L6.74261 47.6426H4.16711C3.39999 47.6426 2.76461 47.3174 2.42461 46.7479C2.08461 46.1806 2.09736 45.4644 2.46074 44.7887L6.17311 36.5649L6.03924 34.1934C6.03711 30.1304 7.87099 26.214 11.0691 23.3878C11.5069 22.9989 12.1805 23.0393 12.5694 23.4813C12.9582 23.9212 12.9157 24.5927 12.4759 24.9815C9.69211 27.438 8.16211 30.6893 8.16211 34.1339L8.30874 36.7052C8.31936 36.8752 8.28749 37.0473 8.21736 37.2024L4.46249 45.5112L7.70736 45.5176C8.25561 45.5176 8.71249 45.9319 8.76561 46.4759L9.47961 53.8136C9.50511 54.0749 9.76861 54.3108 10.0321 54.3108H15.8929C16.4369 54.3108 16.8937 54.7209 16.949 55.2628L17.9031 64.4152C17.9647 64.9974 17.5397 65.5223 16.9575 65.5818C16.9192 65.5861 16.881 65.5882 16.8449 65.5882Z" fill="#263140" />
	<path d="M27.0258 65.6753C26.4903 65.6753 26.0291 65.2716 25.9718 64.7254L24.7074 52.8892H18.921C17.4293 52.8892 16.15 51.7289 16.0119 50.2499L15.283 42.7784H12.1763C11.3496 42.7784 10.6696 42.4321 10.3063 41.8286C9.94501 41.2229 9.96201 40.4579 10.3509 39.7291L14.6413 30.2282L14.4861 27.4529C14.484 22.0852 17.3039 16.9809 22.0278 13.7467C22.5101 13.4152 23.1731 13.5384 23.5025 14.0229C23.834 14.5074 23.7129 15.1662 23.2263 15.4977C19.0825 18.3388 16.609 22.7864 16.609 27.3934L16.7769 30.3663C16.7875 30.5384 16.7556 30.7084 16.6855 30.8636L12.2698 40.6364L16.2478 40.6534C16.796 40.6534 17.2529 41.0678 17.306 41.6118L18.1284 50.0459C18.1645 50.4306 18.5343 50.7642 18.921 50.7642H25.6615C26.2055 50.7642 26.6603 51.1722 26.7176 51.7141L28.084 64.5023C28.1456 65.0846 27.7249 65.6094 27.1405 65.6711C27.1023 65.6732 27.064 65.6753 27.0258 65.6753Z" fill="#263140" />
	<path d="M35.0051 49.8632H29.5099C27.8949 49.8632 26.5136 48.6073 26.3606 47.0029L25.5276 38.4328H21.8854C21.0014 38.4328 20.2746 38.0652 19.8921 37.4234C19.5096 36.7838 19.5287 35.9699 19.9495 35.1901L24.8115 24.4099L24.6351 21.2352C24.633 10.6123 34.0829 2.0188 45.7002 2.0188C57.1668 2.0188 65.8176 11.0756 65.8176 23.0818C65.8176 27.6676 64.6956 32.0344 62.3836 36.4289C62.1116 36.9496 61.4656 37.1451 60.9492 36.8752C60.4286 36.6032 60.2289 35.9593 60.503 35.4408C62.6493 31.3566 63.6926 27.3148 63.6926 23.0818C63.6926 12.2847 55.9576 4.1438 45.7002 4.1438C35.2559 4.1438 26.758 11.7853 26.758 21.1778L26.9471 24.5523C26.9577 24.7223 26.9259 24.8923 26.8557 25.0474L21.8535 36.1336C21.8131 36.2079 21.7876 36.2674 21.7706 36.3078C21.8046 36.3099 21.8386 36.3099 21.8854 36.3099H26.4924C27.0406 36.3099 27.4975 36.7243 27.5506 37.2704L28.4771 46.8032C28.5239 47.3111 28.9977 47.7382 29.5099 47.7382H35.0051C35.5916 47.7382 36.0676 48.2142 36.0676 48.8007C36.0676 49.3872 35.5916 49.8632 35.0051 49.8632Z" fill="#263140" />
	<path d="M16.8449 65.5882C16.3072 65.5882 15.8461 65.1823 15.7909 64.6362L14.9366 56.4379H10.0321C8.66786 56.4379 7.49699 55.3776 7.36311 54.0218L6.74261 47.6426H4.16711C3.39999 47.6426 2.76461 47.3174 2.42461 46.7479C2.08461 46.1806 2.09736 45.4644 2.46074 44.7887L6.17311 36.5649L6.03924 34.1934C6.03711 30.1304 7.87099 26.214 11.0691 23.3878C11.5069 22.9989 12.1805 23.0393 12.5694 23.4813C12.9582 23.9212 12.9157 24.5927 12.4759 24.9815C9.69211 27.438 8.16211 30.6893 8.16211 34.1339L8.30874 36.7052C8.31936 36.8752 8.28749 37.0473 8.21736 37.2024L4.46249 45.5112L7.70736 45.5176C8.25561 45.5176 8.71249 45.9319 8.76561 46.4759L9.47961 53.8136C9.50511 54.0749 9.76861 54.3108 10.0321 54.3108H15.8929C16.4369 54.3108 16.8937 54.7209 16.949 55.2628L17.9031 64.4152C17.9647 64.9974 17.5397 65.5223 16.9575 65.5818C16.9192 65.5861 16.881 65.5882 16.8449 65.5882Z" stroke="#F7FAFC" />
	<path d="M27.0258 65.6753C26.4903 65.6753 26.0291 65.2716 25.9718 64.7254L24.7074 52.8892H18.921C17.4293 52.8892 16.15 51.7289 16.0119 50.2499L15.283 42.7784H12.1763C11.3496 42.7784 10.6696 42.4321 10.3063 41.8286C9.94501 41.2229 9.96201 40.4579 10.3509 39.7291L14.6413 30.2282L14.4861 27.4529C14.484 22.0852 17.3039 16.9809 22.0278 13.7467C22.5101 13.4152 23.1731 13.5384 23.5025 14.0229C23.834 14.5074 23.7129 15.1662 23.2263 15.4977C19.0825 18.3388 16.609 22.7864 16.609 27.3934L16.7769 30.3663C16.7875 30.5384 16.7556 30.7084 16.6855 30.8636L12.2698 40.6364L16.2478 40.6534C16.796 40.6534 17.2529 41.0678 17.306 41.6118L18.1284 50.0459C18.1645 50.4306 18.5343 50.7642 18.921 50.7642H25.6615C26.2055 50.7642 26.6603 51.1722 26.7176 51.7141L28.084 64.5023C28.1456 65.0846 27.7249 65.6094 27.1405 65.6711C27.1023 65.6732 27.064 65.6753 27.0258 65.6753Z" stroke="#F7FAFC" />
	<path d="M35.0051 49.8632H29.5099C27.8949 49.8632 26.5136 48.6073 26.3606 47.0029L25.5276 38.4328H21.8854C21.0014 38.4328 20.2746 38.0652 19.8921 37.4234C19.5096 36.7838 19.5287 35.9699 19.9495 35.1901L24.8115 24.4099L24.6351 21.2352C24.633 10.6123 34.0829 2.0188 45.7002 2.0188C57.1668 2.0188 65.8176 11.0756 65.8176 23.0818C65.8176 27.6676 64.6956 32.0344 62.3836 36.4289C62.1116 36.9496 61.4656 37.1451 60.9492 36.8752C60.4286 36.6032 60.2289 35.9593 60.503 35.4408C62.6493 31.3566 63.6926 27.3148 63.6926 23.0818C63.6926 12.2847 55.9576 4.1438 45.7002 4.1438C35.2559 4.1438 26.758 11.7853 26.758 21.1778L26.9471 24.5523C26.9577 24.7223 26.9259 24.8923 26.8557 25.0474L21.8535 36.1336C21.8131 36.2079 21.7876 36.2674 21.7706 36.3078C21.8046 36.3099 21.8386 36.3099 21.8854 36.3099H26.4924C27.0406 36.3099 27.4975 36.7243 27.5506 37.2704L28.4771 46.8032C28.5239 47.3111 28.9977 47.7382 29.5099 47.7382H35.0051C35.5916 47.7382 36.0676 48.2142 36.0676 48.8007C36.0676 49.3872 35.5916 49.8632 35.0051 49.8632Z" stroke="#F7FAFC" />
	<path d="M47.5957 38.0948H43.775C43.2756 38.0948 42.8442 37.7463 42.738 37.2576L42.109 34.3846C41.2271 34.1274 40.3792 33.7747 39.5717 33.3306L37.094 34.9179C36.6732 35.1878 36.1229 35.1283 35.7701 34.7756L33.0693 32.0747C32.7165 31.7219 32.657 31.1694 32.9269 30.7508L34.5143 28.2731C34.0701 27.4656 33.7174 26.6177 33.4602 25.7358L30.5872 25.1068C30.0964 25.0006 29.75 24.5692 29.75 24.0677V20.2448C29.75 19.7454 30.0964 19.3141 30.5851 19.2078L33.456 18.5788C33.7153 17.6948 34.0701 16.8469 34.5121 16.0416L32.9248 13.5638C32.6549 13.1452 32.7144 12.5927 33.0671 12.2399L35.768 9.53905C36.1208 9.1863 36.6711 9.1268 37.0919 9.39667L39.5696 10.9841C40.3792 10.5399 41.2271 10.1872 42.1069 9.93005L42.7359 7.05705C42.8421 6.57042 43.2735 6.22192 43.7729 6.22192H47.5957C48.0951 6.22192 48.5265 6.5683 48.6327 7.05705L49.2617 9.93217C50.1415 10.1872 50.9894 10.5399 51.799 10.9841L54.2767 9.39667C54.6996 9.12467 55.25 9.18417 55.6027 9.53692L58.3036 12.2378C58.6564 12.5905 58.7159 13.1431 58.446 13.5617L56.8607 16.0437C57.3049 16.8533 57.6576 17.7012 57.9126 18.5788L60.7877 19.2078C61.2744 19.3141 61.6229 19.7454 61.6229 20.2448V24.0677C61.6229 24.5671 61.2765 24.9984 60.7877 25.1047L57.9126 25.7337C57.6576 26.6113 57.3049 27.4613 56.8607 28.2688L58.4481 30.7487C58.718 31.1673 58.6585 31.7198 58.3057 32.0726L55.6049 34.7756C55.25 35.1304 54.6996 35.1836 54.281 34.9179L51.8032 33.3284C50.9957 33.7726 50.1479 34.1232 49.266 34.3803L48.637 37.2554C48.5286 37.7463 48.0972 38.0948 47.5957 38.0948ZM44.6292 35.9698H46.7415L47.3259 33.2966C47.413 32.8971 47.7232 32.5804 48.1206 32.4869C49.2341 32.2277 50.2902 31.7878 51.2635 31.1843C51.6077 30.9697 52.0519 30.9697 52.3961 31.1928L54.7017 32.6697L56.1956 31.1758L54.7187 28.8702C54.4977 28.5259 54.4956 28.0861 54.7081 27.7397C55.318 26.7537 55.7557 25.6976 56.0129 24.5947C56.1064 24.1952 56.4209 23.8871 56.8204 23.7999L59.4936 23.2156V21.1012L56.8225 20.5147C56.423 20.4276 56.1085 20.1173 56.015 19.7199C55.7579 18.6149 55.3201 17.5588 54.7102 16.5749C54.4956 16.2286 54.4999 15.7887 54.7209 15.4444L56.1977 13.1388L54.7039 11.6449L52.3982 13.1218C52.054 13.3449 51.6141 13.3449 51.2656 13.1303C50.2881 12.5247 49.232 12.0869 48.1227 11.8277C47.7232 11.7342 47.4151 11.4197 47.328 11.0202L46.7436 8.34692H44.6314L44.047 11.0202C43.9599 11.4197 43.6496 11.7342 43.2501 11.8277C42.143 12.0848 41.0869 12.5226 40.1072 13.1303C39.7609 13.3449 39.321 13.3449 38.9746 13.1218L36.669 11.6449L35.1751 13.1388L36.652 15.4444C36.873 15.7887 36.8751 16.2307 36.6605 16.5771C36.057 17.5482 35.6171 18.6064 35.3515 19.7221C35.258 20.1216 34.9456 20.4276 34.5461 20.5147L31.875 21.1012V23.2134L34.5482 23.7978C34.9477 23.8849 35.2622 24.1952 35.3558 24.5926C35.615 25.7039 36.0527 26.7622 36.6584 27.7354C36.8751 28.0818 36.873 28.5238 36.6499 28.8681L35.173 31.1737L36.6669 32.6676L38.9725 31.1907C39.3189 30.9697 39.763 30.9697 40.1051 31.1822C41.0805 31.7878 42.1366 32.2277 43.248 32.4848C43.6475 32.5783 43.9577 32.8928 44.0449 33.2944L44.6292 35.9698ZM45.6832 29.5969C41.582 29.5969 38.2457 26.2607 38.2457 22.1594C38.2457 18.0582 41.582 14.7219 45.6832 14.7219C49.7845 14.7219 53.1207 18.0582 53.1207 22.1594C53.1207 26.2607 49.7845 29.5969 45.6832 29.5969ZM45.6832 16.8469C42.7529 16.8469 40.3707 19.2291 40.3707 22.1594C40.3707 25.0898 42.7529 27.4719 45.6832 27.4719C48.6136 27.4719 50.9957 25.0898 50.9957 22.1594C50.9957 19.2291 48.6136 16.8469 45.6832 16.8469Z" fill="#4DBD94" />
	<path d="M54.0664 63.6097H50.9129C50.4135 63.6097 49.9821 63.2612 49.8759 62.7724L49.3829 60.5093C48.7177 60.3074 48.0717 60.0397 47.4576 59.7103L45.5026 60.9598C45.0819 61.2318 44.5315 61.1702 44.1787 60.8174L41.9475 58.5862C41.5947 58.2334 41.5352 57.6809 41.8051 57.2602L43.0589 55.3094C42.7274 54.6932 42.4596 54.0472 42.2577 53.3842L39.9967 52.8891C39.5101 52.7828 39.1595 52.3514 39.1595 51.8521V48.6986C39.1595 48.1992 39.508 47.7678 39.9967 47.6616L42.2577 47.1664C42.4596 46.5013 42.7274 45.8574 43.0589 45.2412L41.8051 43.2862C41.5352 42.8676 41.5947 42.3151 41.9475 41.9623L44.1766 39.7332C44.5294 39.3804 45.0797 39.3188 45.5005 39.5908L47.4555 40.8403C48.0696 40.5109 48.7156 40.2411 49.3807 40.0392L49.8737 37.7803C49.98 37.2937 50.4114 36.9431 50.9107 36.9431H54.0642C54.5615 36.9431 54.995 37.2894 55.1012 37.7782L55.5964 40.0392C56.2615 40.2411 56.9054 40.5088 57.5237 40.8403L59.4745 39.5908C59.8952 39.3231 60.4435 39.3804 60.7984 39.7332L63.0275 41.9623C63.3802 42.3151 63.4397 42.8654 63.1699 43.2862L61.9204 45.2412C62.2497 45.8574 62.5196 46.5034 62.7215 47.1664L64.9825 47.6616C65.4691 47.7678 65.8197 48.1992 65.8197 48.6986V51.8499C65.8197 52.3493 65.4712 52.7807 64.9825 52.8869L62.7194 53.3821C62.5196 54.0472 62.2519 54.6889 61.9204 55.3073L63.1699 57.2602C63.4397 57.6788 63.3802 58.2313 63.0275 58.5841L60.7984 60.8153C60.4435 61.1702 59.8867 61.2233 59.4745 60.9577L57.5237 59.7061C56.9054 60.0354 56.2615 60.3032 55.5964 60.5051L55.1012 62.7703C54.9992 63.2633 54.5679 63.6097 54.0664 63.6097ZM51.7692 61.4847H53.2121L53.6647 59.4213C53.7519 59.0218 54.0642 58.7073 54.4616 58.6138C55.3541 58.4056 56.2062 58.0528 56.9989 57.5641C57.3431 57.3473 57.7851 57.3494 58.1294 57.5726L59.9037 58.7094L60.9237 57.6894L59.7869 55.9129C59.5659 55.5687 59.5637 55.1288 59.7784 54.7803C60.2692 53.9877 60.622 53.1356 60.8281 52.2473C60.9216 51.8478 61.234 51.5354 61.6377 51.4483L63.699 50.9978V49.5528L61.642 49.1023C61.2425 49.0152 60.928 48.7049 60.8345 48.3076C60.622 47.4129 60.2671 46.5608 59.7784 45.7703C59.5616 45.4218 59.5637 44.9819 59.7869 44.6377L60.9237 42.8591L59.9037 41.8391L58.1294 42.9759C57.7851 43.1969 57.3431 43.1969 56.9989 42.9844C56.2041 42.4936 55.3499 42.1387 54.4595 41.9283C54.06 41.8348 53.7519 41.5224 53.6647 41.1229L53.2121 39.0659H51.7671L51.3187 41.1187C51.2316 41.5182 50.9214 41.8327 50.524 41.9262C49.6272 42.1387 48.7751 42.4936 47.9867 42.9823C47.6446 43.1969 47.2005 43.1969 46.8541 42.9738L45.0755 41.8369L44.0555 42.8569L45.1966 44.6356C45.4176 44.9798 45.4197 45.4197 45.2051 45.7682C44.7164 46.5587 44.3615 47.4108 44.149 48.3054C44.0555 48.7049 43.7431 49.0131 43.3415 49.1002L41.2845 49.5507V50.9957L43.3415 51.4462C43.741 51.5333 44.0555 51.8436 44.149 52.2409C44.3615 53.1356 44.7164 53.9877 45.2051 54.7782C45.4219 55.1267 45.4197 55.5666 45.1966 55.9129L44.0576 57.6894L45.0755 58.7073L46.8541 57.5704C47.2005 57.3494 47.6446 57.3494 47.9867 57.5619C48.7709 58.0486 49.6251 58.4034 50.5219 58.6117C50.9214 58.7052 51.2316 59.0197 51.3187 59.4213L51.7692 61.4847ZM52.4896 56.5972C49.0025 56.5972 46.1677 53.7624 46.1677 50.2753C46.1677 46.7882 49.0025 43.9534 52.4896 43.9534C55.9767 43.9534 58.8115 46.7882 58.8115 50.2753C58.8115 53.7624 55.9767 56.5972 52.4896 56.5972ZM52.4896 46.0806C50.1755 46.0806 48.2927 47.9633 48.2927 50.2774C48.2927 52.5916 50.1755 54.4743 52.4896 54.4743C54.8037 54.4743 56.6865 52.5916 56.6865 50.2774C56.6865 47.9633 54.8037 46.0806 52.4896 46.0806Z" fill="#4DBD94" />
	<path d="M47.5957 38.0948H43.775C43.2756 38.0948 42.8442 37.7463 42.738 37.2576L42.109 34.3846C41.2271 34.1274 40.3792 33.7747 39.5717 33.3306L37.094 34.9179C36.6732 35.1878 36.1229 35.1283 35.7701 34.7756L33.0693 32.0747C32.7165 31.7219 32.657 31.1694 32.9269 30.7508L34.5143 28.2731C34.0701 27.4656 33.7174 26.6177 33.4602 25.7358L30.5872 25.1068C30.0964 25.0006 29.75 24.5692 29.75 24.0677V20.2448C29.75 19.7454 30.0964 19.3141 30.5851 19.2078L33.456 18.5788C33.7153 17.6948 34.0701 16.8469 34.5121 16.0416L32.9248 13.5638C32.6549 13.1452 32.7144 12.5927 33.0671 12.2399L35.768 9.53905C36.1208 9.1863 36.6711 9.1268 37.0919 9.39667L39.5696 10.9841C40.3792 10.5399 41.2271 10.1872 42.1069 9.93005L42.7359 7.05705C42.8421 6.57042 43.2735 6.22192 43.7729 6.22192H47.5957C48.0951 6.22192 48.5265 6.5683 48.6327 7.05705L49.2617 9.93217C50.1415 10.1872 50.9894 10.5399 51.799 10.9841L54.2767 9.39667C54.6996 9.12467 55.25 9.18417 55.6027 9.53692L58.3036 12.2378C58.6564 12.5905 58.7159 13.1431 58.446 13.5617L56.8607 16.0437C57.3049 16.8533 57.6576 17.7012 57.9126 18.5788L60.7877 19.2078C61.2744 19.3141 61.6229 19.7454 61.6229 20.2448V24.0677C61.6229 24.5671 61.2765 24.9984 60.7877 25.1047L57.9126 25.7337C57.6576 26.6113 57.3049 27.4613 56.8607 28.2688L58.4481 30.7487C58.718 31.1673 58.6585 31.7198 58.3057 32.0726L55.6049 34.7756C55.25 35.1304 54.6996 35.1836 54.281 34.9179L51.8032 33.3284C50.9957 33.7726 50.1479 34.1232 49.266 34.3803L48.637 37.2554C48.5286 37.7463 48.0972 38.0948 47.5957 38.0948ZM44.6292 35.9698H46.7415L47.3259 33.2966C47.413 32.8971 47.7232 32.5804 48.1206 32.4869C49.2341 32.2277 50.2902 31.7878 51.2635 31.1843C51.6077 30.9697 52.0519 30.9697 52.3961 31.1928L54.7017 32.6697L56.1956 31.1758L54.7187 28.8702C54.4977 28.5259 54.4956 28.0861 54.7081 27.7397C55.318 26.7537 55.7557 25.6976 56.0129 24.5947C56.1064 24.1952 56.4209 23.8871 56.8204 23.7999L59.4936 23.2156V21.1012L56.8225 20.5147C56.423 20.4276 56.1085 20.1173 56.015 19.7199C55.7579 18.6149 55.3201 17.5588 54.7102 16.5749C54.4956 16.2286 54.4999 15.7887 54.7209 15.4444L56.1977 13.1388L54.7039 11.6449L52.3982 13.1218C52.054 13.3449 51.6141 13.3449 51.2656 13.1303C50.2881 12.5247 49.232 12.0869 48.1227 11.8277C47.7232 11.7342 47.4151 11.4197 47.328 11.0202L46.7436 8.34692H44.6314L44.047 11.0202C43.9599 11.4197 43.6496 11.7342 43.2501 11.8277C42.143 12.0848 41.0869 12.5226 40.1072 13.1303C39.7609 13.3449 39.321 13.3449 38.9746 13.1218L36.669 11.6449L35.1751 13.1388L36.652 15.4444C36.873 15.7887 36.8751 16.2307 36.6605 16.5771C36.057 17.5482 35.6171 18.6064 35.3515 19.7221C35.258 20.1216 34.9456 20.4276 34.5461 20.5147L31.875 21.1012V23.2134L34.5482 23.7978C34.9477 23.8849 35.2622 24.1952 35.3558 24.5926C35.615 25.7039 36.0527 26.7622 36.6584 27.7354C36.8751 28.0818 36.873 28.5238 36.6499 28.8681L35.173 31.1737L36.6669 32.6676L38.9725 31.1907C39.3189 30.9697 39.763 30.9697 40.1051 31.1822C41.0805 31.7878 42.1366 32.2277 43.248 32.4848C43.6475 32.5783 43.9577 32.8928 44.0449 33.2944L44.6292 35.9698ZM45.6832 29.5969C41.582 29.5969 38.2457 26.2607 38.2457 22.1594C38.2457 18.0582 41.582 14.7219 45.6832 14.7219C49.7845 14.7219 53.1207 18.0582 53.1207 22.1594C53.1207 26.2607 49.7845 29.5969 45.6832 29.5969ZM45.6832 16.8469C42.7529 16.8469 40.3707 19.2291 40.3707 22.1594C40.3707 25.0898 42.7529 27.4719 45.6832 27.4719C48.6136 27.4719 50.9957 25.0898 50.9957 22.1594C50.9957 19.2291 48.6136 16.8469 45.6832 16.8469Z" stroke="#F7FAFC" />
	<path d="M54.0664 63.6097H50.9129C50.4135 63.6097 49.9821 63.2612 49.8759 62.7724L49.3829 60.5093C48.7177 60.3074 48.0717 60.0397 47.4576 59.7103L45.5026 60.9598C45.0819 61.2318 44.5315 61.1702 44.1787 60.8174L41.9475 58.5862C41.5947 58.2334 41.5352 57.6809 41.8051 57.2602L43.0589 55.3094C42.7274 54.6932 42.4596 54.0472 42.2577 53.3842L39.9967 52.8891C39.5101 52.7828 39.1595 52.3514 39.1595 51.8521V48.6986C39.1595 48.1992 39.508 47.7678 39.9967 47.6616L42.2577 47.1664C42.4596 46.5013 42.7274 45.8574 43.0589 45.2412L41.8051 43.2862C41.5352 42.8676 41.5947 42.3151 41.9475 41.9623L44.1766 39.7332C44.5294 39.3804 45.0797 39.3188 45.5005 39.5908L47.4555 40.8403C48.0696 40.5109 48.7156 40.2411 49.3807 40.0392L49.8737 37.7803C49.98 37.2937 50.4114 36.9431 50.9107 36.9431H54.0642C54.5615 36.9431 54.995 37.2894 55.1012 37.7782L55.5964 40.0392C56.2615 40.2411 56.9054 40.5088 57.5237 40.8403L59.4745 39.5908C59.8952 39.3231 60.4435 39.3804 60.7984 39.7332L63.0275 41.9623C63.3802 42.3151 63.4397 42.8654 63.1699 43.2862L61.9204 45.2412C62.2497 45.8574 62.5196 46.5034 62.7215 47.1664L64.9825 47.6616C65.4691 47.7678 65.8197 48.1992 65.8197 48.6986V51.8499C65.8197 52.3493 65.4712 52.7807 64.9825 52.8869L62.7194 53.3821C62.5196 54.0472 62.2519 54.6889 61.9204 55.3073L63.1699 57.2602C63.4397 57.6788 63.3802 58.2313 63.0275 58.5841L60.7984 60.8153C60.4435 61.1702 59.8867 61.2233 59.4745 60.9577L57.5237 59.7061C56.9054 60.0354 56.2615 60.3032 55.5964 60.5051L55.1012 62.7703C54.9992 63.2633 54.5679 63.6097 54.0664 63.6097ZM51.7692 61.4847H53.2121L53.6647 59.4213C53.7519 59.0218 54.0642 58.7073 54.4616 58.6138C55.3541 58.4056 56.2062 58.0528 56.9989 57.5641C57.3431 57.3473 57.7851 57.3494 58.1294 57.5726L59.9037 58.7094L60.9237 57.6894L59.7869 55.9129C59.5659 55.5687 59.5637 55.1288 59.7784 54.7803C60.2692 53.9877 60.622 53.1356 60.8281 52.2473C60.9216 51.8478 61.234 51.5354 61.6377 51.4483L63.699 50.9978V49.5528L61.642 49.1023C61.2425 49.0152 60.928 48.7049 60.8345 48.3076C60.622 47.4129 60.2671 46.5608 59.7784 45.7703C59.5616 45.4218 59.5637 44.9819 59.7869 44.6377L60.9237 42.8591L59.9037 41.8391L58.1294 42.9759C57.7851 43.1969 57.3431 43.1969 56.9989 42.9844C56.2041 42.4936 55.3499 42.1387 54.4595 41.9283C54.06 41.8348 53.7519 41.5224 53.6647 41.1229L53.2121 39.0659H51.7671L51.3187 41.1187C51.2316 41.5182 50.9214 41.8327 50.524 41.9262C49.6272 42.1387 48.7751 42.4936 47.9867 42.9823C47.6446 43.1969 47.2005 43.1969 46.8541 42.9738L45.0755 41.8369L44.0555 42.8569L45.1966 44.6356C45.4176 44.9798 45.4197 45.4197 45.2051 45.7682C44.7164 46.5587 44.3615 47.4108 44.149 48.3054C44.0555 48.7049 43.7431 49.0131 43.3415 49.1002L41.2845 49.5507V50.9957L43.3415 51.4462C43.741 51.5333 44.0555 51.8436 44.149 52.2409C44.3615 53.1356 44.7164 53.9877 45.2051 54.7782C45.4219 55.1267 45.4197 55.5666 45.1966 55.9129L44.0576 57.6894L45.0755 58.7073L46.8541 57.5704C47.2005 57.3494 47.6446 57.3494 47.9867 57.5619C48.7709 58.0486 49.6251 58.4034 50.5219 58.6117C50.9214 58.7052 51.2316 59.0197 51.3187 59.4213L51.7692 61.4847ZM52.4896 56.5972C49.0025 56.5972 46.1677 53.7624 46.1677 50.2753C46.1677 46.7882 49.0025 43.9534 52.4896 43.9534C55.9767 43.9534 58.8115 46.7882 58.8115 50.2753C58.8115 53.7624 55.9767 56.5972 52.4896 56.5972ZM52.4896 46.0806C50.1755 46.0806 48.2927 47.9633 48.2927 50.2774C48.2927 52.5916 50.1755 54.4743 52.4896 54.4743C54.8037 54.4743 56.6865 52.5916 56.6865 50.2774C56.6865 47.9633 54.8037 46.0806 52.4896 46.0806Z" stroke="#F7FAFC" />
</svg>
