<svg width="57" height="65" viewBox="0 0 57 65" fill="none" xmlns="http://www.w3.org/2000/svg">
	<path d="M48 26.1766V20.1177H45.4816C45.1413 18.7484 44.5771 17.4569 43.7973 16.2643L45.5765 14.5789L41.0517 10.2953L39.2715 11.9797C38.0107 11.2415 36.6475 10.7073 35.2011 10.3852V8H28.8011V10.3842C27.3547 10.7063 25.9904 11.2405 24.7307 11.9786L22.9504 10.2943L18.4256 14.5779L20.2048 16.2633C19.4251 17.4569 18.8608 18.7474 18.5205 20.1167H16V26.1756H18.5184C18.8587 27.5449 19.4229 28.8364 20.2027 30.029L18.4235 31.7144L22.9483 35.998L24.7317 34.3096C24.9643 34.4429 25.2096 34.5741 25.4709 34.7064L26.4747 32.9251L27.7333 32.9261V30.1179C25.1851 28.7203 23.4667 26.117 23.4667 23.129C23.4667 18.6676 27.2875 15.0505 32 15.0505C36.7125 15.0505 40.5333 18.6676 40.5333 23.129C40.5333 26.117 38.8149 28.7203 36.2667 30.1179V32.9191L37.5435 32.9181L38.5579 34.6953C38.8085 34.5671 39.0443 34.4388 39.2672 34.3116L41.0507 36L45.5755 31.7164L43.7963 30.031C44.576 28.8374 45.1403 27.5469 45.4805 26.1776H48V26.1766Z" fill="#49B48A" />
	<path d="M56.3943 24.3955C56.3943 11.6587 45.6478 1.16486 32.4393 1.00204C32.3358 1.00102 32.2344 1 32.132 1C20.7267 1 10.7583 8.83072 8.3586 19.7225C7.76526 22.4101 7.69136 25.1821 8.13689 27.9694L1 40.2737L8.90548 42.4707V54.9154H19.463V64.0742H21.5745V52.8802H11.017V40.9402L4.14086 39.0291L10.3413 28.3409L10.279 27.9867C9.81237 25.3348 9.86093 22.696 10.4247 20.1458C12.6365 10.1028 21.8754 2.89891 32.4129 3.03731C44.4727 3.18588 54.2838 12.768 54.2838 24.3965L54.287 28.1098C54.2923 36.2632 50.1284 43.8954 43.1467 48.5267L42.6896 48.831V64.0742H44.8011V49.8944C52.0794 44.8561 56.4027 36.7537 56.3974 28.1088L56.3943 24.3955Z" fill="#263140" stroke="white" />
	<path d="M41.6337 23.3687C41.6337 18.3182 37.3716 14.21 32.1319 14.21C26.8922 14.21 22.6301 18.3182 22.6301 23.3687C22.6301 26.4206 24.2338 29.2832 26.8531 30.9755V32.5793C25.6496 32.8154 24.7416 33.8432 24.7416 35.0715C24.7416 35.9772 25.2378 36.7669 25.9779 37.2187C25.866 37.5016 25.7974 37.8049 25.7974 38.1244C25.7974 39.5278 26.9809 40.6685 28.4368 40.6685H35.827C37.2829 40.6685 38.4664 39.5278 38.4664 38.1244C38.4664 37.8039 38.3978 37.5006 38.2859 37.2187C39.026 36.7679 39.5222 35.9772 39.5222 35.0715C39.5222 33.8422 38.6142 32.8154 37.4107 32.5793V30.9755C40.03 29.2832 41.6337 26.4206 41.6337 23.3687ZM24.7416 23.3687C24.7416 19.4416 28.0578 16.2452 32.1319 16.2452C36.206 16.2452 39.5222 19.4416 39.5222 23.3687C39.5222 25.8965 38.1053 28.2584 35.826 29.5315L35.2992 29.8256V32.5274H33.1877V26.2344C34.4134 25.8131 35.2992 24.6937 35.2992 23.3687C35.2992 21.6855 33.8781 20.3158 32.1319 20.3158C30.3857 20.3158 28.9646 21.6855 28.9646 23.3687C28.9646 24.6937 29.8504 25.8131 31.0761 26.2344V32.5274H28.9646V29.8256L28.4378 29.5315C26.1585 28.2584 24.7416 25.8975 24.7416 23.3687ZM31.0761 23.3687C31.0761 22.807 31.5491 22.3511 32.1319 22.3511C32.7147 22.3511 33.1877 22.807 33.1877 23.3687C33.1877 23.9304 32.7147 24.3863 32.1319 24.3863C31.5491 24.3863 31.0761 23.9304 31.0761 23.3687ZM27.381 34.5627H36.8828C37.1731 34.5627 37.4107 34.7917 37.4107 35.0715C37.4107 35.3514 37.1731 35.5803 36.8828 35.5803H35.827H28.4368H27.381C27.0907 35.5803 26.8531 35.3514 26.8531 35.0715C26.8531 34.7917 27.0907 34.5627 27.381 34.5627ZM35.827 38.6332H28.4368C28.1464 38.6332 27.9089 38.4043 27.9089 38.1244C27.9089 37.8446 28.1464 37.6156 28.4368 37.6156H35.827C36.1174 37.6156 36.3549 37.8446 36.3549 38.1244C36.3549 38.4043 36.1174 38.6332 35.827 38.6332Z" fill="#263140" stroke="white" />
	<path d="M33.1708 43.7549H31.0593V45.7902H33.1708V43.7549Z" fill="#263140" stroke="white" stroke-width="0.4" />
	<path d="M33.1708 47.8257H31.0593V49.861H33.1708V47.8257Z" fill="#263140" stroke="white" stroke-width="0.4" />
	<path d="M33.1708 51.896H31.0593V53.9313H33.1708V51.896Z" fill="#263140" stroke="white" stroke-width="0.4" />
	<path d="M33.1708 55.9668H31.0593V58.0021H33.1708V55.9668Z" fill="#263140" stroke="white" stroke-width="0.4" />
</svg>
