<svg width="64" height="64" viewBox="0 0 64 64" fill="none" xmlns="http://www.w3.org/2000/svg">
	<path d="M58 5H54V2C54 1.448 53.552 1 53 1H11C10.448 1 10 1.448 10 2V24.568C8.694 24.851 7.355 25 6 25H4C2.346 25 1 26.346 1 28V32C1 33.654 2.346 35 4 35H6C7.355 35 8.694 35.149 10 35.432V62C10 62.552 10.448 63 11 63H39C39.134 63 39.264 62.973 39.385 62.922C39.506 62.871 39.616 62.798 39.707 62.706L53.706 48.707C53.798 48.616 53.871 48.506 53.922 48.385C53.973 48.264 54 48.134 54 48V15H58C60.757 15 63 12.757 63 10C63 7.243 60.757 5 58 5ZM54 9H41V7H54V9ZM39 11.92L36.601 10L39 8.08V11.92ZM7 33.035V26.966C10.551 26.797 13.978 25.739 17 23.857V36.144C13.978 34.261 10.551 33.204 7 33.035ZM3 32V28C3 27.449 3.449 27 4 27H5V33H4C3.449 33 3 32.551 3 32ZM40 59.586V49H50.586L40 59.586ZM52 47H39C38.448 47 38 47.448 38 48V61H12V35.992C13.556 36.516 15.05 37.234 16.438 38.16L17.446 38.832C17.613 38.944 17.806 39 18 39C18.162 39 18.324 38.961 18.472 38.882C18.797 38.708 19 38.369 19 38V22C19 21.631 18.797 21.292 18.472 21.118C18.147 20.943 17.752 20.963 17.446 21.168L16.438 21.84C15.05 22.765 13.557 23.483 12 24.008V3H52V5H40C39.773 5 39.553 5.077 39.375 5.219L34.375 9.219C34.138 9.409 34 9.696 34 10C34 10.304 34.138 10.591 34.375 10.781L39.375 14.781C39.553 14.923 39.773 15 40 15H52V47ZM41 13V11H54V13H41ZM58 13H56V7H58C59.654 7 61 8.346 61 10C61 11.654 59.654 13 58 13Z" fill="#263140" />
	<path d="M34 24C34 24.552 34.448 25 35 25H40H45C45.552 25 46 24.552 46 24C46 23.448 45.552 23 45 23H35C34.448 23 34 23.448 34 24Z" fill="#263140" />
	<path d="M45 31H35C34.448 31 34 31.448 34 32C34 32.552 34.448 33 35 33H45C45.552 33 46 32.552 46 32C46 31.448 45.552 31 45 31Z" fill="#263140" />
	<path d="M45 35H35C34.448 35 34 35.448 34 36C34 36.552 34.448 37 35 37H45C45.552 37 46 36.552 46 36C46 35.448 45.552 35 45 35Z" fill="#263140" />
	<path d="M45 27H42C41.448 27 41 27.448 41 28C41 28.552 41.448 29 42 29H45C45.552 29 46 28.552 46 28C46 27.448 45.552 27 45 27Z" fill="#263140" />
	<path d="M35 29H38C38.552 29 39 28.552 39 28C39 27.448 38.552 27 38 27H35C34.448 27 34 27.448 34 28C34 28.552 34.448 29 35 29Z" fill="#263140" />
	<path d="M35 49H27C26.448 49 26 49.448 26 50C26 50.552 26.448 51 27 51H35C35.552 51 36 50.552 36 50C36 49.448 35.552 49 35 49Z" fill="#263140" />
	<path d="M15 51H23C23.552 51 24 50.552 24 50C24 49.448 23.552 49 23 49H15C14.448 49 14 49.448 14 50C14 50.552 14.448 51 15 51Z" fill="#263140" />
	<path d="M35 45H15C14.448 45 14 45.448 14 46C14 46.552 14.448 47 15 47H35C35.552 47 36 46.552 36 46C36 45.448 35.552 45 35 45Z" fill="#263140" />
	<path d="M35 53H15C14.448 53 14 53.448 14 54C14 54.552 14.448 55 15 55H35C35.552 55 36 54.552 36 54C36 53.448 35.552 53 35 53Z" fill="#263140" />
	<path d="M21 59C21.5523 59 22 58.5523 22 58C22 57.4477 21.5523 57 21 57C20.4477 57 20 57.4477 20 58C20 58.5523 20.4477 59 21 59Z" fill="#263140" />
	<path d="M25 59C25.5523 59 26 58.5523 26 58C26 57.4477 25.5523 57 25 57C24.4477 57 24 57.4477 24 58C24 58.5523 24.4477 59 25 59Z" fill="#263140" />
	<path d="M29 59C29.5523 59 30 58.5523 30 58C30 57.4477 29.5523 57 29 57C28.4477 57 28 57.4477 28 58C28 58.5523 28.4477 59 29 59Z" fill="#263140" />
	<path d="M21.414 32.829C21.609 33.024 21.865 33.122 22.121 33.122C22.377 33.122 22.633 33.024 22.828 32.829C23.584 32.073 24 31.068 24 30C24 28.932 23.584 27.927 22.829 27.172C22.438 26.781 21.806 26.781 21.415 27.172C21.024 27.563 21.024 28.195 21.415 28.586C21.792 28.963 22 29.466 22 30C22 30.534 21.792 31.037 21.414 31.415C21.023 31.805 21.023 32.438 21.414 32.829Z" fill="#263140" />
	<path d="M24.243 25.757C25.376 26.891 26 28.397 26 30C26 31.603 25.376 33.109 24.243 34.243C23.852 34.634 23.852 35.266 24.243 35.657C24.438 35.852 24.694 35.95 24.95 35.95C25.206 35.95 25.462 35.852 25.657 35.657C27.168 34.146 28 32.137 28 30C28 27.863 27.168 25.854 25.657 24.343C25.266 23.952 24.634 23.952 24.243 24.343C23.852 24.734 23.852 25.367 24.243 25.757Z" fill="#263140" />
	<path d="M58 5H54V2C54 1.448 53.552 1 53 1H11C10.448 1 10 1.448 10 2V24.568C8.694 24.851 7.355 25 6 25H4C2.346 25 1 26.346 1 28V32C1 33.654 2.346 35 4 35H6C7.355 35 8.694 35.149 10 35.432V62C10 62.552 10.448 63 11 63H39C39.134 63 39.264 62.973 39.385 62.922C39.506 62.871 39.616 62.798 39.707 62.706L53.706 48.707C53.798 48.616 53.871 48.506 53.922 48.385C53.973 48.264 54 48.134 54 48V15H58C60.757 15 63 12.757 63 10C63 7.243 60.757 5 58 5ZM54 9H41V7H54V9ZM39 11.92L36.601 10L39 8.08V11.92ZM7 33.035V26.966C10.551 26.797 13.978 25.739 17 23.857V36.144C13.978 34.261 10.551 33.204 7 33.035ZM3 32V28C3 27.449 3.449 27 4 27H5V33H4C3.449 33 3 32.551 3 32ZM40 59.586V49H50.586L40 59.586ZM52 47H39C38.448 47 38 47.448 38 48V61H12V35.992C13.556 36.516 15.05 37.234 16.438 38.16L17.446 38.832C17.613 38.944 17.806 39 18 39C18.162 39 18.324 38.961 18.472 38.882C18.797 38.708 19 38.369 19 38V22C19 21.631 18.797 21.292 18.472 21.118C18.147 20.943 17.752 20.963 17.446 21.168L16.438 21.84C15.05 22.765 13.557 23.483 12 24.008V3H52V5H40C39.773 5 39.553 5.077 39.375 5.219L34.375 9.219C34.138 9.409 34 9.696 34 10C34 10.304 34.138 10.591 34.375 10.781L39.375 14.781C39.553 14.923 39.773 15 40 15H52V47ZM41 13V11H54V13H41ZM58 13H56V7H58C59.654 7 61 8.346 61 10C61 11.654 59.654 13 58 13Z" stroke="white" />
	<path d="M34 24C34 24.552 34.448 25 35 25H40H45C45.552 25 46 24.552 46 24C46 23.448 45.552 23 45 23H35C34.448 23 34 23.448 34 24Z" stroke="white" />
	<path d="M45 31H35C34.448 31 34 31.448 34 32C34 32.552 34.448 33 35 33H45C45.552 33 46 32.552 46 32C46 31.448 45.552 31 45 31Z" stroke="white" />
	<path d="M45 35H35C34.448 35 34 35.448 34 36C34 36.552 34.448 37 35 37H45C45.552 37 46 36.552 46 36C46 35.448 45.552 35 45 35Z" stroke="white" />
	<path d="M45 27H42C41.448 27 41 27.448 41 28C41 28.552 41.448 29 42 29H45C45.552 29 46 28.552 46 28C46 27.448 45.552 27 45 27Z" stroke="white" />
	<path d="M35 29H38C38.552 29 39 28.552 39 28C39 27.448 38.552 27 38 27H35C34.448 27 34 27.448 34 28C34 28.552 34.448 29 35 29Z" stroke="white" />
	<path d="M35 49H27C26.448 49 26 49.448 26 50C26 50.552 26.448 51 27 51H35C35.552 51 36 50.552 36 50C36 49.448 35.552 49 35 49Z" stroke="white" />
	<path d="M15 51H23C23.552 51 24 50.552 24 50C24 49.448 23.552 49 23 49H15C14.448 49 14 49.448 14 50C14 50.552 14.448 51 15 51Z" stroke="white" />
	<path d="M35 45H15C14.448 45 14 45.448 14 46C14 46.552 14.448 47 15 47H35C35.552 47 36 46.552 36 46C36 45.448 35.552 45 35 45Z" stroke="white" />
	<path d="M35 53H15C14.448 53 14 53.448 14 54C14 54.552 14.448 55 15 55H35C35.552 55 36 54.552 36 54C36 53.448 35.552 53 35 53Z" stroke="white" />
	<path d="M21 59C21.5523 59 22 58.5523 22 58C22 57.4477 21.5523 57 21 57C20.4477 57 20 57.4477 20 58C20 58.5523 20.4477 59 21 59Z" stroke="white" />
	<path d="M25 59C25.5523 59 26 58.5523 26 58C26 57.4477 25.5523 57 25 57C24.4477 57 24 57.4477 24 58C24 58.5523 24.4477 59 25 59Z" stroke="white" />
	<path d="M29 59C29.5523 59 30 58.5523 30 58C30 57.4477 29.5523 57 29 57C28.4477 57 28 57.4477 28 58C28 58.5523 28.4477 59 29 59Z" stroke="white" />
	<path d="M21.414 32.829C21.609 33.024 21.865 33.122 22.121 33.122C22.377 33.122 22.633 33.024 22.828 32.829C23.584 32.073 24 31.068 24 30C24 28.932 23.584 27.927 22.829 27.172C22.438 26.781 21.806 26.781 21.415 27.172C21.024 27.563 21.024 28.195 21.415 28.586C21.792 28.963 22 29.466 22 30C22 30.534 21.792 31.037 21.414 31.415C21.023 31.805 21.023 32.438 21.414 32.829Z" stroke="white" />
	<path d="M24.243 25.757C25.376 26.891 26 28.397 26 30C26 31.603 25.376 33.109 24.243 34.243C23.852 34.634 23.852 35.266 24.243 35.657C24.438 35.852 24.694 35.95 24.95 35.95C25.206 35.95 25.462 35.852 25.657 35.657C27.168 34.146 28 32.137 28 30C28 27.863 27.168 25.854 25.657 24.343C25.266 23.952 24.634 23.952 24.243 24.343C23.852 24.734 23.852 25.367 24.243 25.757Z" stroke="white" />
</svg>
