<svg width="70" height="70" viewBox="0 0 70 70" fill="none" xmlns="http://www.w3.org/2000/svg">
	<path d="M43.9687 36.4492L43.6953 37.2421L49.7656 43.3125C50.2852 43.832 51.1602 43.832 51.6797 43.3125C52.1992 42.7929 52.1992 41.9179 51.6797 41.3984L46.7852 36.5039C46.8945 36.121 46.9766 35.7109 47.0586 35.3007C47.9336 30.6796 46.4844 25.8945 43.2852 22.5859C43.2031 22.5039 43.1211 22.3945 43.0391 22.3125L42.9297 22.2031C39.5664 18.9218 34.8086 17.4453 30.2148 18.2656C29.8867 18.3203 29.5586 18.4023 29.2305 18.4843L26.8789 19.0312L35.5195 27.6718C35.875 28.0273 36.0391 28.4648 36.0391 28.957C36.0391 29.4492 35.8477 29.8867 35.5195 30.2421L30.3516 35.3828C30.0234 35.7382 29.5586 35.9023 29.0664 35.9023C28.5742 35.9023 28.1367 35.7109 27.7812 35.3828L19.168 26.7421L18.5937 29.0664C18.5117 29.4218 18.4297 29.7773 18.375 30.1601C17.582 34.8085 19.1133 39.5664 22.4492 42.9023C22.5586 43.0117 22.6953 43.1484 22.7773 43.2304C26.1133 46.3476 30.7891 47.7421 35.2734 46.9492C35.7109 46.8671 36.1758 46.7851 36.6133 46.6484L41.5078 51.5429C41.7812 51.8164 42.1094 51.9531 42.4648 51.9531C42.8203 51.9531 43.1484 51.8164 43.4219 51.5429C43.9414 51.0234 43.9414 50.1484 43.4219 49.6289L37.3516 43.5585L36.5586 43.832C35.9844 44.0234 35.4102 44.1875 34.8086 44.2695C31.0898 44.9257 27.3711 43.832 24.582 41.207C24.5 41.1523 24.418 41.0703 24.3359 40.9882C22.0391 38.6914 20.8086 35.5195 20.8906 32.2929L25.8672 37.2695C26.7148 38.1171 27.8633 38.6093 29.0664 38.6093C30.2695 38.6093 31.418 38.1445 32.2656 37.2968L37.4062 32.1562C38.2539 31.3085 38.7461 30.1601 38.7461 28.957C38.7461 27.7539 38.2812 26.6054 37.4062 25.7578L32.4023 20.7539C35.6289 20.6718 38.7734 21.9023 41.0977 24.1992L41.1797 24.2812C41.207 24.3085 41.2344 24.3359 41.2617 24.3632C43.9141 27.125 45.0898 31.0078 44.3789 34.7539C44.2695 35.3828 44.1328 35.9296 43.9687 36.4492Z" fill="#4DBD94" stroke="#F7FAFC" stroke-width="1.5" />
	<path d="M5.6875 35.3829C5.6875 19.004 19.0039 5.68757 35.3828 5.68757C39.457 5.68757 43.3945 6.48054 47.0859 8.06648L43.1484 12.0313C42.793 12.3868 42.6836 12.879 42.793 13.3438C42.9297 13.8087 43.2852 14.1915 43.75 14.3009L56.7383 17.7735C56.8477 17.8009 56.9844 17.8282 57.0938 17.8282C57.4492 17.8282 57.8047 17.6915 58.0508 17.418C58.4063 17.0626 58.5156 16.5704 58.4063 16.1055L54.9336 3.11726C54.7969 2.65241 54.4414 2.2696 53.9766 2.16023C53.5117 2.05085 53.0195 2.16023 52.6641 2.5157L49.1367 6.0157C44.8164 3.99226 40.1953 2.9532 35.3828 2.9532C17.5273 2.98054 2.98047 17.5001 2.98047 35.3829C2.98047 39.5118 3.71875 43.4766 5.22266 47.2227C5.44141 47.7696 5.93359 48.0704 6.48047 48.0704C6.64453 48.0704 6.80859 48.043 6.97266 47.9884C7.68359 47.7149 8.01172 46.9219 7.73828 46.2384C6.37109 42.793 5.6875 39.1563 5.6875 35.3829ZM52.9102 6.09773L55.1797 14.5469L46.7305 12.2774L52.9102 6.09773Z" fill="#263140" stroke="#F7FAFC" stroke-width="1.5" />
	<path d="M65.0236 23.7892C64.7501 23.0783 63.9845 22.7228 63.2736 22.9962C62.5626 23.2697 62.2072 24.0353 62.4806 24.7462C63.7658 28.1916 64.3673 31.8556 64.2853 35.6291C64.1212 43.5587 60.8673 50.9416 55.1525 56.4377C49.4376 61.9337 41.9455 64.8595 33.9884 64.6955C29.9142 64.6134 26.004 63.7384 22.34 62.0705L26.3869 58.1877C26.7423 57.8595 26.8791 57.3673 26.7697 56.8752C26.6603 56.4103 26.3048 56.0275 25.84 55.8908L12.9337 52.1447C12.4689 52.008 11.9767 52.1447 11.6212 52.4728C11.2658 52.8009 11.129 53.2931 11.2384 53.7853L14.4376 66.8556C14.547 67.3205 14.9025 67.7033 15.3673 67.84C15.504 67.8673 15.6134 67.8947 15.7501 67.8947C16.1056 67.8947 16.4337 67.758 16.6798 67.5119L20.2619 64.0666C24.5275 66.172 29.1212 67.2931 33.9611 67.4025C34.1798 67.4025 34.4259 67.4025 34.6447 67.4025C43.0392 67.4025 50.9962 64.2033 57.0665 58.3791C63.3009 52.3908 66.8556 44.3244 67.0197 35.6564C67.1017 31.5548 66.4455 27.5627 65.0236 23.7892ZM16.4884 63.9298L14.4103 55.4259L22.8048 57.8595L16.4884 63.9298Z" fill="#263140" stroke="#F7FAFC" stroke-width="1.5" />
</svg>
