<svg width="64" height="64" viewBox="0 0 64 64" fill="none" xmlns="http://www.w3.org/2000/svg">
	<path d="M60 6H56C55.447 6 55 6.447 55 7V33H57H59H61V7C61 6.447 60.553 6 60 6Z" fill="#49B48A" />
	<path d="M52 13H48C47.447 13 47 13.447 47 14V33H49H51H53V14C53 13.447 52.553 13 52 13Z" fill="#49B48A" />
	<path d="M44 16H40C39.447 16 39 16.447 39 17V33H41H43H45V17C45 16.447 44.553 16 44 16Z" fill="#49B48A" />
	<path d="M36 19H32C31.447 19 31 19.447 31 20V33H33H35H37V20C37 19.447 36.553 19 36 19Z" fill="#49B48A" />
	<path d="M15 59C15.5523 59 16 58.5523 16 58C16 57.4477 15.5523 57 15 57C14.4477 57 14 57.4477 14 58C14 58.5523 14.4477 59 15 59Z" fill="#263140" />
	<path d="M62 34H30C29.447 34 29 33.553 29 33C29 32.448 29.447 32 30 32H62C62.553 32 63 32.448 63 33C63 33.553 62.553 34 62 34Z" fill="#263140" />
	<path d="M49 1H43C42.447 1 42 1.448 42 2C42 2.552 42.447 3 43 3H46.084C41.227 9.794 34.386 14.729 26.619 17.2C24.103 13.463 19.834 11 15 11C7.28 11 1 17.28 1 25C1 31.689 5.718 37.29 12 38.668V43H11C10.447 43 10 43.447 10 44V58C10 60.757 12.243 63 15 63C17.757 63 20 60.757 20 58V44C20 43.447 19.553 43 19 43H18V38.668C24.282 37.29 29 31.689 29 25C29 22.839 28.493 20.799 27.615 18.97C35.781 16.279 42.954 11.001 48 3.756V8C48 8.552 48.447 9 49 9C49.553 9 50 8.552 50 8V2C50 1.448 49.553 1 49 1ZM18 58C18 59.654 16.654 61 15 61C13.346 61 12 59.654 12 58V45H18V58ZM16 43H14V38.949C14.332 38.973 14.662 39 15 39C15.338 39 15.668 38.973 16 38.949V43ZM27 25C27 31.617 21.617 37 15 37C8.383 37 3 31.617 3 25C3 18.383 8.383 13 15 13C18.907 13 22.374 14.885 24.566 17.785C23.844 17.971 23.116 18.133 22.381 18.277C20.551 16.27 17.924 15 15 15C9.486 15 5 19.486 5 25C5 30.514 9.486 35 15 35C20.514 35 25 30.514 25 25C25 23.195 24.512 21.504 23.672 20.041C24.346 19.893 25.014 19.73 25.677 19.548C26.517 21.186 27 23.036 27 25ZM15 21C17.224 21 19.416 20.801 21.569 20.446C22.469 21.74 23 23.308 23 25C23 29.411 19.411 33 15 33C10.589 33 7 29.411 7 25C7 20.589 10.589 17 15 17C16.843 17 18.538 17.633 19.892 18.684C18.282 18.891 16.649 19 15 19C14.447 19 14 19.448 14 20C14 20.552 14.447 21 15 21Z" fill="#263140" />
	<path d="M33 41C33.5523 41 34 40.5523 34 40C34 39.4477 33.5523 39 33 39C32.4477 39 32 39.4477 32 40C32 40.5523 32.4477 41 33 41Z" fill="#263140" />
	<path d="M33 47C33.5523 47 34 46.5523 34 46C34 45.4477 33.5523 45 33 45C32.4477 45 32 45.4477 32 46C32 46.5523 32.4477 47 33 47Z" fill="#263140" />
	<path d="M33 53C33.5523 53 34 52.5523 34 52C34 51.4477 33.5523 51 33 51C32.4477 51 32 51.4477 32 52C32 52.5523 32.4477 53 33 53Z" fill="#263140" />
	<path d="M33 59C33.5523 59 34 58.5523 34 58C34 57.4477 33.5523 57 33 57C32.4477 57 32 57.4477 32 58C32 58.5523 32.4477 59 33 59Z" fill="#263140" />
	<path d="M59 41H37C36.447 41 36 40.553 36 40C36 39.447 36.447 39 37 39H59C59.553 39 60 39.447 60 40C60 40.553 59.553 41 59 41Z" fill="#263140" />
	<path d="M59 53H37C36.447 53 36 52.553 36 52C36 51.447 36.447 51 37 51H59C59.553 51 60 51.447 60 52C60 52.553 59.553 53 59 53Z" fill="#263140" />
	<path d="M46 47H37C36.447 47 36 46.553 36 46C36 45.447 36.447 45 37 45H46C46.553 45 47 45.447 47 46C47 46.553 46.553 47 46 47Z" fill="#263140" />
	<path d="M59 47H50C49.447 47 49 46.553 49 46C49 45.447 49.447 45 50 45H59C59.553 45 60 45.447 60 46C60 46.553 59.553 47 59 47Z" fill="#263140" />
	<path d="M46 59H37C36.447 59 36 58.553 36 58C36 57.447 36.447 57 37 57H46C46.553 57 47 57.447 47 58C47 58.553 46.553 59 46 59Z" fill="#263140" />
	<path d="M59 59H50C49.447 59 49 58.553 49 58C49 57.447 49.447 57 50 57H59C59.553 57 60 57.447 60 58C60 58.553 59.553 59 59 59Z" fill="#263140" />
	<path d="M15 59C15.5523 59 16 58.5523 16 58C16 57.4477 15.5523 57 15 57C14.4477 57 14 57.4477 14 58C14 58.5523 14.4477 59 15 59Z" stroke="white" />
	<path d="M62 34H30C29.447 34 29 33.553 29 33C29 32.448 29.447 32 30 32H62C62.553 32 63 32.448 63 33C63 33.553 62.553 34 62 34Z" stroke="white" />
	<path d="M49 1H43C42.447 1 42 1.448 42 2C42 2.552 42.447 3 43 3H46.084C41.227 9.794 34.386 14.729 26.619 17.2C24.103 13.463 19.834 11 15 11C7.28 11 1 17.28 1 25C1 31.689 5.718 37.29 12 38.668V43H11C10.447 43 10 43.447 10 44V58C10 60.757 12.243 63 15 63C17.757 63 20 60.757 20 58V44C20 43.447 19.553 43 19 43H18V38.668C24.282 37.29 29 31.689 29 25C29 22.839 28.493 20.799 27.615 18.97C35.781 16.279 42.954 11.001 48 3.756V8C48 8.552 48.447 9 49 9C49.553 9 50 8.552 50 8V2C50 1.448 49.553 1 49 1ZM18 58C18 59.654 16.654 61 15 61C13.346 61 12 59.654 12 58V45H18V58ZM16 43H14V38.949C14.332 38.973 14.662 39 15 39C15.338 39 15.668 38.973 16 38.949V43ZM27 25C27 31.617 21.617 37 15 37C8.383 37 3 31.617 3 25C3 18.383 8.383 13 15 13C18.907 13 22.374 14.885 24.566 17.785C23.844 17.971 23.116 18.133 22.381 18.277C20.551 16.27 17.924 15 15 15C9.486 15 5 19.486 5 25C5 30.514 9.486 35 15 35C20.514 35 25 30.514 25 25C25 23.195 24.512 21.504 23.672 20.041C24.346 19.893 25.014 19.73 25.677 19.548C26.517 21.186 27 23.036 27 25ZM15 21C17.224 21 19.416 20.801 21.569 20.446C22.469 21.74 23 23.308 23 25C23 29.411 19.411 33 15 33C10.589 33 7 29.411 7 25C7 20.589 10.589 17 15 17C16.843 17 18.538 17.633 19.892 18.684C18.282 18.891 16.649 19 15 19C14.447 19 14 19.448 14 20C14 20.552 14.447 21 15 21Z" stroke="white" />
	<path d="M33 41C33.5523 41 34 40.5523 34 40C34 39.4477 33.5523 39 33 39C32.4477 39 32 39.4477 32 40C32 40.5523 32.4477 41 33 41Z" stroke="white" />
	<path d="M33 47C33.5523 47 34 46.5523 34 46C34 45.4477 33.5523 45 33 45C32.4477 45 32 45.4477 32 46C32 46.5523 32.4477 47 33 47Z" stroke="white" />
	<path d="M33 53C33.5523 53 34 52.5523 34 52C34 51.4477 33.5523 51 33 51C32.4477 51 32 51.4477 32 52C32 52.5523 32.4477 53 33 53Z" stroke="white" />
	<path d="M33 59C33.5523 59 34 58.5523 34 58C34 57.4477 33.5523 57 33 57C32.4477 57 32 57.4477 32 58C32 58.5523 32.4477 59 33 59Z" stroke="white" />
	<path d="M59 41H37C36.447 41 36 40.553 36 40C36 39.447 36.447 39 37 39H59C59.553 39 60 39.447 60 40C60 40.553 59.553 41 59 41Z" stroke="white" />
	<path d="M59 53H37C36.447 53 36 52.553 36 52C36 51.447 36.447 51 37 51H59C59.553 51 60 51.447 60 52C60 52.553 59.553 53 59 53Z" stroke="white" />
	<path d="M46 47H37C36.447 47 36 46.553 36 46C36 45.447 36.447 45 37 45H46C46.553 45 47 45.447 47 46C47 46.553 46.553 47 46 47Z" stroke="white" />
	<path d="M59 47H50C49.447 47 49 46.553 49 46C49 45.447 49.447 45 50 45H59C59.553 45 60 45.447 60 46C60 46.553 59.553 47 59 47Z" stroke="white" />
	<path d="M46 59H37C36.447 59 36 58.553 36 58C36 57.447 36.447 57 37 57H46C46.553 57 47 57.447 47 58C47 58.553 46.553 59 46 59Z" stroke="white" />
	<path d="M59 59H50C49.447 59 49 58.553 49 58C49 57.447 49.447 57 50 57H59C59.553 57 60 57.447 60 58C60 58.553 59.553 59 59 59Z" stroke="white" />
</svg>
