<svg width="11" height="8" viewBox="0 0 11 8" fill="none" xmlns="http://www.w3.org/2000/svg">
	<path d="M1.05578 2.46592C1.19493 2.55681 1.61437 2.82674 2.31414 3.27559C3.01392 3.72444 3.55 4.07004 3.9224 4.31242C3.96332 4.33898 4.05024 4.39674 4.18322 4.48575C4.31622 4.57483 4.42673 4.64681 4.51466 4.70172C4.60266 4.75661 4.70905 4.81818 4.83392 4.88634C4.95875 4.95444 5.07642 5.00567 5.18691 5.03958C5.29742 5.07377 5.39971 5.09071 5.49382 5.09071H5.50618C5.60029 5.09071 5.70263 5.07375 5.81314 5.03958C5.92358 5.00567 6.04136 4.95438 6.16608 4.88634C6.29087 4.8181 6.39725 4.75659 6.48525 4.70172C6.57325 4.64681 6.68367 4.57483 6.81672 4.48575C6.94967 4.39666 7.0367 4.33898 7.07762 4.31242C7.45404 4.07004 8.41172 3.45448 9.95035 2.4658C10.2491 2.2727 10.4986 2.0397 10.6991 1.76695C10.8998 1.49433 11 1.20833 11 0.909119C11 0.659083 10.9027 0.445047 10.7083 0.267032C10.5139 0.0889775 10.2837 0 10.0178 0H0.9821C0.667017 0 0.42454 0.0984704 0.254711 0.295411C0.0849037 0.492392 0 0.738607 0 1.03404C0 1.27267 0.112574 1.53127 0.337615 1.80966C0.562634 2.08808 0.802102 2.30685 1.05578 2.46592Z" fill="white" fill-opacity="0.39" />
	<path d="M10.3861 3.07382C9.04395 3.91465 8.02485 4.56812 7.32926 5.03409C7.096 5.19312 6.90678 5.31726 6.76146 5.40622C6.61614 5.49524 6.42288 5.58614 6.18139 5.6789C5.93999 5.7718 5.71501 5.81811 5.50627 5.81811H5.49384C5.28514 5.81811 5.06003 5.7718 4.81863 5.6789C4.57723 5.58614 4.38384 5.49524 4.23856 5.40622C4.09333 5.31726 3.90404 5.19312 3.67081 5.03409C3.11832 4.65911 2.10141 4.0056 0.62004 3.07382C0.386721 2.92997 0.180063 2.76509 0 2.57951V7.09078C0 7.34094 0.0961267 7.55485 0.288488 7.73289C0.480805 7.91098 0.71206 8 0.982165 8H10.0179C10.2879 8 10.5192 7.91098 10.7115 7.73289C10.9039 7.55479 11 7.34096 11 7.09078V2.57951C10.824 2.76125 10.6194 2.92613 10.3861 3.07382Z" fill="white" fill-opacity="0.39" />
</svg>
