<svg width="64" height="64" viewBox="0 0 64 64" fill="none" xmlns="http://www.w3.org/2000/svg">
	<path d="M35.446 27.857C35.596 27.545 35.712 27.232 35.839 26.918C34.674 24.877 34 22.519 34 20C34 16.421 35.354 13.166 37.564 10.691L37.697 9.283L33.01 4.726C32.705 4.43 32.244 4.358 31.865 4.548L27.857 6.553C27.36 6.315 26.859 6.106 26.362 5.927L24.947 1.683C24.812 1.275 24.431 1 24 1H18C17.569 1 17.188 1.275 17.052 1.684L15.637 5.928C15.14 6.107 14.639 6.316 14.142 6.554L10.134 4.549C9.748 4.355 9.285 4.431 8.979 4.736L4.736 8.979C4.431 9.284 4.356 9.749 4.548 10.133L6.553 14.141C6.315 14.638 6.106 15.139 5.927 15.636L1.683 17.051C1.275 17.188 1 17.569 1 18V24C1 24.431 1.275 24.812 1.684 24.948L5.928 26.363C6.108 26.862 6.317 27.362 6.554 27.857L4.549 31.866C4.357 32.251 4.432 32.716 4.737 33.02L8.98 37.263C9.287 37.57 9.751 37.643 10.134 37.451L14.142 35.446C14.639 35.684 15.14 35.893 15.637 36.072L17.052 40.316C17.188 40.725 17.569 41 18 41H24C24.431 41 24.812 40.725 24.948 40.316L26.363 36.072C26.86 35.893 27.361 35.684 27.858 35.446L31.866 37.451C32.25 37.642 32.715 37.569 33.02 37.263L37.263 33.02C37.568 32.715 37.643 32.25 37.451 31.866L35.446 27.857Z" fill="#49B48A" />
	<path d="M63 20C63 11.729 56.271 5 48 5C39.729 5 33 11.729 33 20C33 27.244 38.161 33.304 45 34.698V41H44C43.447 41 43 41.447 43 42V58C43 60.757 45.243 63 48 63C50.757 63 53 60.757 53 58V42C53 41.447 52.553 41 52 41H51V34.698C57.839 33.304 63 27.244 63 20ZM35 20C35 12.832 40.832 7 48 7C55.168 7 61 12.832 61 20C61 27.168 55.168 33 48 33C40.832 33 35 27.168 35 20ZM51 58C51 59.654 49.654 61 48 61C46.346 61 45 59.654 45 58V43H51V58ZM49 41H47V34.949C47.332 34.971 47.662 35 48 35C48.338 35 48.668 34.971 49 34.949V41Z" fill="#263140" />
	<path d="M59 20C59 13.935 54.065 9 48 9C41.935 9 37 13.935 37 20C37 26.065 41.935 31 48 31C54.065 31 59 26.065 59 20ZM39 20C39 15.037 43.037 11 48 11C52.963 11 57 15.037 57 20C57 24.963 52.963 29 48 29C43.037 29 39 24.963 39 20Z" fill="#263140" />
	<path d="M48 59C48.5523 59 49 58.5523 49 58C49 57.4477 48.5523 57 48 57C47.4477 57 47 57.4477 47 58C47 58.5523 47.4477 59 48 59Z" fill="#263140" />
	<path d="M20.999 33H21.001H21.002C27.618 32.998 33 27.616 33 21C33 14.383 27.617 9 21 9C20.97 9 20.941 9.004 20.911 9.005H20.908C14.333 9.055 9 14.414 9 21C9 27.617 14.382 32.999 20.999 33ZM12.811 15.278C13.227 15.675 13.854 16.176 14.754 16.644C14.396 17.666 14.144 18.785 14.051 20H11.051C11.225 18.255 11.854 16.644 12.811 15.278ZM30.949 20H27.942C27.829 18.844 27.532 17.738 27.12 16.704C28.083 16.22 28.754 15.693 29.189 15.278C30.146 16.644 30.775 18.255 30.949 20ZM29.189 26.722C28.773 26.325 28.146 25.824 27.246 25.356C27.604 24.334 27.856 23.215 27.949 22H30.949C30.775 23.745 30.146 25.356 29.189 26.722ZM22 26.032C22.995 26.094 23.842 26.248 24.567 26.448C23.778 27.898 22.808 29.038 22 29.835V26.032ZM22 24.032V22H25.947C25.861 22.935 25.658 23.803 25.379 24.609C24.432 24.32 23.315 24.106 22 24.032ZM22 20V17.968C23.257 17.898 24.334 17.7 25.254 17.431C25.581 18.249 25.831 19.109 25.939 20H22ZM22 15.968V12.398C22.746 13.225 23.619 14.325 24.364 15.61C23.686 15.783 22.901 15.912 22 15.968ZM20 15.968C19.005 15.906 18.158 15.752 17.433 15.552C18.222 14.102 19.192 12.962 20 12.165V15.968ZM20 17.968V20H16.053C16.139 19.065 16.342 18.197 16.621 17.391C17.568 17.68 18.685 17.894 20 17.968ZM20 22V24.032C18.743 24.102 17.666 24.3 16.746 24.569C16.419 23.751 16.169 22.891 16.061 22H20ZM20 26.032V29.602C19.254 28.775 18.381 27.675 17.636 26.39C18.314 26.217 19.099 26.088 20 26.032ZM18.198 30.593C16.648 30.139 15.256 29.32 14.115 28.234C14.402 27.943 14.921 27.507 15.735 27.094C16.497 28.469 17.392 29.663 18.198 30.593ZM26.457 27.193C27.162 27.576 27.621 27.966 27.885 28.233C26.836 29.232 25.574 30.004 24.171 30.475C24.95 29.609 25.771 28.511 26.457 27.193ZM26.264 14.906C25.503 13.531 24.607 12.336 23.802 11.407C25.352 11.861 26.744 12.68 27.885 13.766C27.598 14.057 27.079 14.493 26.264 14.906ZM15.543 14.807C14.838 14.424 14.379 14.034 14.115 13.767C15.164 12.768 16.426 11.996 17.829 11.525C17.05 12.391 16.229 13.489 15.543 14.807ZM14.058 22C14.171 23.156 14.468 24.262 14.88 25.296C13.917 25.78 13.246 26.307 12.811 26.722C11.854 25.356 11.225 23.745 11.05 22H14.058Z" fill="#263140" />
	<path d="M37 51C36.12 51 35.334 51.388 34.785 51.994L27.984 49.16C27.987 49.106 28 49.055 28 49C28 47.346 26.654 46 25 46C23.346 46 22 47.346 22 49C22 49.426 22.092 49.829 22.252 50.197C22.216 50.222 22.175 50.233 22.142 50.263L14.505 57.263C14.469 57.296 14.453 57.339 14.423 57.376C13.998 57.144 13.518 57 13 57C12.62 57 12.26 57.078 11.925 57.208C11.888 57.109 11.845 57.01 11.774 56.923L6.774 50.812C6.703 50.725 6.614 50.664 6.524 50.607C6.822 50.141 7 49.592 7 49C7 47.346 5.654 46 4 46C2.346 46 1 47.346 1 49C1 50.654 2.346 52 4 52C4.38 52 4.74 51.922 5.075 51.792C5.112 51.891 5.155 51.99 5.226 52.077L10.226 58.188C10.297 58.275 10.39 58.329 10.48 58.385C10.179 58.853 10 59.405 10 60C10 61.654 11.346 63 13 63C14.654 63 16 61.654 16 60C16 59.575 15.909 59.171 15.748 58.805C15.783 58.78 15.824 58.768 15.857 58.738L23.494 51.738C23.53 51.705 23.546 51.662 23.576 51.625C24.002 51.856 24.482 52 25 52C25.88 52 26.666 51.612 27.215 51.006L34.016 53.84C34.013 53.894 34 53.945 34 54C34 55.654 35.346 57 37 57C38.654 57 40 55.654 40 54C40 52.346 38.654 51 37 51ZM4 50C3.448 50 3 49.552 3 49C3 48.448 3.448 48 4 48C4.552 48 5 48.448 5 49C5 49.552 4.552 50 4 50ZM13 61C12.448 61 12 60.552 12 60C12 59.448 12.448 59 13 59C13.552 59 14 59.448 14 60C14 60.552 13.552 61 13 61ZM25 50C24.448 50 24 49.552 24 49C24 48.448 24.448 48 25 48C25.552 48 26 48.448 26 49C26 49.552 25.552 50 25 50ZM37 55C36.448 55 36 54.552 36 54C36 53.448 36.448 53 37 53C37.552 53 38 53.448 38 54C38 54.552 37.552 55 37 55Z" fill="#263140" />
	<path d="M63 20C63 11.729 56.271 5 48 5C39.729 5 33 11.729 33 20C33 27.244 38.161 33.304 45 34.698V41H44C43.447 41 43 41.447 43 42V58C43 60.757 45.243 63 48 63C50.757 63 53 60.757 53 58V42C53 41.447 52.553 41 52 41H51V34.698C57.839 33.304 63 27.244 63 20ZM35 20C35 12.832 40.832 7 48 7C55.168 7 61 12.832 61 20C61 27.168 55.168 33 48 33C40.832 33 35 27.168 35 20ZM51 58C51 59.654 49.654 61 48 61C46.346 61 45 59.654 45 58V43H51V58ZM49 41H47V34.949C47.332 34.971 47.662 35 48 35C48.338 35 48.668 34.971 49 34.949V41Z" stroke="white" />
	<path d="M59 20C59 13.935 54.065 9 48 9C41.935 9 37 13.935 37 20C37 26.065 41.935 31 48 31C54.065 31 59 26.065 59 20ZM39 20C39 15.037 43.037 11 48 11C52.963 11 57 15.037 57 20C57 24.963 52.963 29 48 29C43.037 29 39 24.963 39 20Z" stroke="white" />
	<path d="M48 59C48.5523 59 49 58.5523 49 58C49 57.4477 48.5523 57 48 57C47.4477 57 47 57.4477 47 58C47 58.5523 47.4477 59 48 59Z" stroke="white" />
	<path d="M20.999 33H21.001H21.002C27.618 32.998 33 27.616 33 21C33 14.383 27.617 9 21 9C20.97 9 20.941 9.004 20.911 9.005H20.908C14.333 9.055 9 14.414 9 21C9 27.617 14.382 32.999 20.999 33ZM12.811 15.278C13.227 15.675 13.854 16.176 14.754 16.644C14.396 17.666 14.144 18.785 14.051 20H11.051C11.225 18.255 11.854 16.644 12.811 15.278ZM30.949 20H27.942C27.829 18.844 27.532 17.738 27.12 16.704C28.083 16.22 28.754 15.693 29.189 15.278C30.146 16.644 30.775 18.255 30.949 20ZM29.189 26.722C28.773 26.325 28.146 25.824 27.246 25.356C27.604 24.334 27.856 23.215 27.949 22H30.949C30.775 23.745 30.146 25.356 29.189 26.722ZM22 26.032C22.995 26.094 23.842 26.248 24.567 26.448C23.778 27.898 22.808 29.038 22 29.835V26.032ZM22 24.032V22H25.947C25.861 22.935 25.658 23.803 25.379 24.609C24.432 24.32 23.315 24.106 22 24.032ZM22 20V17.968C23.257 17.898 24.334 17.7 25.254 17.431C25.581 18.249 25.831 19.109 25.939 20H22ZM22 15.968V12.398C22.746 13.225 23.619 14.325 24.364 15.61C23.686 15.783 22.901 15.912 22 15.968ZM20 15.968C19.005 15.906 18.158 15.752 17.433 15.552C18.222 14.102 19.192 12.962 20 12.165V15.968ZM20 17.968V20H16.053C16.139 19.065 16.342 18.197 16.621 17.391C17.568 17.68 18.685 17.894 20 17.968ZM20 22V24.032C18.743 24.102 17.666 24.3 16.746 24.569C16.419 23.751 16.169 22.891 16.061 22H20ZM20 26.032V29.602C19.254 28.775 18.381 27.675 17.636 26.39C18.314 26.217 19.099 26.088 20 26.032ZM18.198 30.593C16.648 30.139 15.256 29.32 14.115 28.234C14.402 27.943 14.921 27.507 15.735 27.094C16.497 28.469 17.392 29.663 18.198 30.593ZM26.457 27.193C27.162 27.576 27.621 27.966 27.885 28.233C26.836 29.232 25.574 30.004 24.171 30.475C24.95 29.609 25.771 28.511 26.457 27.193ZM26.264 14.906C25.503 13.531 24.607 12.336 23.802 11.407C25.352 11.861 26.744 12.68 27.885 13.766C27.598 14.057 27.079 14.493 26.264 14.906ZM15.543 14.807C14.838 14.424 14.379 14.034 14.115 13.767C15.164 12.768 16.426 11.996 17.829 11.525C17.05 12.391 16.229 13.489 15.543 14.807ZM14.058 22C14.171 23.156 14.468 24.262 14.88 25.296C13.917 25.78 13.246 26.307 12.811 26.722C11.854 25.356 11.225 23.745 11.05 22H14.058Z" stroke="white" />
	<path d="M37 51C36.12 51 35.334 51.388 34.785 51.994L27.984 49.16C27.987 49.106 28 49.055 28 49C28 47.346 26.654 46 25 46C23.346 46 22 47.346 22 49C22 49.426 22.092 49.829 22.252 50.197C22.216 50.222 22.175 50.233 22.142 50.263L14.505 57.263C14.469 57.296 14.453 57.339 14.423 57.376C13.998 57.144 13.518 57 13 57C12.62 57 12.26 57.078 11.925 57.208C11.888 57.109 11.845 57.01 11.774 56.923L6.774 50.812C6.703 50.725 6.614 50.664 6.524 50.607C6.822 50.141 7 49.592 7 49C7 47.346 5.654 46 4 46C2.346 46 1 47.346 1 49C1 50.654 2.346 52 4 52C4.38 52 4.74 51.922 5.075 51.792C5.112 51.891 5.155 51.99 5.226 52.077L10.226 58.188C10.297 58.275 10.39 58.329 10.48 58.385C10.179 58.853 10 59.405 10 60C10 61.654 11.346 63 13 63C14.654 63 16 61.654 16 60C16 59.575 15.909 59.171 15.748 58.805C15.783 58.78 15.824 58.768 15.857 58.738L23.494 51.738C23.53 51.705 23.546 51.662 23.576 51.625C24.002 51.856 24.482 52 25 52C25.88 52 26.666 51.612 27.215 51.006L34.016 53.84C34.013 53.894 34 53.945 34 54C34 55.654 35.346 57 37 57C38.654 57 40 55.654 40 54C40 52.346 38.654 51 37 51ZM4 50C3.448 50 3 49.552 3 49C3 48.448 3.448 48 4 48C4.552 48 5 48.448 5 49C5 49.552 4.552 50 4 50ZM13 61C12.448 61 12 60.552 12 60C12 59.448 12.448 59 13 59C13.552 59 14 59.448 14 60C14 60.552 13.552 61 13 61ZM25 50C24.448 50 24 49.552 24 49C24 48.448 24.448 48 25 48C25.552 48 26 48.448 26 49C26 49.552 25.552 50 25 50ZM37 55C36.448 55 36 54.552 36 54C36 53.448 36.448 53 37 53C37.552 53 38 53.448 38 54C38 54.552 37.552 55 37 55Z" stroke="white" />
</svg>
