<svg width="95" height="30" viewBox="0 0 95 30" fill="none" xmlns="http://www.w3.org/2000/svg">
	<rect width="94.8454" height="30" rx="4" fill="#4267B2" />
	<path d="M25.6035 20V10.9062H30.7422V11.9082H26.7871V15.043H30.2383V15.957H26.7871V20H25.6035ZM36.2852 20C36.1719 19.6484 36.1152 19.3457 36.1152 19.0918C35.6387 19.5645 35.2305 19.8652 34.8906 19.9941C34.5547 20.1191 34.2324 20.1816 33.9238 20.1816C33.4043 20.1816 32.957 20.0234 32.582 19.707C32.2109 19.3867 32.0254 18.9473 32.0254 18.3887C32.0254 17.7559 32.2871 17.2676 32.8105 16.9238C33.3379 16.5801 34.2441 16.2832 35.5293 16.0332L36.1152 15.9219V15.1836C36.1152 14.7812 35.9805 14.5 35.7109 14.3398C35.4414 14.1758 35.1172 14.0938 34.7383 14.0938C34.2852 14.0938 33.9316 14.1934 33.6777 14.3926C33.4238 14.5918 33.2969 14.8242 33.2969 15.0898V15.1836H32.1133V15.0957C32.1133 14.8066 32.2344 14.5078 32.4766 14.1992C32.7227 13.8906 33.0469 13.6582 33.4492 13.502C33.8555 13.3457 34.2988 13.2676 34.7793 13.2676C35.2559 13.2676 35.6895 13.3418 36.0801 13.4902C36.4707 13.6387 36.7559 13.8398 36.9355 14.0938C37.1152 14.3438 37.2051 14.8164 37.2051 15.5117V18.0547C37.2051 18.332 37.2129 18.623 37.2285 18.9277C37.2402 19.2363 37.3086 19.5938 37.4336 20H36.2852ZM36.1152 16.6953L35.7871 16.7773C34.6816 17.0469 33.9746 17.3027 33.666 17.5449C33.3574 17.7871 33.2031 18.0762 33.2031 18.4121C33.2031 18.584 33.248 18.7441 33.3379 18.8926C33.4316 19.041 33.5684 19.1562 33.748 19.2383C33.9277 19.3203 34.1055 19.3613 34.2812 19.3613C34.5859 19.3613 34.8848 19.2734 35.1777 19.0977C35.4746 18.918 35.7051 18.6797 35.8691 18.3828C36.0332 18.0859 36.1152 17.7402 36.1152 17.3457V16.6953ZM42.9824 18.3184H44.0781V18.377C44.0781 18.6699 43.9668 18.9648 43.7441 19.2617C43.5254 19.5586 43.2363 19.7871 42.877 19.9473C42.5215 20.1035 42.0918 20.1816 41.5879 20.1816C40.623 20.1816 39.8789 19.877 39.3555 19.2676C38.8359 18.6543 38.5762 17.8066 38.5762 16.7246C38.5762 15.6465 38.8359 14.8027 39.3555 14.1934C39.8789 13.5801 40.623 13.2734 41.5879 13.2734C42.0918 13.2734 42.5215 13.3535 42.877 13.5137C43.2363 13.6699 43.5254 13.8867 43.7441 14.1641C43.9668 14.4375 44.0781 14.7422 44.0781 15.0781V15.1367H42.9824V15.0781C42.9824 15.0664 42.9824 15.0547 42.9824 15.043C42.9824 14.8203 42.8789 14.623 42.6719 14.4512C42.4492 14.2715 42.1074 14.1816 41.6465 14.1816C41.0996 14.1816 40.6406 14.3828 40.2695 14.7852C39.8984 15.1875 39.7129 15.834 39.7129 16.7246C39.7129 17.6191 39.8984 18.2676 40.2695 18.6699C40.6406 19.0723 41.0996 19.2734 41.6465 19.2734C42.1074 19.2734 42.4453 19.1836 42.6602 19.0039C42.875 18.8242 42.9824 18.6152 42.9824 18.377V18.3184ZM49.7207 18.3184H50.8105V18.377C50.8105 18.666 50.6953 18.9609 50.4648 19.2617C50.2344 19.5625 49.9297 19.791 49.5508 19.9473C49.1719 20.1035 48.7363 20.1816 48.2441 20.1816C47.248 20.1816 46.4785 19.8594 45.9355 19.2148C45.3965 18.5703 45.127 17.7559 45.127 16.7715C45.127 15.7637 45.4121 14.9297 45.9824 14.2695C46.5566 13.6055 47.2949 13.2734 48.1973 13.2734C48.6934 13.2734 49.1426 13.3809 49.5449 13.5957C49.9473 13.8105 50.2656 14.1465 50.5 14.6035C50.7344 15.0566 50.8516 15.6895 50.8516 16.502V16.8652H46.2051C46.2051 17.5645 46.3926 18.1406 46.7676 18.5938C47.1465 19.0469 47.6699 19.2734 48.3379 19.2734C48.8184 19.2734 49.168 19.1816 49.3867 18.998C49.6094 18.8105 49.7207 18.6035 49.7207 18.377V18.3184ZM46.2754 16.0449H49.8086V15.916C49.8086 15.6113 49.7344 15.3164 49.5859 15.0312C49.4414 14.7422 49.2402 14.5293 48.9824 14.3926C48.7246 14.252 48.4238 14.1816 48.0801 14.1816C47.6738 14.1816 47.2988 14.3457 46.9551 14.6738C46.6113 14.998 46.3848 15.4551 46.2754 16.0449ZM53.3594 20H52.2695C52.2891 19.7852 52.3066 19.5234 52.3223 19.2148C52.334 18.9062 52.3438 18.6543 52.3516 18.459C52.3594 18.2637 52.3633 18.1328 52.3633 18.0664V10.543H53.4531V14.5918C53.6914 14.2207 53.9141 13.9512 54.1211 13.7832C54.332 13.6152 54.5605 13.4883 54.8066 13.4023C55.0566 13.3164 55.3184 13.2734 55.5918 13.2734C56.0879 13.2734 56.543 13.4102 56.957 13.6836C57.3711 13.9531 57.6934 14.3574 57.9238 14.8965C58.1543 15.4355 58.2695 16.041 58.2695 16.7129C58.2695 17.709 58.0293 18.5371 57.5488 19.1973C57.0684 19.8535 56.3984 20.1816 55.5391 20.1816C55.2578 20.1816 54.9941 20.1406 54.748 20.0586C54.502 19.9805 54.2812 19.8633 54.0859 19.707C53.8945 19.5469 53.6836 19.2637 53.4531 18.8574L53.418 19.332C53.4023 19.5938 53.3828 19.8164 53.3594 20ZM53.4531 16.7305C53.4531 17.4727 53.6133 18.082 53.9336 18.5586C54.2539 19.0352 54.7031 19.2734 55.2812 19.2734C55.8125 19.2734 56.2539 19.0625 56.6055 18.6406C56.957 18.2188 57.1328 17.5879 57.1328 16.748C57.1328 15.7676 56.9531 15.0879 56.5938 14.709C56.2344 14.3262 55.8066 14.1348 55.3105 14.1348C54.9629 14.1348 54.6387 14.2402 54.3379 14.4512C54.041 14.6582 53.8184 14.9688 53.6699 15.3828C53.5254 15.793 53.4531 16.2422 53.4531 16.7305ZM62.459 20.1816C61.6035 20.1816 60.873 19.8926 60.2676 19.3145C59.666 18.7324 59.3652 17.8691 59.3652 16.7246C59.3652 15.584 59.666 14.7246 60.2676 14.1465C60.873 13.5645 61.6035 13.2734 62.459 13.2734C63.3105 13.2734 64.0371 13.5645 64.6387 14.1465C65.2441 14.7246 65.5469 15.584 65.5469 16.7246C65.5469 17.8691 65.2441 18.7324 64.6387 19.3145C64.0371 19.8926 63.3105 20.1816 62.459 20.1816ZM62.459 19.2734C63.0449 19.2734 63.5156 19.041 63.8711 18.5762C64.2305 18.1074 64.4102 17.4902 64.4102 16.7246C64.4102 15.9629 64.2305 15.3496 63.8711 14.8848C63.5156 14.416 63.0449 14.1816 62.459 14.1816C61.8691 14.1816 61.3945 14.416 61.0352 14.8848C60.6797 15.3496 60.502 15.9629 60.502 16.7246C60.502 17.4902 60.6797 18.1074 61.0352 18.5762C61.3945 19.041 61.8691 19.2734 62.459 19.2734ZM69.7363 20.1816C68.8809 20.1816 68.1504 19.8926 67.5449 19.3145C66.9434 18.7324 66.6426 17.8691 66.6426 16.7246C66.6426 15.584 66.9434 14.7246 67.5449 14.1465C68.1504 13.5645 68.8809 13.2734 69.7363 13.2734C70.5879 13.2734 71.3145 13.5645 71.916 14.1465C72.5215 14.7246 72.8242 15.584 72.8242 16.7246C72.8242 17.8691 72.5215 18.7324 71.916 19.3145C71.3145 19.8926 70.5879 20.1816 69.7363 20.1816ZM69.7363 19.2734C70.3223 19.2734 70.793 19.041 71.1484 18.5762C71.5078 18.1074 71.6875 17.4902 71.6875 16.7246C71.6875 15.9629 71.5078 15.3496 71.1484 14.8848C70.793 14.416 70.3223 14.1816 69.7363 14.1816C69.1465 14.1816 68.6719 14.416 68.3125 14.8848C67.957 15.3496 67.7793 15.9629 67.7793 16.7246C67.7793 17.4902 67.957 18.1074 68.3125 18.5762C68.6719 19.041 69.1465 19.2734 69.7363 19.2734ZM75.373 20H74.2363V10.543H75.373V16.5723L78.2793 13.4551H79.5391L76.7031 16.4961L79.6445 20H78.2793L75.373 16.5723V20Z" fill="white" />
	<path d="M15.8165 20H13.7498V15H12.3711V13.2769L13.7498 13.2763L13.7476 12.2611C13.7476 10.8554 14.168 10 15.9944 10H17.515V11.7235H16.5647C15.8535 11.7235 15.8193 11.9643 15.8193 12.4137L15.8164 13.2763H17.5257L17.3242 14.9994L15.8179 15L15.8165 20Z" fill="white" />
</svg>
