<svg width="86" height="86" viewBox="0 0 86 86" fill="none" xmlns="http://www.w3.org/2000/svg">
	<path d="M33.5938 47.0312V38.9688H38.9688V33.5938H47.0312V38.9688H52.4062V47.0312H47.0312V52.4062H38.9688V47.0312H33.5938Z" stroke="#4DBD94" />
	<path d="M43 8L16 21.7061V53.7403C16 56.4592 17.7726 59.2319 20.2926 61.9434C22.8125 64.655 26.1342 67.3104 29.4473 69.6602C36.0733 74.3597 42.6862 77.8344 42.6862 77.8344L43 78L43.3138 77.8344C43.3138 77.8344 49.9267 74.3597 56.5527 69.6602C59.8658 67.3104 63.1875 64.655 65.7074 61.9434C68.2274 59.2319 70 56.4592 70 53.7403V21.7061L43 8ZM43 9.51179L68.65 22.5316V53.7403C68.65 55.8492 67.132 58.4288 64.716 61.0285C62.3 63.6282 59.0405 66.2432 55.7723 68.5611C49.4864 73.0194 43.4736 76.2163 43 76.4672C42.5264 76.2163 36.5136 73.0194 30.2277 68.5611C26.9595 66.2432 23.7 63.6282 21.284 61.0285C18.868 58.4288 17.35 55.8492 17.35 53.7403V22.5316L43 9.51179Z" fill="#263140" stroke="#F7FAFC" stroke-width="0.2" />
	<path d="M43 25C33.0678 25 25 33.0678 25 43C25 52.9322 33.0678 61 43 61C52.9322 61 61 52.9322 61 43C61 33.0678 52.9322 25 43 25ZM43 26.5C52.1216 26.5 59.5 33.8784 59.5 43C59.5 52.1216 52.1216 59.5 43 59.5C33.8784 59.5 26.5 52.1216 26.5 43C26.5 33.8784 33.8784 26.5 43 26.5Z" fill="#263140" stroke="#F7FAFC" stroke-width="0.4" />
</svg>
