<svg width="1440" height="650" viewBox="0 0 1440 650" fill="none" xmlns="http://www.w3.org/2000/svg">
	<path fill-rule="evenodd" clip-rule="evenodd" d="M-173.011 649.38L147.667 442.992L189.514 649.38H-173.011Z" fill="#012933" stroke="#012933" stroke-width="0.2835" stroke-miterlimit="22.9256" stroke-linejoin="round" />
	<path fill-rule="evenodd" clip-rule="evenodd" d="M147.666 442.992L256.124 213.449L189.512 649.38L147.666 442.992Z" fill="#005267" stroke="#012933" stroke-width="0.2835" stroke-miterlimit="22.9256" stroke-linejoin="round" />
	<path fill-rule="evenodd" clip-rule="evenodd" d="M256.124 213.449L569.116 442.992L189.512 649.38L256.124 213.449Z" fill="#003E4D" stroke="#003E4D" stroke-width="0.2835" stroke-miterlimit="22.9256" stroke-linejoin="round" />
	<path fill-rule="evenodd" clip-rule="evenodd" d="M568.689 442.992L635.301 649.38H189.512L568.689 442.992Z" fill="#012933" stroke="#012933" stroke-width="0.2835" stroke-miterlimit="22.9256" stroke-linejoin="round" />
	<path fill-rule="evenodd" clip-rule="evenodd" d="M568.69 442.992L901.752 521.52L635.303 649.38L568.69 442.992Z" fill="#003E4D" stroke="#003E4D" stroke-width="0.2835" stroke-miterlimit="22.9256" stroke-linejoin="round" />
	<path fill-rule="evenodd" clip-rule="evenodd" d="M147.667 442.992L-173.011 225.53V649.38L147.667 442.992Z" fill="#003E4D" stroke="#003E4D" stroke-width="0.2835" stroke-miterlimit="22.9256" stroke-linejoin="round" />
	<path fill-rule="evenodd" clip-rule="evenodd" d="M256.126 213.449L-173.011 225.53L147.667 442.992L256.126 213.449Z" fill="#004F63" stroke="#003E4D" stroke-width="0.2835" stroke-miterlimit="22.9256" stroke-linejoin="round" />
	<path fill-rule="evenodd" clip-rule="evenodd" d="M256.125 213.45L199.761 -112.744L-97.0049 277.379L256.125 213.45Z" fill="#006078" stroke="#006078" stroke-width="0.2835" stroke-miterlimit="22.9256" stroke-linejoin="round" />
	<path fill-rule="evenodd" clip-rule="evenodd" d="M199.76 -112.744L440.589 125.861L256.124 213.45L199.76 -112.744Z" fill="#00708C" stroke="#00708C" stroke-width="0.2835" stroke-miterlimit="22.9256" stroke-linejoin="round" />
	<path fill-rule="evenodd" clip-rule="evenodd" d="M440.59 125.86L568.69 442.489L256.125 213.449L440.59 125.86Z" fill="#004F63" stroke="#004F63" stroke-width="0.2835" stroke-miterlimit="22.9256" stroke-linejoin="round" />
	<path fill-rule="evenodd" clip-rule="evenodd" d="M199.761 -112.744L-37.2247 -33.2088L-97.0049 277.379L199.761 -112.744Z" fill="#008AAD" stroke="#008AAD" stroke-width="0.2835" stroke-miterlimit="22.9256" stroke-linejoin="round" />
	<path fill-rule="evenodd" clip-rule="evenodd" d="M199.76 -112.744L562.284 14.1088L402.158 -375.511L199.76 -112.744Z" fill="#00BEED" stroke="#00BEED" stroke-width="0.2835" stroke-miterlimit="22.9256" stroke-linejoin="round" />
	<path fill-rule="evenodd" clip-rule="evenodd" d="M440.589 125.86L562.284 14.1092L199.76 -112.744L440.589 125.86Z" fill="#008AAD" stroke="#008AAD" stroke-width="0.2835" stroke-miterlimit="22.9256" stroke-linejoin="round" />
	<path fill-rule="evenodd" clip-rule="evenodd" d="M568.692 442.992L821.05 252.713L440.592 125.86L568.692 442.992Z" fill="#006078" stroke="#006078" stroke-width="0.2835" stroke-miterlimit="22.9256" stroke-linejoin="round" />
	<path fill-rule="evenodd" clip-rule="evenodd" d="M562.287 14.1086L821.05 252.713L440.592 125.86L562.287 14.1086Z" fill="#00708C" stroke="#00708C" stroke-width="0.2835" stroke-miterlimit="22.9256" stroke-linejoin="round" />
	<path fill-rule="evenodd" clip-rule="evenodd" d="M901.751 521.521L821.048 252.713L568.263 442.993L901.751 521.521Z" fill="#004F63" stroke="#004F63" stroke-width="0.2835" stroke-miterlimit="22.9256" stroke-linejoin="round" />
	<path fill-rule="evenodd" clip-rule="evenodd" d="M901.751 521.521L1023.45 649.38H635.302L901.751 521.521Z" fill="#012933" stroke="#012933" stroke-width="0.2835" stroke-miterlimit="22.9256" stroke-linejoin="round" />
	<path fill-rule="evenodd" clip-rule="evenodd" d="M1023.45 649.38L1159.23 288.957L901.753 521.521L1023.45 649.38Z" fill="#003E4D" stroke="#003E4D" stroke-width="0.2835" stroke-miterlimit="22.9256" stroke-linejoin="round" />
	<path fill-rule="evenodd" clip-rule="evenodd" d="M1159.23 288.957L821.048 252.713L901.751 521.521L1159.23 288.957Z" fill="#006078" stroke="#006078" stroke-width="0.2835" stroke-miterlimit="22.9256" stroke-linejoin="round" />
	<path fill-rule="evenodd" clip-rule="evenodd" d="M821.048 252.713L910.718 -103.683L562.285 14.1086L821.048 252.713Z" fill="#00A1C9" stroke="#00A1C9" stroke-width="0.2835" stroke-miterlimit="22.9256" stroke-linejoin="round" />
	<path fill-rule="evenodd" clip-rule="evenodd" d="M562.286 14.1088L621.212 -275.841L402.16 -375.511L562.286 14.1088Z" fill="#29D4FF" stroke="#29D4FF" stroke-width="0.2835" stroke-miterlimit="22.9256" stroke-linejoin="round" />
	<path fill-rule="evenodd" clip-rule="evenodd" d="M621.211 -275.841L910.718 -103.683L562.285 14.1089L621.211 -275.841Z" fill="#00BEED" stroke="#00BEED" stroke-width="0.2835" stroke-miterlimit="22.9256" stroke-linejoin="round" />
	<path fill-rule="evenodd" clip-rule="evenodd" d="M1159.23 288.957L1230.97 649.38H1023.45L1159.23 288.957Z" fill="#012933" stroke="#012933" stroke-width="0.2835" stroke-miterlimit="22.9256" stroke-linejoin="round" />
	<path fill-rule="evenodd" clip-rule="evenodd" d="M1159.23 288.957L1318.08 116.799L1230.97 649.38L1159.23 288.957Z" fill="#003E4D" stroke="#003E4D" stroke-width="0.2835" stroke-miterlimit="22.9256" stroke-linejoin="round" />
	<path fill-rule="evenodd" clip-rule="evenodd" d="M1159.23 288.957L1102.87 98.6777L821.048 252.713L1159.23 288.957Z" fill="#00708C" stroke="#00708C" stroke-width="0.2835" stroke-miterlimit="22.9256" stroke-linejoin="round" />
	<path fill-rule="evenodd" clip-rule="evenodd" d="M1159.23 288.957L1318.08 116.8L1102.87 98.6777L1159.23 288.957Z" fill="#004F63" stroke="#004F63" stroke-width="0.2835" stroke-miterlimit="22.9256" stroke-linejoin="round" />
	<path fill-rule="evenodd" clip-rule="evenodd" d="M910.718 -103.683L1102.87 98.6771L821.048 252.713L910.718 -103.683Z" fill="#008AAD" stroke="#008AAD" stroke-width="0.2835" stroke-miterlimit="22.9256" stroke-linejoin="round" />
	<path fill-rule="evenodd" clip-rule="evenodd" d="M1230.97 649.38L1318.08 116.799L1422.69 443.999L1230.97 649.38Z" fill="#004F63" stroke="#004F63" stroke-width="0.2835" stroke-miterlimit="22.9256" stroke-linejoin="round" />
	<path fill-rule="evenodd" clip-rule="evenodd" d="M1230.97 649.38L1422.69 443.999L1584.1 649.38H1230.97Z" fill="#003E4D" stroke="#003E4D" stroke-width="0.2835" stroke-miterlimit="22.9256" stroke-linejoin="round" />
	<path fill-rule="evenodd" clip-rule="evenodd" d="M1422.69 443.999L1584.1 359.43V649.38L1422.69 443.999Z" fill="#004F63" stroke="#004F63" stroke-width="0.2835" stroke-miterlimit="22.9256" stroke-linejoin="round" />
	<path fill-rule="evenodd" clip-rule="evenodd" d="M1422.69 443.999L1499.55 -144.96L1318.08 116.799L1422.69 443.999Z" fill="#00708C" stroke="#00708C" stroke-width="0.2835" stroke-miterlimit="22.9256" stroke-linejoin="round" />
	<path fill-rule="evenodd" clip-rule="evenodd" d="M1422.69 443.999L1584.1 359.431L1499.55 -144.96L1422.69 443.999Z" fill="#006078" stroke="#006078" stroke-width="0.2835" stroke-miterlimit="22.9256" stroke-linejoin="round" />
	<path fill-rule="evenodd" clip-rule="evenodd" d="M1318.08 116.799L1251.04 -231.039L1102.87 98.6776L1318.08 116.799Z" fill="#00708C" stroke="#00708C" stroke-width="0.2835" stroke-miterlimit="22.9256" stroke-linejoin="round" />
	<path fill-rule="evenodd" clip-rule="evenodd" d="M1251.04 -231.039L910.718 -103.683L1102.87 98.6776L1251.04 -231.039Z" fill="#00A1C9" stroke="#00A1C9" stroke-width="0.2835" stroke-miterlimit="22.9256" stroke-linejoin="round" />
	<path fill-rule="evenodd" clip-rule="evenodd" d="M1251.04 -231.039L1499.55 -144.961L1318.08 116.799L1251.04 -231.039Z" fill="#008AAD" stroke="#008AAD" stroke-width="0.2835" stroke-miterlimit="22.9256" stroke-linejoin="round" />
	<path fill-rule="evenodd" clip-rule="evenodd" d="M199.76 -112.744L-155.932 -308.561L-176.855 13.1021L199.76 -112.744Z" fill="#00BEED" stroke="#00BEED" stroke-width="0.2835" stroke-miterlimit="22.9256" stroke-linejoin="round" />
</svg>
