<svg width="64" height="66" viewBox="0 0 64 66" fill="none" xmlns="http://www.w3.org/2000/svg">
	<path d="M51.5111 26.5462V20.3984H48.9653C48.6214 19.009 48.051 17.6985 47.2628 16.4884L49.0613 14.7783L44.4873 10.4318L42.6877 12.1409C41.4132 11.3919 40.0351 10.8498 38.573 10.523V8.10278H32.1034V10.5219C30.6413 10.8488 29.2621 11.3908 27.9887 12.1398L26.1891 10.4307L21.6151 14.7772L23.4136 16.4873C22.6254 17.6985 22.055 19.0079 21.711 20.3973H19.1631V26.5451H21.7089C22.0528 27.9345 22.6232 29.245 23.4115 30.4551L21.6129 32.1652L26.1869 36.5117L27.9898 34.7985C28.2249 34.9338 28.4729 35.067 28.737 35.2012L29.7517 33.3938L31.024 33.3948V30.5453C28.4481 29.1272 26.711 26.4857 26.711 23.4538C26.711 18.927 30.5733 15.2568 35.3371 15.2568C40.1009 15.2568 43.9633 18.927 43.9633 23.4538C43.9633 26.4857 42.2262 29.1272 39.6502 30.5453V33.3876L40.9409 33.3866L41.9663 35.1899C42.2197 35.0598 42.458 34.9297 42.6834 34.8006L44.4862 36.5138L49.0602 32.1673L47.2617 30.4572C48.0499 29.2461 48.6203 27.9366 48.9643 26.5472H51.5111V26.5462Z" fill="#49B48A" />
	<path d="M59.9968 24.7389C59.9968 11.8152 49.1334 1.16728 35.7812 1.00207C35.6766 1.00103 35.5742 1 35.4706 1C23.9413 1 13.8645 8.94566 11.4386 19.9973C10.8388 22.7243 10.7641 25.5371 11.2145 28.3653L4 40.8501L11.9915 43.0795V55.7068H22.6638V65H24.7983V53.6417H14.1259V41.5265L7.17503 39.5873L13.4429 28.7422L13.3799 28.3828C12.9082 25.692 12.9573 23.0145 13.5272 20.4269C15.7631 10.2364 25.1025 2.92678 35.7545 3.06721C47.9456 3.21797 57.8634 12.9407 57.8634 24.7399L57.8666 28.5078C57.8719 36.7808 53.6628 44.5251 46.6051 49.2243L46.143 49.5331V65H48.2775V50.6121C55.635 45.4998 60.0053 37.2785 60 28.5068L59.9968 24.7389Z" fill="#263140" stroke="white" />
	<path d="M45.0757 23.697C45.0757 18.5723 40.7673 14.4038 35.4706 14.4038C30.1739 14.4038 25.8655 18.5723 25.8655 23.697C25.8655 26.7937 27.4866 29.6983 30.1344 31.4154V33.0428C28.9178 33.2823 27.9999 34.3252 27.9999 35.5716C27.9999 36.4905 28.5015 37.2918 29.2497 37.7503C29.1366 38.0373 29.0672 38.345 29.0672 38.6693C29.0672 40.0932 30.2636 41.2507 31.7353 41.2507H39.2059C40.6776 41.2507 41.874 40.0932 41.874 38.6693C41.874 38.344 41.8046 38.0363 41.6915 37.7503C42.4396 37.2929 42.9412 36.4905 42.9412 35.5716C42.9412 34.3242 42.0234 33.2823 40.8068 33.0428V31.4154C43.4546 29.6983 45.0757 26.7937 45.0757 23.697ZM27.9999 23.697C27.9999 19.7123 31.3521 16.469 35.4706 16.469C39.5891 16.469 42.9412 19.7123 42.9412 23.697C42.9412 26.2619 41.509 28.6585 39.2049 29.9502L38.6723 30.2486V32.9901H36.5378V26.6047C37.7769 26.1772 38.6723 25.0414 38.6723 23.697C38.6723 21.9891 37.2358 20.5992 35.4706 20.5992C33.7054 20.5992 32.2689 21.9891 32.2689 23.697C32.2689 25.0414 33.1643 26.1772 34.4034 26.6047V32.9901H32.2689V30.2486L31.7363 29.9502C29.4322 28.6585 27.9999 26.2629 27.9999 23.697ZM34.4034 23.697C34.4034 23.127 34.8815 22.6644 35.4706 22.6644C36.0597 22.6644 36.5378 23.127 36.5378 23.697C36.5378 24.2669 36.0597 24.7295 35.4706 24.7295C34.8815 24.7295 34.4034 24.2669 34.4034 23.697ZM30.668 35.0553H40.2732C40.5666 35.0553 40.8068 35.2876 40.8068 35.5716C40.8068 35.8555 40.5666 36.0878 40.2732 36.0878H39.2059H31.7353H30.668C30.3745 36.0878 30.1344 35.8555 30.1344 35.5716C30.1344 35.2876 30.3745 35.0553 30.668 35.0553ZM39.2059 39.1856H31.7353C31.4418 39.1856 31.2017 38.9532 31.2017 38.6693C31.2017 38.3853 31.4418 38.153 31.7353 38.153H39.2059C39.4994 38.153 39.7395 38.3853 39.7395 38.6693C39.7395 38.9532 39.4994 39.1856 39.2059 39.1856Z" fill="#263140" stroke="white" />
	<path d="M36.5208 44.3823H34.3862V46.4475H36.5208V44.3823Z" fill="#263140" stroke="white" stroke-width="0.4" />
	<path d="M36.5208 48.5129H34.3862V50.5781H36.5208V48.5129Z" fill="#263140" stroke="white" stroke-width="0.4" />
	<path d="M36.5208 52.6431H34.3862V54.7082H36.5208V52.6431Z" fill="#263140" stroke="white" stroke-width="0.4" />
	<path d="M36.5208 56.7732H34.3862V58.8383H36.5208V56.7732Z" fill="#263140" stroke="white" stroke-width="0.4" />
</svg>
