<svg width="70" height="70" viewBox="0 0 70 70" fill="none" xmlns="http://www.w3.org/2000/svg">
	<path d="M30.8434 33.0586C29.3669 32.1015 27.3981 32.4297 26.3317 33.8242L20.863 40.9609C19.277 42.8203 17.7731 43.8593 16.57 43.914C15.8864 43.9414 15.2575 43.6953 14.6559 43.1211C13.7536 42.2734 13.2341 41.0429 13.2341 39.7304V27.6445C13.2341 27.0703 12.8512 26.5507 12.3044 26.3593C11.7575 26.1953 11.1286 26.414 10.8005 26.8789L1.77703 40.1679C1.06609 41.2343 0.792651 42.5742 1.03874 43.832L4.86687 62.2617V63.6289C4.86687 64.3672 5.46843 64.9687 6.20671 64.9687H25.5387C26.2223 64.9687 26.7966 64.4492 26.8786 63.7656L27.6442 55.2617C28.027 51.1601 28.9841 47.1679 30.5153 43.4492C30.7614 42.8476 31.0075 42.2461 31.2536 41.6718C31.7731 40.4414 32.238 39.2929 32.5934 38.3086C33.3044 36.3398 32.5934 34.1797 30.8434 33.0586ZM30.1052 37.3789C29.777 38.3086 29.2848 39.4297 28.7927 40.6328C28.5466 41.207 28.3005 41.8086 28.0544 42.4375C26.4137 46.4297 25.402 50.6679 24.9919 55.0429L24.3356 62.3164H7.54656V62.1523C7.54656 62.0703 7.54656 61.9609 7.51921 61.8789L3.6364 43.3125C3.52703 42.7656 3.6364 42.164 3.96453 41.6992L10.527 31.9922V39.7304C10.527 41.7812 11.3747 43.75 12.8239 45.0898C13.9723 46.1562 15.3122 46.6484 16.7067 46.5664C18.7028 46.457 20.7809 45.1445 22.9137 42.6289L28.4372 35.4648C28.6559 35.164 29.0661 35.1093 29.3669 35.3007C30.0778 35.7382 30.3786 36.5859 30.1052 37.3789Z" fill="#263140" stroke="#F7FAFC" stroke-width="1.5" />
	<path d="M60.1011 18.8672C58.7612 18.8672 57.4761 19.168 56.3003 19.7148V6.34375C56.3003 5.98828 56.1636 5.66016 55.9175 5.38672C55.6714 5.14063 55.3159 5.00391 54.9604 5.00391H39.019C38.4995 5.00391 38.0073 5.33203 37.7886 5.79688C37.5698 6.28906 37.6792 6.86328 38.0347 7.24609C39.1284 8.42188 39.73 9.92578 39.73 11.5391C39.73 15.0117 36.9136 17.8281 33.4409 17.8281C29.9683 17.8281 27.1519 15.0117 27.1519 11.5391C27.1519 9.95313 27.7534 8.42188 28.8472 7.24609C29.2026 6.86328 29.312 6.28906 29.0933 5.79688C28.8745 5.30469 28.4097 5.00391 27.8628 5.00391H11.812C11.4565 5.00391 11.1284 5.14063 10.855 5.38672C10.5815 5.63281 10.4722 5.98828 10.4722 6.34375V22.1484C10.4722 22.8867 11.0737 23.4883 11.812 23.4883C12.5503 23.4883 13.1519 22.8867 13.1519 22.1484V7.65625H25.3745C24.8003 8.85938 24.4995 10.1719 24.4995 11.5117C24.4995 16.4609 28.519 20.4531 33.4683 20.4531C38.4175 20.4531 42.4097 16.4336 42.4097 11.4844C42.4097 10.1172 42.1089 8.80469 41.5347 7.62891H53.6479V22.1211C53.6479 22.6406 53.9487 23.1328 54.4409 23.3516C54.9331 23.5703 55.48 23.4609 55.8901 23.1055C57.0386 22.0391 58.5425 21.4648 60.1284 21.4648C63.6011 21.4648 66.4175 24.2812 66.4175 27.7539C66.4175 29.4219 65.7612 31.0078 64.5854 32.2109C63.4097 33.3867 61.8237 34.043 60.1284 34.043C58.5698 34.043 57.0659 33.4688 55.8901 32.4023C55.5073 32.0469 54.9331 31.9648 54.4409 32.1562C53.9487 32.375 53.6479 32.8398 53.6479 33.3867V48.0977H32.73C31.9917 48.0977 31.3901 48.6992 31.3901 49.4375C31.3901 50.1758 31.9917 50.7773 32.73 50.7773H54.9878C55.3433 50.7773 55.6714 50.6406 55.9448 50.3945C56.1909 50.1484 56.3276 49.793 56.3276 49.4375V35.875C57.5034 36.4219 58.7886 36.7227 60.1284 36.7227C62.5073 36.7227 64.7769 35.793 66.4722 34.0977C68.1675 32.4023 69.0972 30.1602 69.0972 27.7539C69.0698 22.8867 65.0503 18.8672 60.1011 18.8672Z" fill="#4DBD94" stroke="#F7FAFC" stroke-width="1.5" />
</svg>
