<svg width="180" height="175" viewBox="0 0 180 175" fill="none" xmlns="http://www.w3.org/2000/svg">
  <path opacity="0.2" d="M88.6912 23.077C70.1641 41.218 70.1641 70.6411 88.6912 88.8462C107.218 106.987 137.267 106.987 155.86 88.8462C174.387 70.7052 174.387 41.2821 155.86 23.077C137.267 4.93594 107.218 4.93594 88.6912 23.077Z" fill="white"/>
  <path opacity="0.2" d="M93.0114 27.3079C76.8412 43.1412 76.8412 68.7181 93.0114 84.5515C109.182 100.385 135.303 100.385 151.473 84.5515C167.643 68.7181 167.643 43.1412 151.473 27.3079C135.303 11.5386 109.182 11.5386 93.0114 27.3079Z" fill="white"/>
  <path opacity="0.2" d="M106.366 23.5897C99.9508 29.8718 99.9508 40.0641 106.366 46.3461C112.782 52.6282 123.191 52.6282 129.607 46.3461C136.023 40.0641 136.023 29.8718 129.607 23.5897C123.191 17.3077 112.782 17.3077 106.366 23.5897Z" fill="white"/>
  <path opacity="0.2" d="M126.726 36.3462C123.518 39.4873 123.518 44.6155 126.726 47.7565C129.934 50.8975 135.106 50.8975 138.379 47.7565C141.587 44.6155 141.587 39.4873 138.379 36.3462C135.171 33.2052 129.934 33.2052 126.726 36.3462Z" fill="white"/>
  <path opacity="0.2" d="M109.444 80.1924C107.021 82.5642 107.021 86.4104 109.444 88.7822C111.866 91.154 115.794 91.154 118.216 88.7822C120.638 86.4104 120.638 82.5642 118.216 80.1924C115.728 77.8206 111.8 77.8206 109.444 80.1924Z" fill="white"/>
  <path d="M60.017 126.667C57.2674 129.359 52.7503 129.359 50.0007 126.667C47.2511 123.974 47.2511 119.551 50.0007 116.859L76.9074 90.5129C79.657 87.8206 84.1742 87.8206 86.9237 90.5129C89.6733 93.2052 89.6733 97.6283 86.9237 100.321L60.017 126.667Z" fill="#2D3B4D"/>
  <path opacity="0.1" d="M87.5784 91.154C87.382 90.8976 87.1855 90.7053 86.9892 90.513C86.0072 89.5515 84.7633 88.9105 83.454 88.6541L50.6553 120.769L54.6487 123.462L87.5784 91.154Z" fill="#2D3B4D"/>
  <path opacity="0.1" d="M76.9075 90.513L50.0008 116.859C49.4116 117.436 48.9533 118.077 48.626 118.782L49.0188 119.167L80.1808 88.6541C79.0024 88.9746 77.8895 89.5515 76.9075 90.513Z" fill="white"/>
  <path opacity="0.1" d="M88.4288 92.5645L55.1719 125.129L55.9575 125.898L88.8871 93.6542C88.6907 93.3337 88.5598 92.9491 88.4288 92.5645Z" fill="#2D3B4D"/>
  <path opacity="0.4" d="M89.0187 94.7437L63.6832 119.551C63.0285 118.205 62.112 116.987 60.999 115.898C59.166 114.103 57.0056 112.885 54.6488 112.244L50.5899 116.218L50.0007 116.795C47.2511 119.487 47.2511 123.91 50.0007 126.603C52.7503 129.295 57.2674 129.295 60.017 126.603L86.9237 100.256C88.4949 98.7821 89.2151 96.7308 89.0187 94.7437Z" fill="#2D3B4D"/>
  <path d="M23.945 171.09C18.6422 176.282 10.0006 176.282 4.63236 171.09C-0.670422 165.897 -0.670422 157.436 4.63236 152.18L39.9842 117.564C45.287 112.372 53.9286 112.372 59.2968 117.564C64.5996 122.756 64.5996 131.218 59.2968 136.474L23.945 171.09Z" fill="#49B48A"/>
  <path d="M59.559 117.885C61.2611 122.564 60.1482 128.013 56.3512 131.731L20.9993 166.346C15.6965 171.538 7.05492 171.538 1.68667 166.346C1.6212 166.282 1.49027 166.154 1.4248 166.026C2.07947 167.885 3.12693 169.615 4.63266 171.09C9.93544 176.282 18.577 176.282 23.9453 171.09L59.2971 136.474C64.469 131.346 64.5999 123.141 59.559 117.885Z" fill="#34926D"/>
  <path d="M44.5016 114.679C42.865 115.32 41.3592 116.282 39.9844 117.628L4.63255 152.244C3.32322 153.526 2.34122 155.064 1.62109 156.667L44.5016 114.679Z" fill="#6CCDA7"/>
  <path opacity="0.2" d="M122.275 108.974C114.55 108.974 106.76 107.372 99.4932 104.038C98.6421 103.654 98.2493 102.628 98.6421 101.795C99.0349 100.962 100.082 100.577 100.933 100.962C116.58 108.013 134.583 106.923 149.182 98.0128C149.968 97.5 151.081 97.7564 151.539 98.5257C152.063 99.2949 151.801 100.385 151.015 100.833C142.243 106.218 132.292 108.974 122.275 108.974ZM154.485 98.1411C153.961 98.1411 153.438 97.9487 153.11 97.5C152.521 96.7308 152.652 95.7051 153.438 95.1282C155.074 93.9103 156.645 92.5 158.151 91.0898C158.806 90.4487 159.919 90.4487 160.573 91.0898C161.228 91.7308 161.228 92.8205 160.573 93.4616C159.002 95 157.3 96.4744 155.598 97.8205C155.205 98.0128 154.812 98.1411 154.485 98.1411ZM74.9432 79.8077C74.2886 79.8077 73.6994 79.4231 73.372 78.8462C63.4866 58.5898 67.7419 34.2949 83.9121 18.4615C96.3508 6.28206 114.158 0.769238 131.572 3.71796C132.488 3.91026 133.143 4.7436 133.012 5.70514C132.816 6.60257 131.965 7.2436 130.983 7.11539C114.681 4.35898 97.9874 9.48719 86.3344 20.8974C71.1462 35.7692 67.2182 58.4616 76.449 77.4359C76.8418 78.2692 76.5144 79.2949 75.6634 79.6795C75.467 79.7436 75.2051 79.8077 74.9432 79.8077ZM159.329 21.3462C158.871 21.3462 158.413 21.1539 158.086 20.8333C153.896 16.7308 149.051 13.3974 143.748 10.9615C142.897 10.5769 142.505 9.55129 142.897 8.71796C143.29 7.88462 144.338 7.50001 145.189 7.88462C150.884 10.5128 155.991 14.0385 160.508 18.3974C161.163 19.0385 161.163 20.1282 160.508 20.7692C160.181 21.1539 159.788 21.3462 159.329 21.3462Z" fill="white"/>
  <path d="M162.668 16.3462C140.409 -5.44872 104.141 -5.44872 81.817 16.3462C59.5584 38.141 59.5584 73.6538 81.817 95.5128C104.076 117.308 140.344 117.308 162.668 95.5128C184.927 73.7179 184.927 38.2051 162.668 16.3462ZM89.2147 88.2692C71.015 70.4487 71.015 41.4102 89.2147 23.5897C107.414 5.76923 137.071 5.76923 155.27 23.5897C173.47 41.4102 173.47 70.4487 155.27 88.2692C137.071 106.154 107.414 106.154 89.2147 88.2692Z" fill="#3F5066"/>
  <path d="M112.132 41.5332V42.8422H105.587V47.0311H111.827V48.3401H105.587V52.7034H112.263V54.0125H103.973V41.5332H112.132ZM114.532 54.0125V44.8494H115.623L115.911 46.0188C116.714 45.2392 117.679 44.8494 118.808 44.8494V46.1933C117.714 46.1933 116.827 46.5802 116.146 47.354V54.0125H114.532ZM120.431 54.0125V44.8494H121.522L121.81 46.0188C122.613 45.2392 123.579 44.8494 124.707 44.8494V46.1933C123.614 46.1933 122.726 46.5802 122.046 47.354V54.0125H120.431ZM127.509 49.396C127.509 51.601 128.425 52.7034 130.258 52.7034C132.09 52.7034 133.006 51.601 133.006 49.396C133.006 47.2376 132.09 46.1584 130.258 46.1584C128.425 46.1584 127.509 47.2376 127.509 49.396ZM125.894 49.4309C125.894 46.3766 127.349 44.8494 130.258 44.8494C133.166 44.8494 134.621 46.3766 134.621 49.4309C134.621 52.4795 133.166 54.0037 130.258 54.0037C127.36 54.0037 125.906 52.4795 125.894 49.4309ZM136.803 54.0125V44.8494H137.893L138.181 46.0188C138.984 45.2392 139.95 44.8494 141.079 44.8494V46.1933C139.985 46.1933 139.098 46.5802 138.417 47.354V54.0125H136.803Z" fill="#3F5066"/>
  <path d="M113.685 75.0125H112.071V72.0454H105.509V70.7364L110.526 62.5332H112.219L107.193 70.7364H112.071V66.3032H113.685V70.7364L114.977 71.3996V72.0454H113.685V75.0125ZM118.293 68.7379C118.293 72.1065 119.524 73.7907 121.985 73.7907C124.382 73.7907 125.58 72.1065 125.58 68.7379C125.58 65.416 124.382 63.755 121.985 63.755C119.524 63.755 118.293 65.416 118.293 68.7379ZM116.591 68.7903C116.591 64.5607 118.389 62.446 121.985 62.446C125.516 62.446 127.282 64.5607 127.282 68.7903C127.282 72.9966 125.516 75.0997 121.985 75.0997C118.389 75.0997 116.591 72.9966 116.591 68.7903ZM136.951 75.0125H135.337V72.0454H128.774V70.7364L133.792 62.5332H135.485L130.458 70.7364H135.337V66.3032H136.951V70.7364L138.243 71.3996V72.0454H136.951V75.0125Z" fill="#0C9DCD"/>
</svg>
