<svg width="56" height="56" viewBox="0 0 56 56" fill="none" xmlns="http://www.w3.org/2000/svg">
	<circle cx="28" cy="28" r="28" fill="white" />
	<circle cx="28" cy="28" r="25" fill="#00A0DC" />
	<path d="M37.7221 29.8849V36.3333H33.8522V30.3168C33.8522 28.8054 33.2924 27.774 31.8917 27.774C30.8223 27.774 30.186 28.4691 29.906 29.1415C29.804 29.3819 29.7777 29.7165 29.7777 30.053V36.3333H25.9065C25.9065 36.3333 25.9586 26.1434 25.9065 25.0876H29.7773V26.6816C29.7694 26.6936 29.7592 26.7064 29.7519 26.718H29.7773V26.6816C30.2916 25.9165 31.21 24.8234 33.2658 24.8234C35.8127 24.8234 37.7221 26.4307 37.7221 29.8849ZM21.8571 19.6666C20.5327 19.6666 19.6665 20.5058 19.6665 21.6092C19.6665 22.6887 20.5077 23.5533 21.8057 23.5533H21.8315C23.1815 23.5533 24.0211 22.6888 24.0211 21.6092C23.9956 20.5058 23.1815 19.6666 21.8571 19.6666ZM19.8964 36.3333H23.7661V25.0876H19.8964V36.3333Z" fill="white" />
</svg>
