<svg width="36" height="36" viewBox="0 0 36 36" fill="none" xmlns="http://www.w3.org/2000/svg" xmlns:xlink="http://www.w3.org/1999/xlink">
	<circle cx="18" cy="18" r="18" fill="#00A0DC" />
	<path d="M25 19.3572V24H22.2137V19.6681C22.2137 18.5799 21.8107 17.8373 20.8021 17.8373C20.0322 17.8373 19.574 18.3378 19.3725 18.8219C19.299 18.995 19.28 19.2359 19.28 19.4782V24H16.4928C16.4928 24 16.5303 16.6632 16.4928 15.9031H19.2798V17.0508C19.2741 17.0594 19.2668 17.0686 19.2615 17.077H19.2798V17.0508C19.6501 16.4999 20.3113 15.7129 21.7915 15.7129C23.6253 15.7129 25 16.8701 25 19.3572ZM13.5772 12C12.6237 12 12 12.6042 12 13.3987C12 14.1759 12.6056 14.7984 13.5402 14.7984H13.5588C14.5308 14.7984 15.1353 14.176 15.1353 13.3987C15.117 12.6042 14.5308 12 13.5772 12ZM12.1655 24H14.9517V15.9031H12.1655V24Z" fill="white" />
</svg>
