<svg width="48" height="60" viewBox="0 0 48 60" fill="none" xmlns="http://www.w3.org/2000/svg">
	<path d="M46.2812 59.0627H5.59375C5.059 59.0627 4.625 58.6287 4.625 58.094C4.625 57.5592 5.059 57.1252 5.59375 57.1252H45.3125V5.78149C45.3125 5.24674 45.7465 4.81274 46.2812 4.81274C46.816 4.81274 47.25 5.24674 47.25 5.78149V58.094C47.25 58.6287 46.816 59.0627 46.2812 59.0627Z" fill="#263140" stroke="#F7FAFC" />
	<path d="M42.4062 55.1875H1.71875C1.184 55.1875 0.75 54.7535 0.75 54.2187V13.5312C0.75 12.9965 1.184 12.5625 1.71875 12.5625C2.2535 12.5625 2.6875 12.9965 2.6875 13.5312V53.25H41.4375V2.875H17.2188C16.684 2.875 16.25 2.441 16.25 1.90625C16.25 1.3715 16.684 0.9375 17.2188 0.9375H42.4062C42.941 0.9375 43.375 1.3715 43.375 1.90625V54.2187C43.375 54.7535 42.941 55.1875 42.4062 55.1875Z" fill="#263140" stroke="#F7FAFC" />
	<path d="M13.3437 14.5001H1.75937C1.368 14.5001 1.01537 14.2637 0.866185 13.9014C0.71506 13.5411 0.798372 13.1245 1.0735 12.8474L12.6578 1.22243C12.9349 0.94149 13.3534 0.862052 13.7137 1.01124C14.0761 1.16043 14.3124 1.51499 14.3124 1.90636V13.5314C14.3124 14.0661 13.8784 14.5001 13.3437 14.5001ZM4.09406 12.5626H12.3749V4.25074L4.09406 12.5626Z" fill="#263140" stroke="#F7FAFC" />
	<path d="M7.53125 28.0625H23.0312C23.566 28.0625 24 27.6285 24 27.0938C24 26.559 23.566 26.125 23.0312 26.125H7.53125C6.9965 26.125 6.5625 26.559 6.5625 27.0938C6.5625 27.6285 6.9965 28.0625 7.53125 28.0625Z" fill="#4DBD94" stroke="#EEF6F6" />
	<path d="M7.53125 31.9375H17.2188C17.7535 31.9375 18.1875 31.5035 18.1875 30.9688C18.1875 30.434 17.7535 30 17.2188 30H7.53125C6.9965 30 6.5625 30.434 6.5625 30.9688C6.5625 31.5035 6.9965 31.9375 7.53125 31.9375Z" fill="#4DBD94" stroke="#EEF6F6" />
	<path d="M21.0938 31.9375H36.5938C37.1285 31.9375 37.5625 31.5035 37.5625 30.9688C37.5625 30.434 37.1285 30 36.5938 30H21.0938C20.559 30 20.125 30.434 20.125 30.9688C20.125 31.5035 20.559 31.9375 21.0938 31.9375Z" fill="#4DBD94" stroke="#EEF6F6" />
	<path d="M7.53125 39.6875H21.0938C21.6285 39.6875 22.0625 39.2535 22.0625 38.7188C22.0625 38.184 21.6285 37.75 21.0938 37.75H7.53125C6.9965 37.75 6.5625 38.184 6.5625 38.7188C6.5625 39.2535 6.9965 39.6875 7.53125 39.6875Z" fill="#4DBD94" stroke="#EEF6F6" />
	<path d="M7.53125 35.8125H26.9062C27.441 35.8125 27.875 35.3785 27.875 34.8438C27.875 34.309 27.441 33.875 26.9062 33.875H7.53125C6.9965 33.875 6.5625 34.309 6.5625 34.8438C6.5625 35.3785 6.9965 35.8125 7.53125 35.8125Z" fill="#4DBD94" stroke="#EEF6F6" />
	<path d="M30.7812 35.8125H36.5938C37.1285 35.8125 37.5625 35.3785 37.5625 34.8438C37.5625 34.309 37.1285 33.875 36.5938 33.875H30.7812C30.2465 33.875 29.8125 34.309 29.8125 34.8438C29.8125 35.3785 30.2465 35.8125 30.7812 35.8125Z" fill="#4DBD94" stroke="#EEF6F6" />
	<path d="M26.9062 28.0625H36.5938C37.1285 28.0625 37.5625 27.6285 37.5625 27.0938C37.5625 26.559 37.1285 26.125 36.5938 26.125H26.9062C26.3715 26.125 25.9375 26.559 25.9375 27.0938C25.9375 27.6285 26.3715 28.0625 26.9062 28.0625Z" fill="#4DBD94" stroke="#EEF6F6" />
	<path d="M11.4062 20.3125H36.5938C37.1285 20.3125 37.5625 19.8785 37.5625 19.3438C37.5625 18.809 37.1285 18.375 36.5938 18.375H11.4062C10.8715 18.375 10.4375 18.809 10.4375 19.3438C10.4375 19.8785 10.8715 20.3125 11.4062 20.3125Z" fill="#4DBD94" stroke="#EEF6F6" />
	<path d="M7.53125 24.1875H36.5938C37.1285 24.1875 37.5625 23.7535 37.5625 23.2188C37.5625 22.684 37.1285 22.25 36.5938 22.25H7.53125C6.9965 22.25 6.5625 22.684 6.5625 23.2188C6.5625 23.7535 6.9965 24.1875 7.53125 24.1875Z" fill="#4DBD94" stroke="#EEF6F6" />
</svg>
