<svg width="66" height="66" viewBox="0 0 66 66" fill="none" xmlns="http://www.w3.org/2000/svg">
	<path d="M33 63.9375C15.9411 63.9375 2.0625 50.0589 2.0625 33C2.0625 25.4801 4.79119 18.2325 9.74944 12.5916C10.1269 12.1646 10.7786 12.1254 11.2056 12.4987C11.6325 12.8741 11.6737 13.5279 11.3004 13.9549C6.67219 19.2163 4.125 25.9813 4.125 33C4.125 48.9225 17.0775 61.875 33 61.875C48.9225 61.875 61.875 48.9225 61.875 33C61.875 17.0775 48.9225 4.125 33 4.125C27.8355 4.125 22.77 5.50275 18.3501 8.11181C17.8654 8.39437 17.2301 8.23762 16.9393 7.74675C16.6485 7.25794 16.8114 6.62475 17.3044 6.33394C22.0399 3.53925 27.4663 2.0625 33 2.0625C50.0589 2.0625 63.9375 15.9411 63.9375 33C63.9375 50.0589 50.0589 63.9375 33 63.9375Z" fill="#263140" />
	<path d="M33 58.7812C18.7832 58.7812 7.21875 47.2168 7.21875 33C7.21875 18.7832 18.7832 7.21875 33 7.21875C47.2168 7.21875 58.7812 18.7832 58.7812 33C58.7812 47.2168 47.2168 58.7812 33 58.7812ZM33 9.28125C19.9217 9.28125 9.28125 19.9217 9.28125 33C9.28125 46.0783 19.9217 56.7187 33 56.7187C46.0783 56.7187 56.7187 46.0783 56.7187 33C56.7187 19.9217 46.0783 9.28125 33 9.28125Z" fill="#263140" />
	<path d="M42.7969 17.0569C42.5287 17.0569 42.2606 16.9538 42.0729 16.7682C41.8667 16.5619 41.7656 16.2938 41.7656 16.0257C41.7656 15.7575 41.8687 15.4894 42.0729 15.3038C42.4648 14.9119 43.1475 14.9119 43.5167 15.3038C43.725 15.4894 43.8261 15.7575 43.8261 16.0257C43.8261 16.2938 43.725 16.5619 43.5187 16.7475C43.3331 16.9538 43.065 17.0569 42.7969 17.0569Z" fill="#263140" />
	<path d="M23.2031 51.0036C22.935 51.0036 22.6669 50.8798 22.4792 50.6963C22.2729 50.4879 22.1719 50.2219 22.1719 49.9723C22.1719 49.7042 22.275 49.4361 22.4606 49.2319C22.8525 48.8586 23.5537 48.8586 23.925 49.2319C24.1333 49.4381 24.2344 49.7042 24.2344 49.9723C24.2344 50.2198 24.1313 50.4879 23.9436 50.6963C23.7394 50.8819 23.4712 51.0036 23.2031 51.0036Z" fill="#263140" />
	<path d="M49.9723 24.2344C49.7042 24.2344 49.4361 24.1313 49.2504 23.9436C49.0442 23.7373 48.9411 23.4713 48.9411 23.2031C48.9411 22.935 49.0463 22.6669 49.2319 22.4792C49.6423 22.0688 50.3229 22.0894 50.6963 22.4792C50.8819 22.6669 51.0036 22.935 51.0036 23.2031C51.0036 23.4713 50.9004 23.7394 50.6963 23.925C50.5106 24.1313 50.2404 24.2344 49.9723 24.2344Z" fill="#263140" />
	<path d="M16.0257 43.8281C15.7575 43.8281 15.51 43.725 15.3038 43.5373C15.0955 43.3125 14.9944 43.0444 14.9944 42.7969C14.9944 42.5288 15.0975 42.2813 15.2852 42.0729C15.739 41.6625 16.3763 41.6831 16.7702 42.0729C16.9558 42.2606 17.059 42.5288 17.059 42.7969C17.059 43.065 16.9558 43.3331 16.7702 43.5188C16.5619 43.725 16.3144 43.8281 16.0257 43.8281Z" fill="#263140" />
	<path d="M52.5938 34.0313C52.3256 34.0313 52.0575 33.9281 51.8698 33.7219C51.6656 33.5363 51.5625 33.2681 51.5625 33C51.5625 32.7319 51.6656 32.4638 51.8698 32.2761C52.2431 31.8863 52.9238 31.8863 53.3136 32.2554C53.5219 32.4638 53.625 32.7319 53.625 33C53.625 33.2681 53.5219 33.5363 53.3342 33.7219C53.13 33.9281 52.8619 34.0313 52.5938 34.0313Z" fill="#263140" />
	<path d="M13.4062 34.0313C13.1381 34.0313 12.87 33.9281 12.6823 33.7219C12.4781 33.5363 12.375 33.2681 12.375 33C12.375 32.7319 12.4781 32.4638 12.6823 32.2761C13.0556 31.8863 13.7362 31.8863 14.1261 32.2554C14.3344 32.4638 14.4375 32.7319 14.4375 33C14.4375 33.2681 14.3344 33.5363 14.1467 33.7219C13.9425 33.9281 13.6744 34.0313 13.4062 34.0313Z" fill="#263140" />
	<path d="M49.9723 43.8281C49.7042 43.8281 49.4361 43.725 49.2319 43.5373C49.0463 43.3311 48.9411 43.065 48.9411 42.7969C48.9411 42.5288 49.0463 42.2606 49.2319 42.0729C49.6423 41.6625 50.3229 41.6831 50.6963 42.0729C50.8819 42.2606 51.0036 42.5288 51.0036 42.7969C51.0036 43.065 50.9004 43.3331 50.6963 43.5188C50.5106 43.725 50.2404 43.8281 49.9723 43.8281Z" fill="#263140" />
	<path d="M16.0257 24.2344C15.7575 24.2344 15.51 24.1313 15.3038 23.9436C15.0955 23.7188 14.9944 23.4506 14.9944 23.2031C14.9944 22.935 15.0975 22.6875 15.2852 22.4792C15.739 22.0688 16.3763 22.0894 16.7702 22.4792C16.9558 22.6669 17.059 22.935 17.059 23.2031C17.059 23.4713 16.9558 23.7394 16.7702 23.925C16.5619 24.1313 16.2917 24.2344 16.0257 24.2344Z" fill="#263140" />
	<path d="M42.7969 51.0036C42.5287 51.0036 42.2606 50.9005 42.0729 50.7149C41.8667 50.488 41.7656 50.2405 41.7656 49.9724C41.7656 49.7042 41.8687 49.4361 42.0544 49.2319C42.4669 48.8401 43.1289 48.8586 43.5188 49.2319C43.7271 49.4382 43.8281 49.7042 43.8281 49.9724C43.8281 50.2199 43.725 50.488 43.5373 50.6963C43.3331 50.9026 43.065 51.0036 42.7969 51.0036Z" fill="#263140" />
	<path d="M23.2031 17.0569C22.935 17.0569 22.6669 16.9538 22.4792 16.7496C22.275 16.5619 22.1719 16.2917 22.1719 16.0257C22.1719 15.7596 22.275 15.4894 22.4792 15.3038C22.8525 14.9119 23.5331 14.9119 23.9229 15.2832C24.1313 15.4894 24.2323 15.7555 24.2323 16.0236C24.2323 16.2917 24.1313 16.5619 23.925 16.7475C23.7188 16.9538 23.4712 17.0569 23.2031 17.0569Z" fill="#263140" />
	<path d="M33 53.625C32.7319 53.625 32.4844 53.5219 32.2761 53.3342C32.0719 53.1094 31.9687 52.8619 31.9687 52.5938C31.9687 52.3256 32.0719 52.0575 32.2575 51.8698C32.6906 51.4594 33.3506 51.48 33.7219 51.8698C33.9281 52.0575 34.0312 52.3256 34.0312 52.5938C34.0312 52.8619 33.9281 53.13 33.7219 53.3156C33.5362 53.5219 33.2681 53.625 33 53.625Z" fill="#263140" />
	<path d="M33 14.4375C32.7319 14.4375 32.4844 14.3344 32.2761 14.1467C32.0719 13.9425 31.9687 13.6744 31.9687 13.4063C31.9687 13.1154 32.0719 12.87 32.2575 12.6823C32.6906 12.2719 33.3506 12.2925 33.7219 12.6823C33.9281 12.87 34.0312 13.1381 34.0312 13.4063C34.0312 13.6744 33.9281 13.9425 33.7404 14.1281C33.5362 14.3344 33.2681 14.4375 33 14.4375Z" fill="#263140" />
	<path d="M33 63.9375C15.9411 63.9375 2.0625 50.0589 2.0625 33C2.0625 25.4801 4.79119 18.2325 9.74944 12.5916C10.1269 12.1646 10.7786 12.1254 11.2056 12.4987C11.6325 12.8741 11.6737 13.5279 11.3004 13.9549C6.67219 19.2163 4.125 25.9813 4.125 33C4.125 48.9225 17.0775 61.875 33 61.875C48.9225 61.875 61.875 48.9225 61.875 33C61.875 17.0775 48.9225 4.125 33 4.125C27.8355 4.125 22.77 5.50275 18.3501 8.11181C17.8654 8.39437 17.2301 8.23762 16.9393 7.74675C16.6485 7.25794 16.8114 6.62475 17.3044 6.33394C22.0399 3.53925 27.4663 2.0625 33 2.0625C50.0589 2.0625 63.9375 15.9411 63.9375 33C63.9375 50.0589 50.0589 63.9375 33 63.9375Z" stroke="#F7FAFC" />
	<path d="M33 58.7812C18.7832 58.7812 7.21875 47.2168 7.21875 33C7.21875 18.7832 18.7832 7.21875 33 7.21875C47.2168 7.21875 58.7812 18.7832 58.7812 33C58.7812 47.2168 47.2168 58.7812 33 58.7812ZM33 9.28125C19.9217 9.28125 9.28125 19.9217 9.28125 33C9.28125 46.0783 19.9217 56.7187 33 56.7187C46.0783 56.7187 56.7187 46.0783 56.7187 33C56.7187 19.9217 46.0783 9.28125 33 9.28125Z" stroke="#F7FAFC" />
	<path d="M42.7969 17.0569C42.5287 17.0569 42.2606 16.9538 42.0729 16.7682C41.8667 16.5619 41.7656 16.2938 41.7656 16.0257C41.7656 15.7575 41.8687 15.4894 42.0729 15.3038C42.4648 14.9119 43.1475 14.9119 43.5167 15.3038C43.725 15.4894 43.8261 15.7575 43.8261 16.0257C43.8261 16.2938 43.725 16.5619 43.5187 16.7475C43.3331 16.9538 43.065 17.0569 42.7969 17.0569Z" stroke="#F7FAFC" />
	<path d="M23.2031 51.0036C22.935 51.0036 22.6669 50.8798 22.4792 50.6963C22.2729 50.4879 22.1719 50.2219 22.1719 49.9723C22.1719 49.7042 22.275 49.4361 22.4606 49.2319C22.8525 48.8586 23.5537 48.8586 23.925 49.2319C24.1333 49.4381 24.2344 49.7042 24.2344 49.9723C24.2344 50.2198 24.1313 50.4879 23.9436 50.6963C23.7394 50.8819 23.4712 51.0036 23.2031 51.0036Z" stroke="#F7FAFC" />
	<path d="M49.9723 24.2344C49.7042 24.2344 49.4361 24.1313 49.2504 23.9436C49.0442 23.7373 48.9411 23.4713 48.9411 23.2031C48.9411 22.935 49.0463 22.6669 49.2319 22.4792C49.6423 22.0688 50.3229 22.0894 50.6963 22.4792C50.8819 22.6669 51.0036 22.935 51.0036 23.2031C51.0036 23.4713 50.9004 23.7394 50.6963 23.925C50.5106 24.1313 50.2404 24.2344 49.9723 24.2344Z" stroke="#F7FAFC" />
	<path d="M16.0257 43.8281C15.7575 43.8281 15.51 43.725 15.3038 43.5373C15.0955 43.3125 14.9944 43.0444 14.9944 42.7969C14.9944 42.5288 15.0975 42.2813 15.2852 42.0729C15.739 41.6625 16.3763 41.6831 16.7702 42.0729C16.9558 42.2606 17.059 42.5288 17.059 42.7969C17.059 43.065 16.9558 43.3331 16.7702 43.5188C16.5619 43.725 16.3144 43.8281 16.0257 43.8281Z" stroke="#F7FAFC" />
	<path d="M52.5938 34.0313C52.3256 34.0313 52.0575 33.9281 51.8698 33.7219C51.6656 33.5363 51.5625 33.2681 51.5625 33C51.5625 32.7319 51.6656 32.4638 51.8698 32.2761C52.2431 31.8863 52.9238 31.8863 53.3136 32.2554C53.5219 32.4638 53.625 32.7319 53.625 33C53.625 33.2681 53.5219 33.5363 53.3342 33.7219C53.13 33.9281 52.8619 34.0313 52.5938 34.0313Z" stroke="#F7FAFC" />
	<path d="M13.4062 34.0313C13.1381 34.0313 12.87 33.9281 12.6823 33.7219C12.4781 33.5363 12.375 33.2681 12.375 33C12.375 32.7319 12.4781 32.4638 12.6823 32.2761C13.0556 31.8863 13.7362 31.8863 14.1261 32.2554C14.3344 32.4638 14.4375 32.7319 14.4375 33C14.4375 33.2681 14.3344 33.5363 14.1467 33.7219C13.9425 33.9281 13.6744 34.0313 13.4062 34.0313Z" stroke="#F7FAFC" />
	<path d="M49.9723 43.8281C49.7042 43.8281 49.4361 43.725 49.2319 43.5373C49.0463 43.3311 48.9411 43.065 48.9411 42.7969C48.9411 42.5288 49.0463 42.2606 49.2319 42.0729C49.6423 41.6625 50.3229 41.6831 50.6963 42.0729C50.8819 42.2606 51.0036 42.5288 51.0036 42.7969C51.0036 43.065 50.9004 43.3331 50.6963 43.5188C50.5106 43.725 50.2404 43.8281 49.9723 43.8281Z" stroke="#F7FAFC" />
	<path d="M16.0257 24.2344C15.7575 24.2344 15.51 24.1313 15.3038 23.9436C15.0955 23.7188 14.9944 23.4506 14.9944 23.2031C14.9944 22.935 15.0975 22.6875 15.2852 22.4792C15.739 22.0688 16.3763 22.0894 16.7702 22.4792C16.9558 22.6669 17.059 22.935 17.059 23.2031C17.059 23.4713 16.9558 23.7394 16.7702 23.925C16.5619 24.1313 16.2917 24.2344 16.0257 24.2344Z" stroke="#F7FAFC" />
	<path d="M42.7969 51.0036C42.5287 51.0036 42.2606 50.9005 42.0729 50.7149C41.8667 50.488 41.7656 50.2405 41.7656 49.9724C41.7656 49.7042 41.8687 49.4361 42.0544 49.2319C42.4669 48.8401 43.1289 48.8586 43.5188 49.2319C43.7271 49.4382 43.8281 49.7042 43.8281 49.9724C43.8281 50.2199 43.725 50.488 43.5373 50.6963C43.3331 50.9026 43.065 51.0036 42.7969 51.0036Z" stroke="#F7FAFC" />
	<path d="M23.2031 17.0569C22.935 17.0569 22.6669 16.9538 22.4792 16.7496C22.275 16.5619 22.1719 16.2917 22.1719 16.0257C22.1719 15.7596 22.275 15.4894 22.4792 15.3038C22.8525 14.9119 23.5331 14.9119 23.9229 15.2832C24.1313 15.4894 24.2323 15.7555 24.2323 16.0236C24.2323 16.2917 24.1313 16.5619 23.925 16.7475C23.7188 16.9538 23.4712 17.0569 23.2031 17.0569Z" stroke="#F7FAFC" />
	<path d="M33 53.625C32.7319 53.625 32.4844 53.5219 32.2761 53.3342C32.0719 53.1094 31.9687 52.8619 31.9687 52.5938C31.9687 52.3256 32.0719 52.0575 32.2575 51.8698C32.6906 51.4594 33.3506 51.48 33.7219 51.8698C33.9281 52.0575 34.0312 52.3256 34.0312 52.5938C34.0312 52.8619 33.9281 53.13 33.7219 53.3156C33.5362 53.5219 33.2681 53.625 33 53.625Z" stroke="#F7FAFC" />
	<path d="M33 14.4375C32.7319 14.4375 32.4844 14.3344 32.2761 14.1467C32.0719 13.9425 31.9687 13.6744 31.9687 13.4063C31.9687 13.1154 32.0719 12.87 32.2575 12.6823C32.6906 12.2719 33.3506 12.2925 33.7219 12.6823C33.9281 12.87 34.0312 13.1381 34.0312 13.4063C34.0312 13.6744 33.9281 13.9425 33.7404 14.1281C33.5362 14.3344 33.2681 14.4375 33 14.4375Z" stroke="#F7FAFC" />
	<path d="M46.1258 19.8744C45.7236 19.4722 45.0698 19.4722 44.6676 19.8744L33.5033 31.0387C34.2272 31.2264 34.7738 31.773 34.9615 32.4969L46.1258 21.3326C46.5301 20.9283 46.5301 20.2766 46.1258 19.8744Z" fill="#4DBD94" stroke="#F7FAFC" />
	<path d="M32.4968 31.0386L19.8743 18.4161C19.4721 18.014 18.8183 18.014 18.4161 18.4161C18.014 18.8183 18.014 19.4721 18.4161 19.8743L31.0386 32.4968C31.2263 31.7729 31.7729 31.2263 32.4968 31.0386Z" fill="#4DBD94" stroke="#F7FAFC" />
	<path d="M33 36.0938C31.2943 36.0938 29.9062 34.7057 29.9062 33C29.9062 31.2943 31.2943 29.9062 33 29.9062C34.7057 29.9062 36.0938 31.2943 36.0938 33C36.0938 34.7057 34.7057 36.0938 33 36.0938ZM33 31.9688C32.4328 31.9688 31.9688 32.4328 31.9688 33C31.9688 33.5672 32.4328 34.0312 33 34.0312C33.5672 34.0312 34.0312 33.5672 34.0312 33C34.0312 32.4328 33.5672 31.9688 33 31.9688Z" fill="#4DBD94" stroke="#F7FAFC" />
</svg>
