<svg width="64" height="64" viewBox="0 0 64 64" fill="none" xmlns="http://www.w3.org/2000/svg">
	<path d="M23 46C29.6274 46 35 40.6274 35 34C35 27.3726 29.6274 22 23 22C16.3726 22 11 27.3726 11 34C11 40.6274 16.3726 46 23 46Z" fill="#49B48A" />
	<path d="M55.1111 31H40.8889C40.3973 31 40 30.6027 40 30.1111V15.8889C40 15.3973 40.3973 15 40.8889 15H55.1111C55.6027 15 56 15.3973 56 15.8889V30.1111C56 30.6027 55.6027 31 55.1111 31Z" fill="#49B48A" />
	<path d="M59.1875 3.90625H4.8125C4.31225 3.90625 3.90625 4.31225 3.90625 4.8125V59.1875C3.90625 59.6887 4.31225 60.0938 4.8125 60.0938H59.1875C59.6878 60.0938 60.0938 59.6887 60.0938 59.1875V4.8125C60.0938 4.31225 59.6878 3.90625 59.1875 3.90625ZM58.2812 5.71875V11.1562H5.71875V5.71875H58.2812ZM5.71875 58.2812V12.9688H58.2812V58.2812H5.71875Z" fill="#263140" stroke="white" stroke-width="0.7" />
	<path d="M8.4375 9.34375C8.93801 9.34375 9.34375 8.93801 9.34375 8.4375C9.34375 7.93699 8.93801 7.53125 8.4375 7.53125C7.93699 7.53125 7.53125 7.93699 7.53125 8.4375C7.53125 8.93801 7.93699 9.34375 8.4375 9.34375Z" fill="#263140" stroke="white" stroke-width="0.5" />
	<path d="M12.0625 9.34375C12.563 9.34375 12.9688 8.93801 12.9688 8.4375C12.9688 7.93699 12.563 7.53125 12.0625 7.53125C11.562 7.53125 11.1562 7.93699 11.1562 8.4375C11.1562 8.93801 11.562 9.34375 12.0625 9.34375Z" fill="#263140" stroke="white" stroke-width="0.5" />
	<path d="M15.6875 9.34375C16.188 9.34375 16.5938 8.93801 16.5938 8.4375C16.5938 7.93699 16.188 7.53125 15.6875 7.53125C15.187 7.53125 14.7812 7.93699 14.7812 8.4375C14.7812 8.93801 15.187 9.34375 15.6875 9.34375Z" fill="#263140" stroke="white" stroke-width="0.5" />
	<path d="M55.5625 37.4375C56.063 37.4375 56.4688 37.0318 56.4688 36.5312C56.4688 36.0307 56.063 35.625 55.5625 35.625C55.062 35.625 54.6562 36.0307 54.6562 36.5312C54.6562 37.0318 55.062 37.4375 55.5625 37.4375Z" fill="#263140" stroke="white" stroke-width="0.5" />
	<path d="M55.5625 41.0625C56.063 41.0625 56.4688 40.6568 56.4688 40.1562C56.4688 39.6557 56.063 39.25 55.5625 39.25C55.062 39.25 54.6562 39.6557 54.6562 40.1562C54.6562 40.6568 55.062 41.0625 55.5625 41.0625Z" fill="#263140" stroke="white" stroke-width="0.5" />
	<path d="M55.5625 44.6875C56.063 44.6875 56.4688 44.2818 56.4688 43.7812C56.4688 43.2807 56.063 42.875 55.5625 42.875C55.062 42.875 54.6562 43.2807 54.6562 43.7812C54.6562 44.2818 55.062 44.6875 55.5625 44.6875Z" fill="#263140" stroke="white" stroke-width="0.5" />
	<path d="M55.5625 48.3125C56.063 48.3125 56.4688 47.9068 56.4688 47.4062C56.4688 46.9057 56.063 46.5 55.5625 46.5C55.062 46.5 54.6562 46.9057 54.6562 47.4062C54.6562 47.9068 55.062 48.3125 55.5625 48.3125Z" fill="#263140" stroke="white" stroke-width="0.5" />
	<path d="M55.5625 51.9375C56.063 51.9375 56.4688 51.5318 56.4688 51.0312C56.4688 50.5307 56.063 50.125 55.5625 50.125C55.062 50.125 54.6562 50.5307 54.6562 51.0312C54.6562 51.5318 55.062 51.9375 55.5625 51.9375Z" fill="#263140" stroke="white" stroke-width="0.5" />
	<path d="M22.9375 18.4062C14.4423 18.4062 7.53125 25.3173 7.53125 33.8125C7.53125 42.3077 14.4423 49.2188 22.9375 49.2188C31.4327 49.2188 38.3438 42.3077 38.3438 33.8125C38.3438 25.3173 31.4327 18.4062 22.9375 18.4062ZM22.0312 20.265V33.16L9.79778 37.2381C9.51141 36.1407 9.34375 34.997 9.34375 33.8125C9.34375 26.6232 14.958 20.7344 22.0312 20.265ZM22.9375 47.4062C17.2635 47.4062 12.396 43.909 10.3624 38.9591L22.7454 34.832L32.764 43.1804C30.2863 45.7777 26.8018 47.4062 22.9375 47.4062ZM33.9231 41.7866L23.8438 33.3875V20.265C30.917 20.7344 36.5312 26.6232 36.5312 33.8125C36.5312 36.7932 35.5561 39.5436 33.9231 41.7866Z" fill="#263140" stroke="white" stroke-width="0.7" />
	<path d="M27 34C27.5523 34 28 33.5523 28 33C28 32.4477 27.5523 32 27 32C26.4477 32 26 32.4477 26 33C26 33.5523 26.4477 34 27 34Z" fill="white" />
	<path d="M30 34C30.5523 34 31 33.5523 31 33C31 32.4477 30.5523 32 30 32C29.4477 32 29 32.4477 29 33C29 33.5523 29.4477 34 30 34Z" fill="white" />
	<path d="M33 34C33.5523 34 34 33.5523 34 33C34 32.4477 33.5523 32 33 32C32.4477 32 32 32.4477 32 33C32 33.5523 32.4477 34 33 34Z" fill="white" />
	<path d="M27 34C27.5523 34 28 33.5523 28 33C28 32.4477 27.5523 32 27 32C26.4477 32 26 32.4477 26 33C26 33.5523 26.4477 34 27 34Z" stroke="#49B48A" stroke-width="0.5" />
	<path d="M30 34C30.5523 34 31 33.5523 31 33C31 32.4477 30.5523 32 30 32C29.4477 32 29 32.4477 29 33C29 33.5523 29.4477 34 30 34Z" stroke="#49B48A" stroke-width="0.5" />
	<path d="M33 34C33.5523 34 34 33.5523 34 33C34 32.4477 33.5523 32 33 32C32.4477 32 32 32.4477 32 33C32 33.5523 32.4477 34 33 34Z" stroke="#49B48A" stroke-width="0.5" />
	<path d="M51.9375 18.4062H44.6875C44.1873 18.4062 43.7812 18.8123 43.7812 19.3125C43.7812 19.8127 44.1873 20.2188 44.6875 20.2188H51.9375C52.4377 20.2188 52.8438 19.8127 52.8438 19.3125C52.8438 18.8123 52.4377 18.4062 51.9375 18.4062Z" fill="#263140" stroke="white" stroke-width="0.5" />
	<path d="M51.9375 25.6562H44.6875C44.1873 25.6562 43.7812 26.0623 43.7812 26.5625C43.7812 27.0627 44.1873 27.4688 44.6875 27.4688H51.9375C52.4377 27.4688 52.8438 27.0627 52.8438 26.5625C52.8438 26.0623 52.4377 25.6562 51.9375 25.6562Z" fill="#263140" stroke="white" stroke-width="0.5" />
	<path d="M44.6875 23.8438H46.5C47.0003 23.8438 47.4062 23.4377 47.4062 22.9375C47.4062 22.4373 47.0003 22.0312 46.5 22.0312H44.6875C44.1873 22.0312 43.7812 22.4373 43.7812 22.9375C43.7812 23.4377 44.1873 23.8438 44.6875 23.8438Z" fill="#263140" stroke="white" stroke-width="0.5" />
	<path d="M51.9375 22.0312H50.125C49.6248 22.0312 49.2188 22.4373 49.2188 22.9375C49.2188 23.4377 49.6248 23.8438 50.125 23.8438H51.9375C52.4378 23.8438 52.8438 23.4377 52.8438 22.9375C52.8438 22.4373 52.4378 22.0312 51.9375 22.0312Z" fill="#263140" stroke="white" stroke-width="0.5" />
	<path d="M51.9375 18.4062H44.6875C44.1873 18.4062 43.7812 18.8123 43.7812 19.3125C43.7812 19.8127 44.1873 20.2188 44.6875 20.2188H51.9375C52.4377 20.2188 52.8438 19.8127 52.8438 19.3125C52.8438 18.8123 52.4377 18.4062 51.9375 18.4062Z" fill="white" />
	<path d="M51.9375 25.6562H44.6875C44.1873 25.6562 43.7812 26.0623 43.7812 26.5625C43.7812 27.0627 44.1873 27.4688 44.6875 27.4688H51.9375C52.4377 27.4688 52.8438 27.0627 52.8438 26.5625C52.8438 26.0623 52.4377 25.6562 51.9375 25.6562Z" fill="white" />
	<path d="M44.6875 23.8438H46.5C47.0002 23.8438 47.4062 23.4377 47.4062 22.9375C47.4062 22.4373 47.0002 22.0312 46.5 22.0312H44.6875C44.1873 22.0312 43.7812 22.4373 43.7812 22.9375C43.7812 23.4377 44.1873 23.8438 44.6875 23.8438Z" fill="white" />
	<path d="M51.9375 22.0312H50.125C49.6248 22.0312 49.2188 22.4373 49.2188 22.9375C49.2188 23.4377 49.6248 23.8438 50.125 23.8438H51.9375C52.4377 23.8438 52.8438 23.4377 52.8438 22.9375C52.8438 22.4373 52.4377 22.0312 51.9375 22.0312Z" fill="white" />
	<path d="M51.9375 18.4062H44.6875C44.1873 18.4062 43.7812 18.8123 43.7812 19.3125C43.7812 19.8127 44.1873 20.2188 44.6875 20.2188H51.9375C52.4377 20.2188 52.8438 19.8127 52.8438 19.3125C52.8438 18.8123 52.4377 18.4062 51.9375 18.4062Z" stroke="#49B48A" stroke-width="0.5" />
	<path d="M51.9375 25.6562H44.6875C44.1873 25.6562 43.7812 26.0623 43.7812 26.5625C43.7812 27.0627 44.1873 27.4688 44.6875 27.4688H51.9375C52.4377 27.4688 52.8438 27.0627 52.8438 26.5625C52.8438 26.0623 52.4377 25.6562 51.9375 25.6562Z" stroke="#49B48A" stroke-width="0.5" />
	<path d="M44.6875 23.8438H46.5C47.0002 23.8438 47.4062 23.4377 47.4062 22.9375C47.4062 22.4373 47.0002 22.0312 46.5 22.0312H44.6875C44.1873 22.0312 43.7812 22.4373 43.7812 22.9375C43.7812 23.4377 44.1873 23.8438 44.6875 23.8438Z" stroke="#49B48A" stroke-width="0.5" />
	<path d="M51.9375 22.0312H50.125C49.6248 22.0312 49.2188 22.4373 49.2188 22.9375C49.2188 23.4377 49.6248 23.8438 50.125 23.8438H51.9375C52.4377 23.8438 52.8438 23.4377 52.8438 22.9375C52.8438 22.4373 52.4377 22.0312 51.9375 22.0312Z" stroke="#49B48A" stroke-width="0.5" />
	<path d="M15.6875 53.75H13.875C13.3748 53.75 12.9688 54.1551 12.9688 54.6562C12.9688 55.1574 13.3748 55.5625 13.875 55.5625H15.6875C16.1878 55.5625 16.5938 55.1574 16.5938 54.6562C16.5938 54.1551 16.1878 53.75 15.6875 53.75Z" fill="#263140" stroke="white" stroke-width="0.5" />
	<path d="M21.125 53.75H19.3125C18.8123 53.75 18.4062 54.1551 18.4062 54.6562C18.4062 55.1574 18.8123 55.5625 19.3125 55.5625H21.125C21.6253 55.5625 22.0312 55.1574 22.0312 54.6562C22.0312 54.1551 21.6253 53.75 21.125 53.75Z" fill="#263140" stroke="white" stroke-width="0.5" />
	<path d="M26.5625 53.75H24.75C24.2498 53.75 23.8438 54.1551 23.8438 54.6562C23.8438 55.1574 24.2498 55.5625 24.75 55.5625H26.5625C27.0628 55.5625 27.4688 55.1574 27.4688 54.6562C27.4688 54.1551 27.0628 53.75 26.5625 53.75Z" fill="#263140" stroke="white" stroke-width="0.5" />
	<path d="M32 53.75H30.1875C29.6873 53.75 29.2812 54.1551 29.2812 54.6562C29.2812 55.1574 29.6873 55.5625 30.1875 55.5625H32C32.5003 55.5625 32.9062 55.1574 32.9062 54.6562C32.9062 54.1551 32.5003 53.75 32 53.75Z" fill="#263140" stroke="white" stroke-width="0.5" />
	<path d="M51.9375 35.625H41.0625C40.5623 35.625 40.1562 36.0301 40.1562 36.5312C40.1562 37.0324 40.5623 37.4375 41.0625 37.4375H51.9375C52.4377 37.4375 52.8438 37.0324 52.8438 36.5312C52.8438 36.0301 52.4377 35.625 51.9375 35.625Z" fill="#263140" stroke="white" stroke-width="0.5" />
	<path d="M51.9375 39.25H41.0625C40.5623 39.25 40.1562 39.6551 40.1562 40.1562C40.1562 40.6574 40.5623 41.0625 41.0625 41.0625H51.9375C52.4377 41.0625 52.8438 40.6574 52.8438 40.1562C52.8438 39.6551 52.4377 39.25 51.9375 39.25Z" fill="#263140" stroke="white" stroke-width="0.5" />
	<path d="M51.9375 42.875H41.0625C40.5623 42.875 40.1562 43.2801 40.1562 43.7812C40.1562 44.2824 40.5623 44.6875 41.0625 44.6875H51.9375C52.4377 44.6875 52.8438 44.2824 52.8438 43.7812C52.8438 43.2801 52.4377 42.875 51.9375 42.875Z" fill="#263140" stroke="white" stroke-width="0.5" />
	<path d="M51.9375 46.5H41.0625C40.5623 46.5 40.1562 46.9051 40.1562 47.4062C40.1562 47.9074 40.5623 48.3125 41.0625 48.3125H51.9375C52.4377 48.3125 52.8438 47.9074 52.8438 47.4062C52.8438 46.9051 52.4377 46.5 51.9375 46.5Z" fill="#263140" stroke="white" stroke-width="0.5" />
	<path d="M51.9375 50.125H41.0625C40.5623 50.125 40.1562 50.5301 40.1562 51.0312C40.1562 51.5324 40.5623 51.9375 41.0625 51.9375H51.9375C52.4377 51.9375 52.8438 51.5324 52.8438 51.0312C52.8438 50.5301 52.4377 50.125 51.9375 50.125Z" fill="#263140" stroke="white" stroke-width="0.5" />
</svg>
