<svg width="68" height="68" viewBox="0 0 68 68" fill="none" xmlns="http://www.w3.org/2000/svg">
	<path d="M40.6719 18.1677C38.211 20.6287 38.2383 24.5935 40.6719 27.0544C43.1328 29.5154 47.0977 29.5154 49.5586 27.0544C52.0195 24.5935 52.0195 20.6287 49.5586 18.1677C47.0977 15.7341 43.1055 15.7341 40.6719 18.1677ZM47.6719 25.1677C46.25 26.5896 43.9531 26.5896 42.5586 25.1677C41.1367 23.7458 41.1367 21.449 42.5586 20.0544C43.9805 18.6326 46.2774 18.6326 47.6719 20.0544C49.0664 21.4763 49.0664 23.7732 47.6719 25.1677Z" fill="#263140" stroke="#F7FAFC" stroke-width="1.5" />
	<path d="M66.2383 1.4881C65.7187 0.995914 65.0625 0.722477 64.3516 0.777164L63.6406 0.831852C63.4766 0.859195 59.6211 1.43341 58.1445 1.76154C56.7227 2.06232 55.3008 2.41779 53.9062 2.85529C52.8398 3.18341 51.0625 3.83966 50.1055 4.19513C49.668 4.3592 49.2578 4.52326 48.8203 4.71466L46.3047 5.83576L45.9219 6.02716C34.2734 11.7967 25.3047 21.9686 20.6016 34.6287L19.043 38.867L23.9375 43.7889L28.8594 48.6561L33.0977 47.0975C45.7852 42.4217 55.9297 33.4256 61.6992 21.7772L62.9844 18.9061C63.1758 18.4959 63.3398 18.0584 63.5039 17.6209C63.8594 16.6639 64.5156 14.9139 64.8438 13.8201C65.2539 12.4256 65.6367 11.0037 65.9375 9.58185C66.2383 8.18732 66.8125 4.46857 66.8398 4.22248L66.9219 3.37482C67.0039 2.69123 66.7305 1.98029 66.2383 1.4881ZM64.2148 3.9217C64.2148 3.94904 63.6406 7.72248 63.3398 9.03498C63.0391 10.4022 62.7109 11.742 62.3008 13.0545C62 14.0662 61.3711 15.7615 61.0156 16.6912C60.8789 17.074 60.7148 17.4569 60.5508 17.8123L59.4844 20.2186L59.293 20.6014C53.8242 31.6209 44.1992 40.1522 32.1406 44.6092L29.4883 45.5936L25.7695 41.9022L22.0781 38.1834L23.0625 35.5311C27.5195 23.4998 36.0234 13.8475 47.043 8.37873L49.832 7.12091C50.1875 6.95685 50.5703 6.79279 50.9531 6.65607C51.8828 6.3006 53.5781 5.69904 54.5898 5.37091C55.9023 4.9881 57.2695 4.63263 58.6094 4.33185C59.9219 4.05841 63.4219 3.51154 63.9141 3.42951L64.1875 3.40216L64.2148 3.9217Z" fill="#4DBD94" stroke="#F7FAFC" stroke-width="1.5" />
	<path d="M13.4921 43.3241C7.80463 43.9256 4.35932 49.4764 3.15619 54.0428C2.80072 55.41 2.44526 56.6952 1.65229 57.5428C1.43354 57.7889 1.07807 57.9803 1.05072 58.3358C1.02338 58.6912 1.29682 59.1561 1.54291 59.3748C2.25385 60.0584 3.3476 59.8944 4.19526 59.5936C5.20697 59.2381 5.99994 58.5545 6.76557 57.8162C7.09369 57.5155 7.42182 57.2147 7.7226 56.9686C8.13276 56.6678 8.57026 56.5311 8.87104 56.6131C9.08979 56.6678 9.25385 56.8592 9.39057 57.16C9.74604 57.9803 9.58197 59.1834 8.98041 59.9491C8.62494 60.4139 8.10541 60.8514 7.55854 61.2889C6.27338 62.328 4.96088 63.6131 4.74213 65.3631C4.6601 66.1014 4.68744 66.9764 5.58979 67.1405C6.4101 67.2772 7.06635 66.8123 7.74994 66.4295C9.11713 65.6092 10.8124 65.5819 12.3163 65.1717C13.6288 64.8436 14.914 64.3787 16.1445 63.8319C18.1406 62.9295 20.0546 61.6991 21.5312 60.0584C22.9257 58.4998 23.8281 56.7225 24.1835 54.7811C24.7304 51.7459 23.8007 48.6834 21.6406 46.3592C19.4804 44.1444 16.5273 42.9959 13.4921 43.3241ZM21.5585 54.3709C21.2851 55.8202 20.6288 57.16 19.5624 58.3358C17.5663 60.5233 14.121 62.2186 10.0468 63.0116L9.74604 63.0662C9.71869 63.0662 9.69135 63.0662 9.66401 63.0936C10.1835 62.6561 10.7031 62.1912 11.1132 61.617C12.2617 60.0858 12.5624 57.8436 11.8242 56.1756C11.6054 55.6834 11.332 55.2733 11.0038 54.9452C10.5937 54.535 10.1015 54.2616 9.55463 54.0975C8.46088 53.7967 7.23041 54.0702 6.13666 54.8631C5.91791 54.9998 5.72651 55.1639 5.5351 55.328C5.58979 55.1092 5.64447 54.9178 5.69916 54.6991C6.68354 50.953 9.39057 46.4139 13.7382 45.9491C15.9257 45.7303 18.0859 46.578 19.6445 48.2186C21.2578 49.9412 21.9413 52.1834 21.5585 54.3709Z" fill="#263140" stroke="#F7FAFC" stroke-width="1.5" />
</svg>
