<svg width="64" height="64" viewBox="0 0 64 64" fill="none" xmlns="http://www.w3.org/2000/svg">
	<path d="M46 42.828C45.744 42.828 45.488 42.73 45.293 42.535C44.902 42.144 44.902 41.512 45.293 41.121C45.859 40.555 46.172 39.801 46.172 39C46.172 38.199 45.86 37.445 45.293 36.879C44.902 36.488 44.902 35.856 45.293 35.465C45.684 35.074 46.316 35.074 46.707 35.465C47.651 36.409 48.172 37.665 48.172 39C48.172 40.335 47.651 41.591 46.707 42.535C46.512 42.73 46.256 42.828 46 42.828Z" fill="#263140" />
	<path d="M49.364 46.364C49.108 46.364 48.852 46.266 48.657 46.071C48.266 45.681 48.266 45.048 48.657 44.657C50.168 43.146 51 41.137 51 39C51 36.863 50.168 34.854 48.657 33.343C48.266 32.952 48.266 32.319 48.657 31.929C49.048 31.538 49.68 31.538 50.071 31.929C51.96 33.818 53 36.33 53 39C53 41.67 51.96 44.182 50.071 46.071C49.876 46.267 49.62 46.364 49.364 46.364Z" fill="#263140" />
	<path d="M53 49.899C52.744 49.899 52.488 49.801 52.293 49.606C51.902 49.215 51.902 48.583 52.293 48.192C54.748 45.737 56.101 42.472 56.101 39C56.101 35.528 54.748 32.263 52.293 29.808C51.902 29.417 51.902 28.785 52.293 28.394C52.684 28.003 53.316 28.003 53.707 28.394C56.54 31.227 58.101 34.994 58.101 39C58.101 43.006 56.54 46.773 53.707 49.606C53.512 49.802 53.256 49.899 53 49.899Z" fill="#263140" />
	<path d="M40.683 15.886C40.117 14.188 38.675 12.915 36.92 12.565L35 12.181V12C35 11.992 34.996 11.986 34.996 11.978C36.205 11.065 37 9.629 37 8V6C37 3.243 34.757 1 32 1C29.243 1 27 3.243 27 6V8C27 9.629 27.795 11.065 29.004 11.978C29.004 11.986 29 11.992 29 12V12.181L27.08 12.565C25.325 12.916 23.884 14.188 23.317 15.886L22.051 19.684C21.948 19.99 22 20.325 22.188 20.585C22.377 20.846 22.679 21 23 21H41C41.321 21 41.623 20.846 41.812 20.585C42 20.324 42.051 19.989 41.949 19.684L40.683 15.886ZM31 12.899C31.323 12.965 31.658 13 32 13C32.342 13 32.677 12.965 33 12.899V13C33 13.552 32.552 14 32 14C31.448 14 31 13.552 31 13V12.899ZM29 6C29 4.346 30.346 3 32 3C33.654 3 35 4.346 35 6V8C35 9.654 33.654 11 32 11C30.346 11 29 9.654 29 8V6ZM24.388 19L25.214 16.519C25.554 15.5 26.419 14.737 27.473 14.526L29.239 14.173C29.696 15.245 30.761 16 32 16C33.239 16 34.304 15.245 34.761 14.172L36.527 14.525C37.581 14.736 38.446 15.5 38.786 16.518L39.612 19H24.388Z" fill="#263140" />
	<path d="M62.948 19.684L61.682 15.886C61.116 14.188 59.674 12.915 57.919 12.565L56 12.181V12C56 11.992 55.996 11.986 55.996 11.978C57.205 11.065 58 9.629 58 8V6C58 3.243 55.757 1 53 1C50.243 1 48 3.243 48 6V8C48 9.629 48.795 11.065 50.004 11.978C50.004 11.986 50 11.992 50 12V12.181L48.08 12.565C46.325 12.916 44.884 14.188 44.317 15.886L43.051 19.684C42.948 19.99 43 20.325 43.188 20.585C43.377 20.846 43.679 21 44 21H62C62.321 21 62.623 20.846 62.812 20.585C62.999 20.324 63.051 19.989 62.948 19.684ZM52 12.899C52.323 12.965 52.658 13 53 13C53.342 13 53.677 12.965 54 12.899V13C54 13.552 53.552 14 53 14C52.448 14 52 13.552 52 13V12.899ZM50 6C50 4.346 51.346 3 53 3C54.654 3 56 4.346 56 6V8C56 9.654 54.654 11 53 11C51.346 11 50 9.654 50 8V6ZM45.388 19L46.214 16.519C46.554 15.5 47.419 14.737 48.473 14.526L50.239 14.173C50.696 15.245 51.761 16 53 16C54.239 16 55.304 15.245 55.761 14.172L57.527 14.525C58.581 14.736 59.446 15.5 59.786 16.518L60.612 19H45.388Z" fill="#263140" />
	<path d="M19.683 15.886C19.117 14.188 17.675 12.915 15.92 12.565L14 12.181V12C14 11.992 13.996 11.986 13.996 11.978C15.205 11.065 16 9.629 16 8V6C16 3.243 13.757 1 11 1C8.24302 1 6.00002 3.243 6.00002 6V8C6.00002 9.629 6.79501 11.065 8.00401 11.978C8.00401 11.986 8.00002 11.992 8.00002 12V12.181L6.08002 12.565C4.32502 12.916 2.88402 14.188 2.31702 15.886L1.05102 19.684C0.948015 19.99 1.00002 20.325 1.18802 20.585C1.37702 20.846 1.67902 21 2.00002 21H20C20.321 21 20.623 20.846 20.812 20.585C21 20.324 21.051 19.989 20.949 19.684L19.683 15.886ZM10 12.899C10.323 12.965 10.658 13 11 13C11.342 13 11.677 12.965 12 12.899V13C12 13.552 11.552 14 11 14C10.448 14 10 13.552 10 13V12.899ZM8.00002 6C8.00002 4.346 9.34601 3 11 3C12.654 3 14 4.346 14 6V8C14 9.654 12.654 11 11 11C9.34601 11 8.00002 9.654 8.00002 8V6ZM3.38802 19L4.21402 16.519C4.55402 15.5 5.41902 14.737 6.47302 14.526L8.23902 14.173C8.69602 15.245 9.76101 16 11 16C12.239 16 13.304 15.245 13.761 14.172L15.527 14.525C16.581 14.736 17.446 15.5 17.786 16.518L18.612 19H3.38802Z" fill="#263140" />
	<path d="M23 37C22.447 37 22 37.447 22 38V42C22 42.553 22.447 43 23 43H31C31.553 43 32 42.553 32 42V38C32 37.447 31.553 37 31 37H23ZM24 39H26V41H24V39ZM30 41H28V39H30V41Z" fill="#263140" />
	<path d="M38.414 50.09L37.428 49.642C30.956 46.7 24.089 45.144 17 45.01V34.99C24.089 34.856 30.956 33.3 37.428 30.358L38.414 29.91C38.917 29.681 39.139 29.089 38.91 28.586C38.682 28.085 38.095 27.858 37.586 28.09L36.6 28.538C30.086 31.499 23.155 33 16 33H12C10.667 33 9.54702 33.88 9.15802 35.085C6.80202 35.488 5.00002 37.532 5.00002 40C5.00002 42.468 6.80202 44.512 9.15802 44.915C9.54702 46.12 10.667 47 12 47H16C16.669 47 17.335 47.026 18 47.053V58C18 60.757 20.243 63 23 63C25.757 63 28 60.757 28 58V48.478C30.932 49.208 33.806 50.192 36.6 51.462L37.586 51.91C37.721 51.972 37.861 52 37.999 52C38.38 52 38.743 51.782 38.91 51.414C39.139 50.911 38.917 50.318 38.414 50.09ZM7.00002 40C7.00002 38.698 7.83902 37.598 9.00002 37.184V42.815C7.83902 42.402 7.00002 41.302 7.00002 40ZM11 44V36C11 35.448 11.448 35 12 35H15V37H14C13.447 37 13 37.447 13 38C13 38.553 13.447 39 14 39H15V41H14C13.447 41 13 41.447 13 42C13 42.553 13.447 43 14 43H15V45H12C11.448 45 11 44.552 11 44ZM20 51H22V56H20V51ZM26 58C26 59.654 24.654 61 23 61C21.346 61 20 59.654 20 58H23C23.553 58 24 57.553 24 57V50C24 49.447 23.553 49 23 49H20V47.176C22.023 47.337 24.025 47.614 26 48.019V58Z" fill="#263140" />
	<path d="M46 42.828C45.744 42.828 45.488 42.73 45.293 42.535C44.902 42.144 44.902 41.512 45.293 41.121C45.859 40.555 46.172 39.801 46.172 39C46.172 38.199 45.86 37.445 45.293 36.879C44.902 36.488 44.902 35.856 45.293 35.465C45.684 35.074 46.316 35.074 46.707 35.465C47.651 36.409 48.172 37.665 48.172 39C48.172 40.335 47.651 41.591 46.707 42.535C46.512 42.73 46.256 42.828 46 42.828Z" stroke="white" />
	<path d="M49.364 46.364C49.108 46.364 48.852 46.266 48.657 46.071C48.266 45.681 48.266 45.048 48.657 44.657C50.168 43.146 51 41.137 51 39C51 36.863 50.168 34.854 48.657 33.343C48.266 32.952 48.266 32.319 48.657 31.929C49.048 31.538 49.68 31.538 50.071 31.929C51.96 33.818 53 36.33 53 39C53 41.67 51.96 44.182 50.071 46.071C49.876 46.267 49.62 46.364 49.364 46.364Z" stroke="white" />
	<path d="M53 49.899C52.744 49.899 52.488 49.801 52.293 49.606C51.902 49.215 51.902 48.583 52.293 48.192C54.748 45.737 56.101 42.472 56.101 39C56.101 35.528 54.748 32.263 52.293 29.808C51.902 29.417 51.902 28.785 52.293 28.394C52.684 28.003 53.316 28.003 53.707 28.394C56.54 31.227 58.101 34.994 58.101 39C58.101 43.006 56.54 46.773 53.707 49.606C53.512 49.802 53.256 49.899 53 49.899Z" stroke="white" />
	<path d="M40.683 15.886C40.117 14.188 38.675 12.915 36.92 12.565L35 12.181V12C35 11.992 34.996 11.986 34.996 11.978C36.205 11.065 37 9.629 37 8V6C37 3.243 34.757 1 32 1C29.243 1 27 3.243 27 6V8C27 9.629 27.795 11.065 29.004 11.978C29.004 11.986 29 11.992 29 12V12.181L27.08 12.565C25.325 12.916 23.884 14.188 23.317 15.886L22.051 19.684C21.948 19.99 22 20.325 22.188 20.585C22.377 20.846 22.679 21 23 21H41C41.321 21 41.623 20.846 41.812 20.585C42 20.324 42.051 19.989 41.949 19.684L40.683 15.886ZM31 12.899C31.323 12.965 31.658 13 32 13C32.342 13 32.677 12.965 33 12.899V13C33 13.552 32.552 14 32 14C31.448 14 31 13.552 31 13V12.899ZM29 6C29 4.346 30.346 3 32 3C33.654 3 35 4.346 35 6V8C35 9.654 33.654 11 32 11C30.346 11 29 9.654 29 8V6ZM24.388 19L25.214 16.519C25.554 15.5 26.419 14.737 27.473 14.526L29.239 14.173C29.696 15.245 30.761 16 32 16C33.239 16 34.304 15.245 34.761 14.172L36.527 14.525C37.581 14.736 38.446 15.5 38.786 16.518L39.612 19H24.388Z" stroke="white" />
	<path d="M62.948 19.684L61.682 15.886C61.116 14.188 59.674 12.915 57.919 12.565L56 12.181V12C56 11.992 55.996 11.986 55.996 11.978C57.205 11.065 58 9.629 58 8V6C58 3.243 55.757 1 53 1C50.243 1 48 3.243 48 6V8C48 9.629 48.795 11.065 50.004 11.978C50.004 11.986 50 11.992 50 12V12.181L48.08 12.565C46.325 12.916 44.884 14.188 44.317 15.886L43.051 19.684C42.948 19.99 43 20.325 43.188 20.585C43.377 20.846 43.679 21 44 21H62C62.321 21 62.623 20.846 62.812 20.585C62.999 20.324 63.051 19.989 62.948 19.684ZM52 12.899C52.323 12.965 52.658 13 53 13C53.342 13 53.677 12.965 54 12.899V13C54 13.552 53.552 14 53 14C52.448 14 52 13.552 52 13V12.899ZM50 6C50 4.346 51.346 3 53 3C54.654 3 56 4.346 56 6V8C56 9.654 54.654 11 53 11C51.346 11 50 9.654 50 8V6ZM45.388 19L46.214 16.519C46.554 15.5 47.419 14.737 48.473 14.526L50.239 14.173C50.696 15.245 51.761 16 53 16C54.239 16 55.304 15.245 55.761 14.172L57.527 14.525C58.581 14.736 59.446 15.5 59.786 16.518L60.612 19H45.388Z" stroke="white" />
	<path d="M19.683 15.886C19.117 14.188 17.675 12.915 15.92 12.565L14 12.181V12C14 11.992 13.996 11.986 13.996 11.978C15.205 11.065 16 9.629 16 8V6C16 3.243 13.757 1 11 1C8.24302 1 6.00002 3.243 6.00002 6V8C6.00002 9.629 6.79501 11.065 8.00401 11.978C8.00401 11.986 8.00002 11.992 8.00002 12V12.181L6.08002 12.565C4.32502 12.916 2.88402 14.188 2.31702 15.886L1.05102 19.684C0.948015 19.99 1.00002 20.325 1.18802 20.585C1.37702 20.846 1.67902 21 2.00002 21H20C20.321 21 20.623 20.846 20.812 20.585C21 20.324 21.051 19.989 20.949 19.684L19.683 15.886ZM10 12.899C10.323 12.965 10.658 13 11 13C11.342 13 11.677 12.965 12 12.899V13C12 13.552 11.552 14 11 14C10.448 14 10 13.552 10 13V12.899ZM8.00002 6C8.00002 4.346 9.34601 3 11 3C12.654 3 14 4.346 14 6V8C14 9.654 12.654 11 11 11C9.34601 11 8.00002 9.654 8.00002 8V6ZM3.38802 19L4.21402 16.519C4.55402 15.5 5.41902 14.737 6.47302 14.526L8.23902 14.173C8.69602 15.245 9.76101 16 11 16C12.239 16 13.304 15.245 13.761 14.172L15.527 14.525C16.581 14.736 17.446 15.5 17.786 16.518L18.612 19H3.38802Z" stroke="white" />
	<path d="M23 37C22.447 37 22 37.447 22 38V42C22 42.553 22.447 43 23 43H31C31.553 43 32 42.553 32 42V38C32 37.447 31.553 37 31 37H23ZM24 39H26V41H24V39ZM30 41H28V39H30V41Z" stroke="white" />
	<path d="M38.414 50.09L37.428 49.642C30.956 46.7 24.089 45.144 17 45.01V34.99C24.089 34.856 30.956 33.3 37.428 30.358L38.414 29.91C38.917 29.681 39.139 29.089 38.91 28.586C38.682 28.085 38.095 27.858 37.586 28.09L36.6 28.538C30.086 31.499 23.155 33 16 33H12C10.667 33 9.54702 33.88 9.15802 35.085C6.80202 35.488 5.00002 37.532 5.00002 40C5.00002 42.468 6.80202 44.512 9.15802 44.915C9.54702 46.12 10.667 47 12 47H16C16.669 47 17.335 47.026 18 47.053V58C18 60.757 20.243 63 23 63C25.757 63 28 60.757 28 58V48.478C30.932 49.208 33.806 50.192 36.6 51.462L37.586 51.91C37.721 51.972 37.861 52 37.999 52C38.38 52 38.743 51.782 38.91 51.414C39.139 50.911 38.917 50.318 38.414 50.09ZM7.00002 40C7.00002 38.698 7.83902 37.598 9.00002 37.184V42.815C7.83902 42.402 7.00002 41.302 7.00002 40ZM11 44V36C11 35.448 11.448 35 12 35H15V37H14C13.447 37 13 37.447 13 38C13 38.553 13.447 39 14 39H15V41H14C13.447 41 13 41.447 13 42C13 42.553 13.447 43 14 43H15V45H12C11.448 45 11 44.552 11 44ZM20 51H22V56H20V51ZM26 58C26 59.654 24.654 61 23 61C21.346 61 20 59.654 20 58H23C23.553 58 24 57.553 24 57V50C24 49.447 23.553 49 23 49H20V47.176C22.023 47.337 24.025 47.614 26 48.019V58Z" stroke="white" />
	<path d="M40 54C38.346 54 37 52.654 37 51V29C37 27.346 38.346 26 40 26C41.654 26 43 27.346 43 29V51C43 52.654 41.654 54 40 54Z" fill="#49B48A" />
</svg>
