<svg width="70" height="70" viewBox="0 0 70 70" fill="none" xmlns="http://www.w3.org/2000/svg">
<path d="M49.5469 27.8086C49.5469 26.9609 49.0273 26.2227 48.2617 25.8945C43.1211 23.7344 39.1016 19.7422 36.9141 14.6016C36.5859 13.8086 35.8203 13.3164 34.9727 13.3164C34.125 13.3164 33.3867 13.8086 33.0312 14.6016C30.8711 19.7148 26.8516 23.707 21.7383 25.8672C20.9727 26.1953 20.4531 26.9336 20.4531 27.7812C20.4531 28.6289 20.9453 29.3672 21.7109 29.7227C26.6328 31.8828 30.7344 36.0391 33.0039 41.1523C33.332 41.918 34.0977 42.4102 34.918 42.4102C35.7383 42.4102 36.5039 41.918 36.832 41.125C38.9648 36.1758 43.1484 32.0195 48.2617 29.75C49.0547 29.3945 49.5469 28.6289 49.5469 27.8086ZM34.918 39.0195C32.4844 34.1523 28.5195 30.1602 23.8164 27.8086C28.6836 25.457 32.5937 21.5742 34.9453 16.707C37.3242 21.6016 41.2344 25.5117 46.1562 27.8359C41.2891 30.2969 37.2695 34.2891 34.918 39.0195Z" fill="#4DBD94" stroke="#F7FAFC" stroke-width="1.5"/>
<path d="M48.0702 49.4375C48.3163 49.5196 48.6444 49.6289 49.0546 49.6016C49.7108 49.5742 50.3124 49.3008 50.7772 48.836C51.2694 48.3438 51.5429 47.6875 51.5155 47.0039C51.4608 42.6836 54.1952 38.9102 58.2968 37.625C58.5702 37.543 58.871 37.4063 59.0897 37.2149C59.6366 36.8047 59.9921 36.2032 60.0741 35.5743C60.1835 34.8907 60.0194 34.2071 59.6093 33.6328C57.0389 30.1602 57.0116 25.5118 59.5819 22.0938L59.91 21.711L60.0468 21.3008C60.2655 20.6446 60.1835 19.9336 59.8827 19.3594C59.5546 18.7305 59.0077 18.2657 58.3788 18.0742C54.2772 16.7617 51.5702 13.0157 51.5975 8.72269C51.5975 8.39456 51.5429 8.09378 51.4608 7.82034C51.2421 7.19144 50.7772 6.67191 50.1483 6.34378C49.5194 6.043 48.8632 6.01566 48.2343 6.23441C47.2225 6.58987 46.1835 6.75394 45.1171 6.75394C41.9725 6.75394 39.0194 5.22269 37.2147 2.67972C37.0233 2.43362 36.8046 2.21487 36.6132 2.07816C35.4647 1.25784 33.8514 1.53128 33.0311 2.67972C31.2264 5.25003 28.2733 6.75394 25.1288 6.75394C24.0624 6.75394 23.0233 6.58987 22.0389 6.23441C21.1639 5.93362 20.0429 6.15237 19.3866 6.86331C18.8944 7.3555 18.621 8.01175 18.6483 8.69534C18.703 13.0157 15.9686 16.7617 11.8944 18.0469C11.5936 18.1289 11.3475 18.2657 11.0741 18.4571C9.95301 19.3047 9.70691 20.918 10.5546 22.0664C13.1249 25.5391 13.1249 30.1875 10.5546 33.6602C10.3905 33.8789 10.2538 34.1524 10.1718 34.3985C9.98035 35.0547 10.035 35.711 10.3632 36.3672C10.6913 36.9688 11.2382 37.4336 11.8671 37.625C15.9686 38.9375 18.6757 42.711 18.621 46.9492C18.5936 47.2774 18.6483 47.5782 18.7577 47.8789C18.9764 48.5078 19.4413 49.0274 20.0702 49.3555C20.6991 49.6563 21.3554 49.6836 21.9843 49.4649C23.0233 49.1094 24.0897 48.9453 25.1561 48.9453C28.328 48.9453 31.1718 50.4493 33.0311 53.0469C33.1952 53.2657 33.4139 53.4844 33.6327 53.6485C34.0702 53.9766 34.5897 54.1407 35.1093 54.1407C35.246 54.1407 35.41 54.1407 35.5468 54.1133C36.2304 54.0039 36.8319 53.6211 37.2147 53.0743C39.5663 49.5196 43.9686 48.0703 48.0702 49.4375ZM35.0272 51.5157C32.7304 48.2617 28.9843 46.3203 25.0194 46.3203C23.6796 46.3203 22.3397 46.5391 21.0819 47.0313C21.1639 41.5899 17.6913 36.8047 12.5233 35.2188C15.7772 30.8164 15.7772 24.9102 12.496 20.5899C17.6913 18.9766 21.1639 14.2461 21.1366 8.77737C22.3671 9.18753 23.6796 9.40628 24.9921 9.40628C28.9843 9.40628 32.7304 7.46487 34.9452 4.21097C37.2421 7.46487 41.0155 9.40628 45.0077 9.40628C46.3475 9.40628 47.6874 9.18753 48.8905 8.72269C48.8358 14.1094 52.2538 18.8399 57.3944 20.5352C54.1952 24.9102 54.1952 30.7344 57.3944 35.1367C52.2264 36.8047 48.7811 41.5625 48.8905 46.9492H48.8632C43.7225 45.1992 38.0897 47.0313 35.0272 51.5157Z" fill="#263140" stroke="#F7FAFC" stroke-width="1.5"/>
<path d="M26.4961 52.9102C25.8945 52.5273 25.0742 52.6914 24.6914 53.293L18.293 63.082L14.7656 55.8633L7.4375 55.8359L14.1367 45.582C14.5469 44.9805 14.3555 44.1602 13.7539 43.7773C13.1523 43.3672 12.332 43.5586 11.9492 44.1602L2.59766 58.4609L13.1523 58.4883L17.9922 68.3867L26.9062 54.7148C27.2891 54.1133 27.0977 53.293 26.4961 52.9102Z" fill="#263140" stroke="#F7FAFC" stroke-width="1.5"/>
<path d="M58.0507 44.1329C57.6405 43.5314 56.8475 43.3673 56.246 43.7501C55.6444 44.1603 55.4803 44.9532 55.8632 45.5548L62.5897 55.8361L55.2616 55.8634L51.7343 63.0822L45.3085 53.2657C44.8983 52.6642 44.1053 52.5001 43.5038 52.8829C42.9022 53.2931 42.7382 54.0861 43.121 54.6876L52.0624 68.3868L56.9022 58.4884L67.4569 58.4611L58.0507 44.1329Z" fill="#263140" stroke="#F7FAFC" stroke-width="1.5"/>
</svg>
