<svg width="36" height="36" viewBox="0 0 36 36" fill="none" xmlns="http://www.w3.org/2000/svg">
<circle cx="18" cy="18" r="18" fill="#1DA1F2"/>
<path d="M24 15.1832C23.5583 15.3839 23.0844 15.5201 22.5865 15.5809C23.0949 15.2685 23.4841 14.7731 23.6685 14.1846C23.1916 14.4739 22.6652 14.6839 22.1043 14.7978C21.6552 14.3062 21.0163 14 20.3077 14C18.9482 14 17.8459 15.1309 17.8459 16.5248C17.8459 16.7225 17.8676 16.9156 17.9096 17.1002C15.864 16.9948 14.0501 15.9894 12.8361 14.4616C12.6239 14.8339 12.5031 15.2678 12.5031 15.7309C12.5031 16.6071 12.9381 17.3803 13.5979 17.8326C13.1945 17.8187 12.8151 17.7049 12.4829 17.5156V17.5472C12.4829 18.7703 13.3317 19.7912 14.4573 20.0235C14.2511 20.0805 14.0336 20.112 13.8086 20.112C13.6497 20.112 13.496 20.0958 13.3452 20.0651C13.6587 21.069 14.5675 21.799 15.6443 21.8191C14.8022 22.496 13.7404 22.8984 12.5871 22.8984C12.3884 22.8984 12.1927 22.8861 12 22.8638C13.0896 23.5815 14.3831 24 15.7733 24C20.3017 24 22.777 20.152 22.777 16.8148L22.7687 16.4879C23.2524 16.134 23.6708 15.6894 24 15.1832Z" fill="white"/>
</svg>
