<svg width="86" height="30" viewBox="0 0 86 30" fill="none" xmlns="http://www.w3.org/2000/svg">
	<rect width="85.567" height="30" rx="4" fill="#1DA1F2" />
	<path d="M31.1104 20V11.8203H28.0166V10.9062H35.335V11.8203H32.2881V20H31.1104ZM37.5732 20L35.7041 13.4551H36.8467L38.001 17.5273L38.1533 18.5H38.2764L38.4463 17.5273L39.6123 13.4551H40.708L42.0088 17.5156L42.2314 18.5H42.3486L42.5186 17.5156L43.6729 13.4551H44.7041L42.835 20H41.7334L40.3857 15.7227L40.2041 14.7734H40.1104L39.917 15.7227L38.6807 20H37.5732ZM45.7471 13.4551H46.8369V20H45.7471V13.4551ZM45.7471 12.002V10.9062H46.8369V12.002H45.7471ZM52.5732 19.0742V19.9883C52.042 20.1172 51.6357 20.1816 51.3545 20.1816C50.9482 20.1816 50.5811 20.0996 50.2529 19.9355C49.9287 19.7715 49.6807 19.5332 49.5088 19.2207C49.3408 18.9082 49.2568 18.4102 49.2568 17.7266V14.3633H48.1201V13.4551H49.2568V11.9082H50.3467V13.4551H52.2568V14.3633H50.3467V17.416C50.3467 17.9941 50.3916 18.3965 50.4814 18.623C50.5713 18.8457 50.7119 19.0098 50.9033 19.1152C51.0986 19.2207 51.3311 19.2734 51.6006 19.2734C51.8154 19.2734 52.1396 19.207 52.5732 19.0742ZM57.8936 19.0742V19.9883C57.3623 20.1172 56.9561 20.1816 56.6748 20.1816C56.2686 20.1816 55.9014 20.0996 55.5732 19.9355C55.249 19.7715 55.001 19.5332 54.8291 19.2207C54.6611 18.9082 54.5771 18.4102 54.5771 17.7266V14.3633H53.4404V13.4551H54.5771V11.9082H55.667V13.4551H57.5771V14.3633H55.667V17.416C55.667 17.9941 55.7119 18.3965 55.8018 18.623C55.8916 18.8457 56.0322 19.0098 56.2236 19.1152C56.4189 19.2207 56.6514 19.2734 56.9209 19.2734C57.1357 19.2734 57.46 19.207 57.8936 19.0742ZM63.4893 18.3184H64.5791V18.377C64.5791 18.666 64.4639 18.9609 64.2334 19.2617C64.0029 19.5625 63.6982 19.791 63.3193 19.9473C62.9404 20.1035 62.5049 20.1816 62.0127 20.1816C61.0166 20.1816 60.2471 19.8594 59.7041 19.2148C59.165 18.5703 58.8955 17.7559 58.8955 16.7715C58.8955 15.7637 59.1807 14.9297 59.751 14.2695C60.3252 13.6055 61.0635 13.2734 61.9658 13.2734C62.4619 13.2734 62.9111 13.3809 63.3135 13.5957C63.7158 13.8105 64.0342 14.1465 64.2686 14.6035C64.5029 15.0566 64.6201 15.6895 64.6201 16.502V16.8652H59.9736C59.9736 17.5645 60.1611 18.1406 60.5361 18.5938C60.915 19.0469 61.4385 19.2734 62.1064 19.2734C62.5869 19.2734 62.9365 19.1816 63.1553 18.998C63.3779 18.8105 63.4893 18.6035 63.4893 18.377V18.3184ZM60.0439 16.0449H63.5771V15.916C63.5771 15.6113 63.5029 15.3164 63.3545 15.0312C63.21 14.7422 63.0088 14.5293 62.751 14.3926C62.4932 14.252 62.1924 14.1816 61.8486 14.1816C61.4424 14.1816 61.0674 14.3457 60.7236 14.6738C60.3799 14.998 60.1533 15.4551 60.0439 16.0449ZM67.2158 20H66.126V13.4551H67.2158V14.6094C67.3955 14.2773 67.5908 14.0195 67.8018 13.8359C68.0166 13.6523 68.2432 13.5137 68.4814 13.4199C68.7236 13.3223 68.9697 13.2734 69.2197 13.2734C69.4463 13.2734 69.6416 13.3066 69.8057 13.373V14.5039C69.5479 14.3789 69.2744 14.3164 68.9854 14.3164C68.5752 14.3164 68.1768 14.4961 67.79 14.8555C67.4072 15.2148 67.2158 15.8516 67.2158 16.7656V20Z" fill="white" />
	<path d="M21.6491 11.9465C21.2697 12.1071 20.8625 12.2161 20.4348 12.2647C20.8716 12.0148 21.2059 11.6185 21.3644 11.1477C20.9547 11.3791 20.5024 11.5471 20.0205 11.6382C19.6347 11.2449 19.0858 11 18.477 11C17.3091 11 16.3621 11.9047 16.3621 13.0198C16.3621 13.178 16.3808 13.3325 16.4168 13.4802C14.6594 13.3959 13.1011 12.5915 12.0581 11.3692C11.8758 11.6671 11.7721 12.0142 11.7721 12.3847C11.7721 13.0857 12.1457 13.7042 12.7126 14.0661C12.3661 14.055 12.0401 13.9639 11.7547 13.8125V13.8377C11.7547 14.8163 12.484 15.633 13.4509 15.8188C13.2737 15.8644 13.0869 15.8896 12.8937 15.8896C12.7571 15.8896 12.625 15.8767 12.4955 15.8521C12.7648 16.6552 13.5456 17.2392 14.4707 17.2552C13.7472 17.7968 12.835 18.1187 11.8443 18.1187C11.6735 18.1187 11.5054 18.1088 11.3398 18.091C12.2759 18.6652 13.3871 19 14.5815 19C18.4719 19 20.5984 15.9216 20.5984 13.2519L20.5913 12.9903C21.0068 12.7072 21.3663 12.3515 21.6491 11.9465Z" fill="white" />
</svg>
