<svg width="24" height="24" viewBox="0 0 24 24" fill="none" xmlns="http://www.w3.org/2000/svg">
	<path d="M11.5 22C10.8893 22 10.3659 21.8044 9.92975 21.4131C9.49357 21.0219 9.27548 20.5603 9.27548 20.0282H13.7245C13.7245 20.5603 13.5064 21.0219 13.0702 21.4131C12.6341 21.8044 12.1107 22 11.5 22ZM18.7493 15.9906L21 18.0094V18.9953H2V18.0094L4.25069 15.9906V10.4977C4.25069 8.96401 4.7741 7.61033 5.82094 6.43662C6.86777 5.26291 8.19376 4.50391 9.7989 4.15962V3.50235C9.7989 3.06416 9.96465 2.70423 10.2961 2.42254C10.6276 2.14085 11.0289 2 11.5 2C11.9711 2 12.3636 2.14085 12.6777 2.42254C12.9917 2.70423 13.1488 3.06416 13.1488 3.50235V4.15962C14.7888 4.50391 16.1322 5.26291 17.1791 6.43662C18.2259 7.61033 18.7493 8.96401 18.7493 10.4977V15.9906ZM16.4986 17.0235V10.4977C16.4986 9.2457 16.0101 8.18153 15.0331 7.30516C14.056 6.4288 12.8696 5.99061 11.4738 5.99061C10.0781 5.99061 8.89164 6.4288 7.9146 7.30516C6.93756 8.18153 6.44904 9.2457 6.44904 10.4977V17.0235H16.4986Z" fill="#2C2C2C" />
</svg>
