<svg width="24" height="24" viewBox="0 0 24 24" fill="none" xmlns="http://www.w3.org/2000/svg">
	<path d="M10.27 18.5392C11.883 18.5389 13.4495 17.9989 14.7202 17.0053L18.715 21L20 19.7151L16.0051 15.7204C16.9993 14.4498 17.5396 12.883 17.54 11.2696C17.54 7.26133 14.2785 4 10.27 4C6.26151 4 3 7.26133 3 11.2696C3 15.2779 6.26151 18.5392 10.27 18.5392ZM10.27 5.8174C13.2771 5.8174 15.7225 8.26272 15.7225 11.2696C15.7225 14.2765 13.2771 16.7218 10.27 16.7218C7.26295 16.7218 4.8175 14.2765 4.8175 11.2696C4.8175 8.26272 7.26295 5.8174 10.27 5.8174Z" fill="#2C2C2C" />
</svg>
