<svg width="110" height="29" viewBox="0 0 110 29" fill="none" xmlns="http://www.w3.org/2000/svg">
	<path fill-rule="evenodd" clip-rule="evenodd" d="M94.6358 5.79589L90.5836 21.459H94.6702L98.3541 7.2198L98.4942 18.4157C98.5334 20.6772 99.4932 21.794 101.409 21.7382C102.41 21.7103 103.334 21.3194 104.195 20.6214C105.029 19.9234 105.558 19.0858 105.818 18.0807L110 1.91501H105.942L102.243 16.21L102.161 4.90245C102.139 3.33893 101.626 2.36173 100.571 1.94293C100.132 1.77541 99.6992 1.69165 99.2167 1.69165C98.1099 1.69165 97.1218 2.11045 96.2524 2.94805C95.4614 3.70189 94.932 4.65117 94.6358 5.79589ZM38.5004 1.90954H48.7454C50.1928 1.90954 51.1556 2.35626 51.6412 3.22178C51.972 3.8081 51.9317 4.84114 51.5489 6.3209L51.1372 7.91233C50.6532 9.78297 49.7606 11.0394 48.4737 11.6257C49.3514 12.0724 49.6806 12.9938 49.4686 14.3618L49.4259 14.6131L49.3303 15.1157L48.8247 17.0701C48.7656 17.2983 48.6772 17.5496 48.5807 17.8238L48.5807 17.8239L48.5512 17.9077C47.6251 20.2809 45.9595 21.4535 43.5188 21.4535H33.4441L38.5004 1.90954ZM38.7917 17.2376H43.5028C44.1772 17.1538 44.5832 16.7909 44.7494 16.1487L45.0744 14.8923C45.2406 14.2502 45.0011 13.8593 44.3205 13.7476H39.6947C39.1235 16.065 38.8273 17.2097 38.7917 17.2376ZM40.7854 9.53169H45.5248C46.1775 9.53169 46.612 9.16873 46.7925 8.47073L47.1248 7.18642C47.197 6.90722 47.1769 6.65594 47.036 6.43258C46.888 6.23714 46.6898 6.12546 46.406 6.12546H41.6666L40.7854 9.53169ZM55.3606 1.90954H65.3502C67.7057 1.90954 68.7934 2.9705 68.5778 5.12034C68.5773 5.23201 68.5123 5.48324 68.4112 5.87405L68.4111 5.87418L67.3999 9.78297L67.3999 9.78304C67.306 10.146 67.241 10.3972 67.162 10.5927C66.3236 12.4074 64.9779 13.4405 63.1533 13.6918L62.9335 13.7118L62.401 13.7476L61.7271 13.7197L64.5792 21.4535H59.5276L56.9289 14.1664C56.7607 13.7197 56.7772 13.2171 56.9784 12.6587C57.5465 11.0115 58.6358 10.2018 60.1966 10.2018H61.9278C62.694 10.2018 63.1569 9.83881 63.3519 9.08497L63.8142 7.2981C63.9803 6.65594 63.7409 6.26506 63.0603 6.15338C63.0108 6.12546 62.9256 6.12546 62.7837 6.12546H58.5268L54.5612 21.4535H50.3043L55.3606 1.90954ZM71.8055 1.90954L68.006 16.5954C67.6882 17.8239 67.599 18.7174 67.7171 19.2478C68.0438 20.7276 69.2182 21.4535 71.1764 21.4535H76.682C78.5834 21.4535 80.1051 20.7276 81.2397 19.3037C81.6608 18.7732 82.041 17.8518 82.3733 16.5675L86.1656 1.90954H81.9086L78.1669 16.3721L78.1024 16.5117C77.8945 16.9863 77.347 17.2376 76.4673 17.2376H73.5726C72.6644 17.2376 72.247 16.9863 72.2991 16.4558L76.0624 1.90954H71.8055ZM93.0333 1.90954H88.7764L83.7201 21.4535H87.977L93.0333 1.90954Z" fill="#CCCCCC" />
	<path fill-rule="evenodd" clip-rule="evenodd" d="M93.0492 4.67259L88.9969 20.3357H93.0835L96.7674 6.09651L96.9075 17.2924C96.9468 19.5539 97.9065 20.6707 99.8224 20.6149C100.823 20.587 101.747 20.1961 102.609 19.4981C103.442 18.8001 103.971 17.9625 104.231 16.9574L108.413 0.79172H104.355L100.657 15.0867L100.574 3.77916C100.553 2.21564 100.039 1.23844 98.984 0.819639C98.5449 0.652119 98.1125 0.568359 97.6301 0.568359C96.5233 0.568359 95.5351 0.987159 94.6657 1.82476C93.8747 2.5786 93.3453 3.52788 93.0492 4.67259ZM36.9137 0.813489H47.1588C48.6061 0.813489 49.569 1.26021 50.0545 2.12573C50.3853 2.71205 50.3451 3.74509 49.9622 5.22484L49.5505 6.81628C49.0665 8.68692 48.1739 9.94332 46.887 10.5296C47.7647 10.9764 48.094 11.8977 47.8819 13.2658L47.8392 13.517L47.7437 14.0196L47.238 15.974C47.179 16.2022 47.0906 16.4535 46.994 16.7278L46.994 16.7278L46.9646 16.8116C46.0384 19.1848 44.3728 20.3575 41.9322 20.3575H31.8574L36.9137 0.813489ZM37.2051 16.1415H41.9161C42.5905 16.0578 42.9966 15.6948 43.1627 15.0527L43.4877 13.7963C43.6539 13.1541 43.4145 12.7632 42.7339 12.6516H38.108C37.5368 14.9689 37.2407 16.1136 37.2051 16.1415ZM39.1987 8.43564H43.9381C44.5908 8.43564 45.0253 8.07268 45.2059 7.37468L45.5381 6.09036C45.6104 5.81116 45.5902 5.55988 45.4494 5.33652C45.3013 5.14108 45.1031 5.0294 44.8193 5.0294H40.08L39.1987 8.43564ZM53.7739 0.813489H63.7635C66.119 0.813489 67.2068 1.87445 66.9911 4.02429C66.9906 4.13595 66.9256 4.38719 66.8245 4.77799L66.8245 4.77812L65.8132 8.68692L65.8132 8.68699C65.7193 9.04991 65.6543 9.30117 65.5754 9.4966C64.7369 11.3114 63.3912 12.3444 61.5667 12.5957L61.3469 12.6158L60.8144 12.6516L60.1405 12.6236L62.9925 20.3575H57.941L55.3423 13.0704C55.174 12.6236 55.1906 12.1211 55.3918 11.5627C55.9598 9.9154 57.0491 9.10572 58.61 9.10572H60.3411C61.1074 9.10572 61.5702 8.74276 61.7652 7.98892L62.2275 6.20204C62.3937 5.55988 62.1542 5.169 61.4736 5.05732C61.4241 5.0294 61.339 5.0294 61.1971 5.0294H56.9401L52.9745 20.3575H48.7176L53.7739 0.813489ZM70.2188 0.813489L66.4194 15.4994C66.1015 16.7279 66.0123 17.6213 66.1305 18.1518C66.4571 19.6315 67.6315 20.3575 69.5897 20.3575H75.0953C76.9968 20.3575 78.5184 19.6315 79.6531 18.2076C80.0741 17.6771 80.4544 16.7558 80.7866 15.4715L84.5789 0.813489H80.3219L76.5803 15.276L76.5158 15.4156C76.3078 15.8903 75.7604 16.1415 74.8806 16.1415H71.9859C71.0777 16.1415 70.6603 15.8903 70.7124 15.3598L74.4758 0.813489H70.2188ZM91.4467 0.813489H87.1897L82.1334 20.3575H86.3904L91.4467 0.813489Z" fill="#E42C38" />
	<path fill-rule="evenodd" clip-rule="evenodd" d="M60.3454 24.3529L59.2754 27.7316H60.0986L61.1686 24.3529H60.3454ZM60.78 23.0979C60.6401 23.2073 60.556 23.336 60.5133 23.4905C60.4726 23.6385 60.4896 23.7608 60.5519 23.8573C60.6141 23.9539 60.7154 24.0053 60.8578 24.0053C61.0002 24.0053 61.1403 23.9539 61.2781 23.8509C61.4097 23.7479 61.5 23.6192 61.5469 23.4712C61.5938 23.3232 61.583 23.2009 61.5186 23.0915C61.446 22.9885 61.3447 22.937 61.2023 22.937C61.0538 22.937 60.9137 22.9885 60.78 23.0979ZM52.325 28.9934L53.5091 25.2543L53.5765 25.0805C53.7482 24.6751 54.0279 24.437 54.4155 24.3662L54.531 24.3533H55.7132L55.8742 24.3726C56.2624 24.4563 56.3852 24.733 56.2324 25.2157L55.678 26.9662C55.6311 27.1142 55.5347 27.2622 55.3929 27.3974L55.2675 27.5004C55.0638 27.6548 54.8598 27.7321 54.668 27.7321H53.5476L53.1482 28.9934C53.1502 28.987 53.0842 28.9806 52.9418 28.9806L52.325 28.9934ZM53.8901 26.6702C53.872 26.786 53.9197 26.8504 54.0312 26.8697L54.0787 26.8761H54.7038C54.7636 26.8632 54.8151 26.8375 54.8583 26.7989L54.9465 26.6766L55.3562 25.383C55.3661 25.2929 55.335 25.235 55.2544 25.2157L55.2255 25.2093H54.5818C54.489 25.2093 54.4046 25.2607 54.3307 25.3573L54.2651 25.4667L53.9002 26.6187L53.8901 26.6702ZM56.2338 26.9662L56.4519 26.2776C56.5314 26.0266 56.6626 25.8271 56.856 25.6855C57.035 25.5504 57.2555 25.4796 57.4969 25.4796H58.5986L58.6495 25.2994C58.6657 25.2286 58.6243 25.1835 58.519 25.1642H56.8168L57.0736 24.3533H58.9429L59.0812 24.3662C59.4569 24.4112 59.6124 24.6236 59.5561 24.9969L59.5216 25.1449L58.953 26.9405L58.8917 27.0949C58.7934 27.288 58.6579 27.4424 58.4912 27.5583C58.3245 27.6741 58.1452 27.7321 57.9596 27.7321H56.8269C56.3503 27.7321 56.1369 27.5261 56.1973 27.1207L56.2338 26.9662ZM57.139 26.8246C57.1597 26.8568 57.1949 26.8825 57.2465 26.8954L57.2878 26.9018H57.9316C58.0739 26.9018 58.1624 26.8375 58.2032 26.7088L58.2786 26.4707C58.3051 26.387 58.2863 26.3291 58.2284 26.2969C58.2159 26.2776 58.1808 26.2712 58.1251 26.2712L57.3989 26.2776C57.3267 26.2905 57.265 26.3484 57.2221 26.4449L57.1385 26.7088C57.1263 26.7474 57.1265 26.786 57.139 26.8246ZM61.5466 25.0033C61.745 24.5721 62.0681 24.3533 62.5137 24.3533H63.6588C64.1045 24.3533 64.2889 24.5721 64.2143 25.0033L64.1778 25.1578L63.3625 27.7321H62.5393L63.2628 25.4474L63.2729 25.3959C63.2931 25.2736 63.2268 25.2093 63.0659 25.2093H62.5583C62.3974 25.2093 62.2904 25.2736 62.2331 25.3959L61.4932 27.7321H60.67L61.4853 25.1578L61.5466 25.0033ZM65.3944 23.1004L63.925 27.7406H64.7482L65.5471 25.2178H66.098L66.3691 24.3618H65.8182L66.2177 23.1004H65.3944ZM65.6153 27.7316L66.6853 24.3529H67.5085L66.4385 27.7316H65.6153ZM66.8532 23.4905C66.8959 23.336 66.98 23.2073 67.1198 23.0979C67.2535 22.9885 67.3936 22.937 67.5422 22.937C67.6845 22.937 67.7858 22.9885 67.8585 23.0915C67.9228 23.2009 67.9336 23.3232 67.8868 23.4712C67.8399 23.6192 67.7496 23.7479 67.618 23.8509C67.4801 23.9539 67.34 24.0053 67.1977 24.0053C67.0553 24.0053 66.954 23.9539 66.8917 23.8573C66.8295 23.7608 66.8125 23.6385 66.8532 23.4905ZM68.8536 24.3533C68.4079 24.3533 68.0849 24.5721 67.8864 25.0033L67.8251 25.1578L67.0099 27.7321H67.8331L68.5729 25.3959C68.6302 25.2736 68.7373 25.2093 68.8982 25.2093H69.4057C69.5667 25.2093 69.6329 25.2736 69.6128 25.3959L69.6027 25.4474L68.8791 27.7321H69.7024L70.5176 25.1578L70.5542 25.0033C70.6288 24.5721 70.4443 24.3533 69.9987 24.3533H68.8536ZM69.8772 28.9934L70.1483 28.1375H71.8505C71.9865 28.1182 72.0771 28.0474 72.1343 27.9251L72.1955 27.7321H71.1247C70.8895 27.7321 70.7138 27.6613 70.5977 27.5197C70.4796 27.3845 70.4603 27.1915 70.5357 26.9533L71.0656 25.2801C71.1655 24.9647 71.3028 24.7266 71.4858 24.5786C71.6565 24.4305 71.8976 24.3533 72.2009 24.3533H73.2965L73.443 24.3598C73.6742 24.3919 73.8168 24.4499 73.8728 24.5464C73.9414 24.6622 73.9359 24.836 73.8625 25.0677L72.8944 28.1246L72.8351 28.2727C72.6018 28.7553 72.2479 28.9934 71.7836 28.9934L71.2926 28.9999L69.8772 28.9934ZM71.4487 26.6895C71.4428 26.7667 71.474 26.8246 71.5319 26.8568L71.6062 26.8761H72.2994C72.419 26.8504 72.4992 26.7731 72.5379 26.6509L72.9435 25.3702C72.9516 25.3251 72.9328 25.2865 72.8997 25.2543C72.8666 25.2221 72.8211 25.2093 72.7778 25.2093H72.1217C72.0103 25.2093 71.9239 25.2672 71.8604 25.3895L71.8399 25.4345L71.4547 26.6509L71.4487 26.6895ZM76.1327 25.1513L75.5926 26.8568C75.4071 27.4424 75.6001 27.7321 76.1757 27.7321H77.5003L77.7714 26.8761H76.6387C76.552 26.8761 76.5003 26.8439 76.4856 26.7731C76.4648 26.741 76.4667 26.6959 76.4851 26.638L76.8927 25.3508C76.9418 25.2543 77.0428 25.2093 77.1851 25.2093H78.2993L78.5703 24.3533H77.0724C76.6144 24.3533 76.3018 24.6172 76.1327 25.1513ZM79.2808 26.8761H80.0112C80.0545 26.8761 80.106 26.8504 80.1677 26.7924C80.2211 26.741 80.256 26.6895 80.2723 26.638L80.6514 25.4409C80.6656 25.3959 80.6634 25.3444 80.6446 25.2865C80.6176 25.235 80.5824 25.2093 80.539 25.2093H79.8087C79.7592 25.2093 79.7077 25.235 79.6542 25.2865C79.6008 25.338 79.5659 25.3895 79.5496 25.4409L79.1685 26.6444C79.1522 26.6959 79.1544 26.7474 79.1753 26.7989C79.1961 26.8504 79.2313 26.8761 79.2808 26.8761ZM78.2413 26.9726L78.8303 25.1127L78.8978 24.9583C79.1067 24.5528 79.436 24.3533 79.8879 24.3533H80.9958C81.2372 24.3533 81.4149 24.4177 81.5289 24.5464C81.6367 24.6751 81.6518 24.8617 81.5723 25.1127L80.9833 26.9726C80.9038 27.2236 80.7705 27.4103 80.5811 27.539C80.3856 27.6677 80.1672 27.7321 79.9258 27.7321H78.8179C78.3351 27.7321 78.1321 27.5325 78.211 27.1271L78.2413 26.9726ZM83.2009 24.3533C82.6439 24.3533 82.2736 24.6429 82.0902 25.2221L81.2953 27.7321H82.1186L82.8604 25.3895C82.891 25.2929 82.9795 25.2286 83.1279 25.2093H83.4869L83.758 24.3533H83.2009ZM82.6123 28.9934L83.7965 25.2543L83.8639 25.0805C84.0356 24.6751 84.3153 24.437 84.7029 24.3662L84.8184 24.3533H86.0006L86.1616 24.3726C86.5498 24.4563 86.6726 24.733 86.5198 25.2157L85.9654 26.9662C85.9185 27.1142 85.8221 27.2622 85.6803 27.3974L85.5548 27.5004C85.3512 27.6548 85.1472 27.7321 84.9553 27.7321H83.835L83.4355 28.9934C83.4376 28.987 83.3715 28.9806 83.2292 28.9806L82.6123 28.9934ZM84.1775 26.6702C84.1594 26.786 84.2071 26.8504 84.3186 26.8697L84.3661 26.8761H84.9912C85.051 26.8632 85.1025 26.8375 85.1456 26.7989L85.2339 26.6766L85.6436 25.383C85.6535 25.2929 85.6223 25.235 85.5418 25.2157L85.5129 25.2093H84.8692C84.7763 25.2093 84.6919 25.2607 84.618 25.3573L84.5524 25.4667L84.1876 26.6187L84.1775 26.6702ZM88.289 26.8761H87.5586C87.5091 26.8761 87.4739 26.8504 87.4531 26.7989C87.4323 26.7474 87.43 26.6959 87.4463 26.6444L87.8274 25.4409C87.8437 25.3895 87.8786 25.338 87.932 25.2865C87.9855 25.235 88.037 25.2093 88.0865 25.2093H88.8169C88.8602 25.2093 88.8954 25.235 88.9224 25.2865C88.9412 25.3444 88.9434 25.3959 88.9292 25.4409L88.5501 26.638C88.5338 26.6895 88.4989 26.741 88.4455 26.7924C88.3838 26.8504 88.3323 26.8761 88.289 26.8761ZM87.1081 25.1127L86.5191 26.9726L86.4888 27.1271C86.4099 27.5325 86.6129 27.7321 87.0957 27.7321H88.2036C88.445 27.7321 88.6634 27.6677 88.859 27.539C89.0483 27.4103 89.1816 27.2236 89.2611 26.9726L89.8502 25.1127C89.9296 24.8617 89.9145 24.6751 89.8067 24.5464C89.6927 24.4177 89.515 24.3533 89.2736 24.3533H88.1657C87.7138 24.3533 87.3845 24.5528 87.1756 24.9583L87.1081 25.1127ZM90.3957 25.2221C90.5791 24.6429 90.9494 24.3533 91.5064 24.3533H92.0635L91.7924 25.2093H91.4334C91.285 25.2286 91.1965 25.2929 91.1659 25.3895L90.424 27.7321H89.6008L90.3957 25.2221ZM91.7502 26.2776L91.5322 26.9662L91.4956 27.1207C91.4353 27.5261 91.6486 27.7321 92.1252 27.7321H93.2579C93.4436 27.7321 93.6229 27.6741 93.7895 27.5583C93.9562 27.4424 94.0918 27.288 94.1901 27.0949L94.2514 26.9405L94.82 25.1449L94.8545 24.9969C94.9108 24.6236 94.7552 24.4112 94.3796 24.3662L94.2413 24.3533H92.372L92.1152 25.1642H93.8174C93.9226 25.1835 93.9641 25.2286 93.9479 25.2994L93.897 25.4796H92.7952C92.5538 25.4796 92.3333 25.5504 92.1544 25.6855C91.961 25.8271 91.8297 26.0266 91.7502 26.2776ZM92.5449 26.8954C92.4933 26.8825 92.4581 26.8568 92.4373 26.8246C92.4248 26.786 92.4247 26.7474 92.4369 26.7088L92.5205 26.4449C92.5634 26.3484 92.6251 26.2905 92.6972 26.2776L93.4235 26.2712C93.4792 26.2712 93.5143 26.2776 93.5267 26.2969C93.5846 26.3291 93.6034 26.387 93.5769 26.4707L93.5015 26.7088C93.4607 26.8375 93.3723 26.9018 93.2299 26.9018H92.5862L92.5449 26.8954ZM94.5722 27.7406L96.0417 23.1004H96.865L96.4655 24.3618H97.0164L96.7453 25.2178H96.1944L95.3955 27.7406H94.5722ZM97.3326 24.3529L96.2625 27.7316H97.0858L98.1558 24.3529H97.3326ZM97.7671 23.0979C97.6273 23.2073 97.5432 23.336 97.5004 23.4905C97.4598 23.6385 97.4767 23.7608 97.539 23.8573C97.6013 23.9539 97.7026 24.0053 97.8449 24.0053C97.9873 24.0053 98.1274 23.9539 98.2652 23.8509C98.3969 23.7479 98.4872 23.6192 98.534 23.4712C98.5809 23.3232 98.5701 23.2009 98.5057 23.0915C98.4331 22.9885 98.3318 22.937 98.1895 22.937C98.0409 22.937 97.9008 22.9885 97.7671 23.0979ZM98.9371 26.8761H99.6675C99.7108 26.8761 99.7623 26.8504 99.824 26.7924C99.8774 26.741 99.9123 26.6895 99.9286 26.638L100.308 25.4409C100.322 25.3959 100.32 25.3444 100.301 25.2865C100.274 25.235 100.239 25.2093 100.195 25.2093H99.465C99.4155 25.2093 99.364 25.235 99.3106 25.2865C99.2571 25.338 99.2223 25.3895 99.206 25.4409L98.8248 26.6444C98.8085 26.6959 98.8108 26.7474 98.8316 26.7989C98.8524 26.8504 98.8876 26.8761 98.9371 26.8761ZM97.8977 26.9726L98.4867 25.1127L98.5542 24.9583C98.763 24.5528 99.0924 24.3533 99.5442 24.3533H100.652C100.894 24.3533 101.071 24.4177 101.185 24.5464C101.293 24.6751 101.308 24.8617 101.229 25.1127L100.64 26.9726C100.56 27.2236 100.427 27.4103 100.237 27.539C100.042 27.6677 99.8235 27.7321 99.5821 27.7321H98.4742C97.9914 27.7321 97.7884 27.5325 97.8673 27.1271L97.8977 26.9726ZM102.795 24.3533C102.35 24.3533 102.027 24.5721 101.828 25.0033L101.767 25.1578L100.952 27.7321H101.775L102.515 25.3959C102.572 25.2736 102.679 25.2093 102.84 25.2093H103.348C103.508 25.2093 103.575 25.2736 103.555 25.3959L103.544 25.4474L102.821 27.7321H103.644L104.459 25.1578L104.496 25.0033C104.571 24.5721 104.386 24.3533 103.94 24.3533H102.795Z" fill="#A7A9AC" />
	<path d="M10.7536 10.0538C5.29476 15.3608 11.5703 19.5685 15.4389 17.3906C18.684 15.4244 18.8667 12.2635 18.7379 11.2801C17.5021 1.07828 0.652467 2.71691 1.93349 15.9753C2.15069 18.2224 3.3461 20.5276 5.96599 23.1993C6.08125 23.3127 6.6133 23.7837 5.55263 23.1735C-0.346923 19.7799 0.308551 10.815 3.39263 7.15726C6.47671 3.49925 12.7739 2.11431 16.7713 5.47623C20.7689 8.83801 20.0918 12.9928 20.5754 13.5849C24.3364 8.7218 18.2864 2.59014 15.3528 0.65542C15.1534 0.53104 15.7344 0.533857 16.2556 0.718807C31.0203 7.06204 23.0235 29.2981 6.87432 21.4926C6.67458 21.396 6.61645 21.0803 6.24032 20.668C6.17589 20.076 7.98109 21.4504 8.51844 20.7737C4.39202 16.9255 5.68149 8.63714 10.7536 10.0538Z" fill="#D1D3D4" />
	<path d="M9.78486 9.48395C4.32601 14.791 10.6016 18.9987 14.4701 16.8208C17.7154 14.8545 17.8981 11.6936 17.7691 10.7103C16.5333 0.508461 -0.316283 2.14709 0.964741 15.4054C1.18194 17.6525 2.37735 19.9578 4.99724 22.6295C5.1125 22.7429 5.64455 23.2139 4.58388 22.6037C-1.31567 19.2101 -0.660199 10.2452 2.42388 6.5873C5.50796 2.92943 11.8051 1.54449 15.8025 4.90641C19.8001 8.26818 19.123 12.4229 19.6067 13.0149C23.3677 8.15197 17.3178 2.02032 14.3842 0.085598C14.1846 -0.0387821 14.7656 -0.035965 15.2868 0.148985C30.0516 6.49221 22.0547 28.7283 5.90557 20.9228C5.70583 20.8262 5.6477 20.5105 5.27157 20.0982C5.20714 19.5062 7.01249 20.8804 7.54969 20.2039C3.42327 16.3557 4.71288 8.06732 9.78486 9.48395Z" fill="#E42C38" />
	<path fill-rule="evenodd" clip-rule="evenodd" d="M0.29221 13.8865C0.106621 8.08174 4.3482 3.26115 9.74017 3.09421C10.9829 3.05571 12.1619 3.23477 13.2422 3.61795C12.4328 3.43642 11.5813 3.35718 10.7001 3.38446C5.12772 3.55699 0.785142 8.53016 0.974969 14.4674C1.06646 17.3279 2.01018 19.6837 3.53366 21.4086C1.62088 19.7014 0.396173 17.137 0.29221 13.8865ZM4.3046 22.1842L4.21551 22.3079C1.74092 20.5829 0.127079 17.6812 0.00599344 13.8954C-0.183833 7.95804 4.15875 2.98516 9.73116 2.81263C11.829 2.74764 13.7583 3.28635 15.3526 4.37186C16.1501 4.77573 16.8825 5.29975 17.5331 5.93823C19.3115 7.68368 20.4688 10.2747 20.6855 13.5794C20.6906 13.657 20.6308 13.724 20.5518 13.729C20.4729 13.734 20.4048 13.6752 20.3997 13.5975C20.1866 10.3477 19.0509 7.82584 17.3308 6.13768C17.2285 6.03724 17.124 5.93971 17.0175 5.84513C18.5383 7.5719 19.5188 9.99281 19.7165 13.0076L19.4308 13.0257C19.2176 9.77583 18.0819 7.25398 16.3618 5.56579C16.0013 5.21196 15.6147 4.89432 15.2049 4.61399C13.8699 3.9416 12.3447 3.61542 10.7091 3.66604C5.31718 3.83298 1.0756 8.65385 1.26119 14.4585C1.37978 18.1663 2.95669 20.9816 5.35005 22.65C5.41457 22.695 5.42981 22.7829 5.38409 22.8464C5.33837 22.9099 5.24901 22.9249 5.18449 22.8799C4.87754 22.6659 4.58385 22.4338 4.3046 22.1842Z" fill="#E42C38" />
</svg>
